<svg width="60" height="60" viewBox="0 0 60 60" fill="none" xmlns="http://www.w3.org/2000/svg">
<path d="M17.9549 8.00291C30.6016 7.99903 43.249 7.99903 55.8972 8.00291C55.901 12.0905 55.901 16.1774 55.8972 20.2636C43.2502 20.2675 30.6028 20.2675 17.9549 20.2636C17.9509 16.176 17.9509 12.0891 17.9549 8.00291Z" fill="#D0D0D0"/>
<path d="M3.01587 24.8763C7.09599 24.8552 11.1768 24.8552 15.2583 24.8763C15.2795 28.9562 15.2795 33.0367 15.2583 37.118C11.177 37.139 7.09616 37.1393 3.01587 37.1191C2.99471 33.0385 2.99471 28.9576 3.01587 24.8763Z" fill="white"/>
<path d="M17.9645 24.8764C27.0926 24.857 36.2201 24.857 45.347 24.8764C45.3664 28.9562 45.3664 33.0368 45.347 37.118C36.219 37.1371 27.0915 37.1371 17.9645 37.118C17.9454 33.038 17.9454 28.9574 17.9645 24.8764Z" fill="white"/>
<path d="M17.976 41.7535C22.0492 41.7093 26.1217 41.7093 30.1936 41.7535C30.2359 45.8239 30.2365 49.8961 30.1954 53.9703C26.1222 54.0105 22.0497 54.0098 17.9781 53.9682C17.9358 49.8982 17.9351 45.8267 17.976 41.7535Z" fill="#E9E9E9"/>
</svg>
