<svg width="60" height="60" viewBox="0 0 60 60" fill="none" xmlns="http://www.w3.org/2000/svg">
<path d="M35.8295 19.6868C35.8295 12.3694 32.2644 6.06755 29.5492 4.02214C29.5492 4.02214 29.3404 3.90691 29.362 4.2022C29.1387 18.34 21.915 22.1715 17.9466 27.3282C8.78548 39.2406 17.2984 52.298 25.9842 54.7108C30.824 56.0648 24.8606 52.3197 24.09 44.4189C23.1465 34.8833 35.8295 27.5947 35.8295 19.6868V19.6868Z" fill="#D0D0D0"/>
<path d="M39.9924 24.5049C39.9348 24.4689 39.8556 24.4401 39.8052 24.5337C39.6539 26.3126 37.839 30.1154 35.5343 33.6156C27.72 45.4703 32.1709 51.1888 34.6773 54.2641C36.1321 56.0431 34.6773 54.2641 38.3071 52.442C42.7941 49.7196 45.7037 45.0094 46.1359 39.7806C46.8489 31.3541 41.793 26.0462 39.9924 24.5049V24.5049Z" fill="white"/>
</svg>
