<svg width="60" height="60" viewBox="0 0 60 60" fill="none" xmlns="http://www.w3.org/2000/svg">
<g clip-path="url(#clip0)">
<path d="M23.2715 13.6533C22.6265 13.5604 22.5958 13.5294 22.9029 13.4985C23.4865 13.4056 24.8379 13.5294 25.7901 13.7462C28.0015 14.2725 29.9979 15.6347 32.1172 18.0186L32.6701 18.6688L33.4687 18.5449C36.878 17.9877 40.3794 18.4211 43.2973 19.7833C44.0958 20.1548 45.3551 20.8979 45.5087 21.0836C45.5701 21.1455 45.6623 21.548 45.7237 21.9505C45.9387 23.4056 45.8466 24.4892 45.3858 25.3251C45.1401 25.7895 45.1401 25.9134 45.2937 26.3158C45.4166 26.6254 45.7851 26.8421 46.123 26.8421C46.8601 26.8421 47.628 25.6657 47.9966 24.0248L48.1501 23.3747L48.4266 23.6842C49.993 25.449 51.2216 27.8948 51.4059 29.6285L51.4673 30.0929L51.1909 29.6904C50.7301 28.9784 50.3001 28.514 49.7166 28.1115C48.6723 27.3994 47.5666 27.1827 44.6487 27.0279C42.0073 26.8731 40.5023 26.6564 39.028 26.161C36.5094 25.3251 35.2194 24.2415 32.2401 20.2477C30.9194 18.483 30.0901 17.5233 29.2608 16.7183C27.4486 14.9536 25.6365 14.0248 23.2715 13.6533Z" fill="white"/>
<path d="M46.1536 17.5851C46.215 16.4086 46.3686 15.6346 46.7065 14.9226C46.8293 14.6439 46.9522 14.3962 46.9829 14.3962C47.0136 14.3962 46.9522 14.613 46.86 14.8606C46.6143 15.5418 46.5836 16.5015 46.7372 17.5851C46.9522 18.9783 47.0443 19.164 48.5186 20.6811C49.1943 21.3931 49.9929 22.291 50.3 22.6625L50.8222 23.3436L50.3 22.8483C49.655 22.2291 48.1808 21.0526 47.8429 20.8978C47.6279 20.774 47.5972 20.7739 47.4436 20.9287C47.3207 21.0526 47.29 21.2383 47.29 22.1362C47.2593 23.5294 47.075 24.3962 46.6143 25.2941C46.3686 25.7585 46.3379 25.6656 46.5529 25.1393C46.7065 24.7368 46.7372 24.551 46.7372 23.2198C46.7372 20.5263 46.43 19.8761 44.5565 18.7925C44.0957 18.5139 43.2972 18.1114 42.8364 17.8947C42.345 17.678 41.9764 17.4922 42.0072 17.4922C42.0686 17.4303 43.8807 17.9566 44.5872 18.2662C45.6622 18.6996 45.8465 18.7306 45.9693 18.6996C46.0615 18.6068 46.1229 18.3591 46.1536 17.5851Z" fill="white"/>
<path d="M24.5309 22.1981C23.2409 20.4024 22.4116 17.6161 22.5959 15.5418L22.6573 14.8916L22.9644 14.9535C23.5173 15.0464 24.4695 15.4179 24.9302 15.6966C26.1587 16.4396 26.7116 17.4613 27.2337 20C27.3873 20.743 27.6023 21.6099 27.6945 21.8885C27.848 22.3529 28.4316 23.4365 28.923 24.1176C29.2609 24.613 29.0459 24.8606 28.278 24.7987C27.1109 24.6749 25.5445 23.5913 24.5309 22.1981Z" fill="white"/>
<path d="M44.5872 35.6656C38.5057 33.1888 36.3557 31.0526 36.3557 27.4303C36.3557 26.904 36.3864 26.4706 36.3864 26.4706C36.4171 26.4706 36.6321 26.6563 36.9086 26.8731C38.1371 27.8638 39.5193 28.2972 43.3586 28.8545C45.6007 29.195 46.8907 29.4427 48.0579 29.8452C51.7743 31.0836 54.0779 33.6223 54.6308 37.0588C54.7843 38.0495 54.6922 39.9381 54.4465 40.9288C54.2315 41.7028 53.6172 43.1269 53.4636 43.1579C53.4329 43.1579 53.3715 43.0031 53.3715 42.7554C53.31 41.4551 52.665 40.2167 51.59 39.257C50.3 38.1424 48.6415 37.3065 44.5872 35.6656Z" fill="white"/>
<path d="M40.2871 36.6873C40.2257 36.2229 40.0721 35.6347 39.98 35.387L39.8264 34.9226L40.1029 35.2632C40.5021 35.7276 40.8093 36.2848 41.0857 37.0588C41.3007 37.6471 41.3007 37.8328 41.3007 38.7926C41.3007 39.7214 41.27 39.9381 41.0857 40.4644C40.7786 41.3003 40.41 41.8886 39.7957 42.5387C38.69 43.6842 37.2464 44.3034 35.1886 44.5821C34.82 44.613 33.7757 44.7059 32.8543 44.7678C30.5507 44.8917 29.015 45.1393 27.6328 45.6347C27.4485 45.6966 27.2643 45.7585 27.2335 45.7276C27.1721 45.6656 28.1243 45.1084 28.8921 44.7369C29.9671 44.2105 31.0728 43.9319 33.4993 43.4985C34.6971 43.3127 35.9257 43.065 36.2328 42.9412C39.2736 41.9814 40.7786 39.5975 40.2871 36.6873Z" fill="white"/>
<path d="M43.0823 41.6718C42.2837 39.9071 42.0995 38.2352 42.5295 36.6563C42.5909 36.5015 42.6523 36.3467 42.7137 36.3467C42.7752 36.3467 42.9595 36.4396 43.1437 36.5634C43.5123 36.8111 44.2802 37.2445 46.2459 38.3281C48.7338 39.6903 50.1466 40.743 51.1295 41.9504C51.9895 43.003 52.5116 44.2105 52.7573 45.6965C52.9109 46.5324 52.8188 48.5448 52.6038 49.3807C51.9281 52.0123 50.3923 54.1176 48.1502 55.325C47.8123 55.5108 47.5359 55.6346 47.5052 55.6346C47.4745 55.6346 47.5973 55.325 47.7816 54.9535C48.5188 53.3746 48.6109 51.8575 48.058 50.1547C47.7202 49.1021 47.0138 47.8328 45.6009 45.6965C43.9116 43.2197 43.5123 42.5696 43.0823 41.6718Z" fill="white"/>
<path d="M20.2002 51.1454C22.473 49.2259 25.2681 47.8637 27.8481 47.4303C28.9538 47.2445 30.7966 47.3064 31.8102 47.5851C33.4381 48.0185 34.9124 48.9473 35.6802 50.0928C36.4174 51.2074 36.7552 52.1671 37.0931 54.3033C37.2159 55.1393 37.3695 56.0061 37.4002 56.1919C37.6459 57.3064 38.1374 58.1733 38.7517 58.6377C39.7038 59.3498 41.3624 59.3807 42.9902 58.7615C43.2667 58.6687 43.5124 58.5758 43.5124 58.6068C43.5738 58.6687 42.7445 59.2259 42.1917 59.5046C41.4238 59.9071 40.8095 60.0309 39.9802 60.0309C38.5059 60.0309 37.2467 59.2569 36.2331 57.7089C36.0181 57.3993 35.5881 56.5015 35.2195 55.6656C34.1445 53.1578 33.5916 52.4148 32.3324 51.5789C31.2266 50.8668 29.8138 50.712 28.7388 51.2383C27.3259 51.9194 26.9573 53.7461 27.9402 54.8606C28.3395 55.325 29.0766 55.6965 29.6909 55.7894C30.8274 55.9442 31.8102 55.0464 31.8102 53.9009C31.8102 53.1578 31.5338 52.7244 30.7966 52.3838C29.8138 51.9504 28.7388 52.4458 28.7695 53.4055C28.7695 53.808 28.9538 54.0557 29.3531 54.2414C29.5988 54.3653 29.5988 54.3653 29.4145 54.3343C28.5238 54.1485 28.3088 53.034 29.0152 52.3219C29.8752 51.455 31.6874 51.8266 32.3016 53.034C32.5474 53.5294 32.5781 54.5201 32.3631 55.1393C31.8409 56.5015 30.3666 57.2136 28.8616 56.8111C27.8481 56.5324 27.4181 56.2538 26.1895 54.9845C24.0395 52.7554 23.2102 52.3219 20.1387 51.8575L19.5552 51.7646L20.2002 51.1454Z" fill="white"/>
<path fill-rule="evenodd" clip-rule="evenodd" d="M4.0437 1.33127C11.2002 10.0929 22.2266 23.7152 22.7795 24.4582C23.2402 25.0774 23.0559 25.6656 22.288 26.0991C21.858 26.3468 20.9673 26.5944 20.5373 26.5944C20.0459 26.5944 19.4623 26.3468 19.063 25.9443C18.7866 25.6656 17.5887 23.9009 14.8859 19.6594C12.828 16.4087 11.0773 13.7152 11.0466 13.6842C10.9237 13.6223 10.9237 13.6223 14.6709 20.3715C17.0359 24.613 17.8037 26.13 17.8037 26.3158C17.8037 26.7183 17.6809 26.935 17.1895 27.4923C16.3602 28.4211 15.9916 29.4737 15.7152 31.6718C15.408 34.1176 14.5787 35.8514 12.2137 38.7926C10.8316 40.5263 10.6166 40.8359 10.2787 41.548C9.84872 42.4149 9.72586 42.9102 9.66444 44.0248C9.60301 45.2012 9.72586 45.9443 10.0637 47.0588C10.3709 48.0495 10.7087 48.6997 11.538 49.969C12.2444 51.0836 12.6744 51.9195 12.6744 52.2291C12.6744 52.4768 12.7359 52.4768 13.8416 52.2291C16.483 51.6099 18.6638 50.5573 19.8616 49.257C20.5988 48.452 20.783 48.0186 20.783 46.904C20.783 46.192 20.7523 46.0372 20.568 45.6037C20.2609 44.9226 19.6773 44.3653 18.418 43.4985C16.7595 42.3529 16.053 41.4241 15.8687 40.1858C15.7152 39.1331 15.8995 38.4211 16.8209 36.4706C17.773 34.4582 18.0187 33.6223 18.1723 31.5789C18.2645 30.2786 18.418 29.7523 18.7866 29.3498C19.1859 28.9164 19.5238 28.7616 20.4759 28.6378C22.0423 28.4211 23.0559 28.0186 23.8545 27.2446C24.5609 26.5944 24.8681 25.9443 24.8988 24.9845L24.9295 24.2724L24.5302 23.839C23.0866 22.1672 3.09156 0 2.99941 0C2.9687 0 3.46013 0.588235 4.0437 1.33127ZM13.473 45.356C13.8109 44.7678 13.6266 44.0248 13.0737 43.6533C12.5516 43.3127 11.753 43.4675 11.753 43.9319C11.753 44.0557 11.8144 44.1796 11.9987 44.2415C12.2752 44.3963 12.3059 44.5511 12.0909 44.8916C11.8759 45.2322 11.8759 45.5418 12.1523 45.7585C12.5823 46.0991 13.1659 45.9133 13.473 45.356Z" fill="white"/>
<path fill-rule="evenodd" clip-rule="evenodd" d="M25.9128 29.0713C25.1757 29.288 24.4693 30.093 24.2543 30.8979C24.1314 31.3933 24.1928 32.2911 24.4078 32.5697C24.7457 33.0032 25.0528 33.127 25.9128 33.127C27.6021 33.127 29.0457 32.384 29.1993 31.4861C29.3529 30.7431 28.7079 29.7214 27.8171 29.257C27.3564 29.0094 26.4043 28.9165 25.9128 29.0713ZM27.8786 30.6193C28.1243 30.2478 28.0321 29.8453 27.5714 29.5666C26.7421 29.0403 25.4828 29.4738 25.4828 30.2787C25.4828 30.6812 26.1278 31.1146 26.7421 31.1146C27.1414 31.1146 27.6943 30.867 27.8786 30.6193Z" fill="white"/>
</g>
<defs>
<clipPath id="clip0">
<rect width="51.6923" height="60" fill="white" transform="translate(3)"/>
</clipPath>
</defs>
</svg>
