<svg width="1468" height="455" viewBox="0 0 1468 455" fill="none" xmlns="http://www.w3.org/2000/svg">
<path d="M194.54 176.432H123.885L123.55 442.786H53.5963L53.9316 176.371H0.4375V106.269H53.9316L53.5963 0.843048H123.703L124.038 106.483H194.54V176.432Z" fill="white"/>
<path d="M391.905 454.643C361.998 454.938 332.634 446.656 307.29 430.778C281.445 414.526 260.194 391.925 245.563 365.13C230.932 338.335 223.409 308.24 223.711 277.713C223.324 231.046 240.982 186.035 272.999 152.079C288.166 135.939 306.377 122.959 326.584 113.889C350.519 103.324 376.66 98.7219 402.764 100.479C428.868 102.236 454.157 110.3 476.459 123.978C501.903 139.875 522.882 161.985 537.421 188.227C552.65 215.57 560.467 246.418 560.099 277.713C560.286 301.222 555.832 324.536 546.992 346.321C538.535 367.182 526.277 386.291 510.842 402.676C495.689 418.792 477.512 431.769 457.348 440.866C436.775 450.103 414.455 454.801 391.905 454.643ZM391.905 384.694C409.73 384.925 427.209 379.761 442.046 369.881C456.872 359.98 468.96 346.499 477.191 330.685C485.739 314.194 490.173 295.881 490.114 277.306C490.056 258.731 485.507 240.446 476.855 224.009C468.486 208.188 456.288 194.713 441.376 184.813C426.551 175.25 409.276 170.179 391.634 170.211C373.992 170.243 356.736 175.378 341.947 184.996C327.011 194.889 314.851 208.433 306.619 224.344C297.977 240.798 293.528 259.129 293.665 277.713C293.412 296.626 298.053 315.283 307.137 331.874C315.642 347.526 327.961 360.777 342.952 370.399C357.535 379.817 374.545 384.784 391.905 384.694Z" fill="white"/>
<path d="M816.352 181.918C806.944 176.073 796.822 171.464 786.237 168.202C778.976 166.062 771.433 165.034 763.864 165.155C747.552 164.811 731.549 169.633 718.143 178.931C704.848 188.463 694.328 201.36 687.662 216.298C680.23 232.656 676.494 250.451 676.719 268.417V442.786H606.43V106.483H676.384V151.896C687.483 135.614 702.058 121.998 719.057 112.03C736.062 102.196 755.408 97.1409 775.051 97.4C782.671 97.4 789.925 97.7353 796.753 98.4058C803.441 99.0457 810.041 100.394 816.444 102.429L816.352 181.918Z" fill="white"/>
<path d="M1334.29 449.248C1316.59 448.137 1299.14 444.514 1282.47 438.489C1266.4 432.855 1251.43 424.493 1238.21 413.77C1225.97 403.892 1216.24 391.267 1209.8 376.921L1269.36 351.35C1273.06 358.35 1278.26 364.44 1284.6 369.18C1292.37 375.286 1301.07 380.111 1310.36 383.474C1320.25 387.189 1330.73 389.069 1341.3 389.022C1351.29 389.112 1361.23 387.589 1370.74 384.511C1379.27 381.824 1386.97 377.009 1393.11 370.521C1398.87 364.45 1402.01 356.361 1401.86 347.997C1402.09 343.651 1401.31 339.31 1399.59 335.314C1397.86 331.317 1395.24 327.772 1391.92 324.955C1384.63 319.113 1376.22 314.82 1367.2 312.337C1357.33 309.289 1347.45 306.607 1337.61 303.925C1316.79 299.393 1296.54 292.565 1277.22 283.565C1260.32 275.993 1245.39 264.6 1233.64 250.282C1222.87 236.709 1217.49 220.057 1217.51 200.327C1217.07 180.259 1223.18 160.593 1234.92 144.307C1246.71 128.251 1262.56 115.627 1280.85 107.732C1300.03 99.1663 1320.81 94.8016 1341.81 94.9313C1367.5 94.6505 1392.88 100.535 1415.82 112.091C1437.12 122.58 1454.95 138.981 1467.18 159.333L1411.71 192.25C1408.04 185.106 1402.83 178.862 1396.47 173.963C1389.56 168.484 1381.85 164.114 1373.61 161.009C1365.1 157.764 1356.12 155.892 1347.03 155.462C1336.31 154.921 1325.57 156.23 1315.3 159.333C1306.34 161.864 1298.25 166.809 1291.92 173.628C1285.93 180.51 1282.8 189.417 1283.17 198.529C1283.17 208.363 1286.64 215.709 1293.59 220.565C1301.67 225.889 1310.6 229.805 1319.99 232.147C1330.66 235.073 1341.59 238.324 1352.79 241.9C1372.16 247.932 1390.96 255.642 1408.99 264.942C1425.28 273.069 1439.71 284.485 1451.36 298.469C1462.29 312.168 1467.8 329.404 1466.85 346.9C1467.17 367.052 1460.44 386.683 1447.83 402.402C1434.83 418.582 1417.84 431.103 1398.54 438.733C1378.2 447.08 1356.22 450.677 1334.29 449.248Z" fill="white"/>
<path d="M1180.93 276.372C1183.1 368.601 1105.74 456.197 1011.37 454.49C914.47 456.319 836.225 363.267 842.474 268.904C843.545 233.621 855.007 199.438 875.424 170.641C876.308 169.178 876.948 169.117 878.228 170.336C894.142 186.018 912.721 198.743 933.094 207.916C934.618 208.556 934.74 209.014 933.795 210.294C918.602 231.528 911.293 257.398 913.129 283.443C913.921 351.258 989.331 407.583 1052.73 374.392C1110.65 345.742 1128.02 264.028 1090.89 212.305C1087.33 208.739 1088.03 207.825 1092.57 206.484C1106.01 200.143 1118.63 192.19 1130.15 182.802C1135.37 178.695 1140.34 174.278 1145.03 169.574C1146.22 168.324 1146.8 168.629 1147.65 169.848C1169.72 200.948 1181.37 238.239 1180.93 276.372Z" fill="white"/>
<path d="M877.71 0.843093H910.264C913.312 0.843093 912.885 0.477347 912.946 3.61667C911.148 81.4901 1002.23 141.259 1067.52 89.8718C1080.81 79.5889 1091.57 66.3955 1098.97 51.3053C1106.36 36.2151 1110.2 19.6299 1110.19 2.82422C1110.19 1.33075 1110.49 0.782135 1112.14 0.782135C1134.49 0.782135 1156.78 0.782135 1179.01 0.782135C1180.51 0.782135 1180.84 1.23932 1180.84 2.67182C1182.12 127.635 1048.46 222.302 934.527 159.912C877.954 129.464 842.139 67.1346 842.322 2.94613C842.322 1.33075 842.688 0.843093 844.364 0.843093C855.49 0.843093 866.585 0.843093 877.71 0.843093Z" fill="white"/>
</svg>
