<svg width="45" height="51" viewBox="0 0 45 51" fill="none" xmlns="http://www.w3.org/2000/svg">
<path d="M12.1026 48.5022C9.73031 48.5022 7.65452 47.9571 5.87527 46.867C3.50294 45.4134 2.02024 43.0514 1.42716 40.0535C1.03177 37.3282 1.42716 33.9669 2.71217 30.6056C3.99718 27.2443 6.17181 23.6105 8.93953 20.4309C12.9923 15.6161 18.0335 11.8914 23.0747 9.80197C25.8424 8.71182 28.5112 8.16675 30.8836 8.16675C33.2559 8.16675 35.3317 8.71182 37.1109 9.80197C38.8902 10.8921 40.1752 12.4365 40.966 14.3442C41.0917 14.0806 41.191 13.8069 41.2625 13.5266L42.0533 11.2555L42.5475 13.6175C43.4371 18.614 41.9544 23.1563 40.3729 26.4267C40.8012 26.1621 41.1987 25.8577 41.5591 25.5182L43.536 23.883L42.5475 26.1542C41.1637 29.9697 38.6925 33.331 35.3317 36.3289C36.0236 36.238 36.8144 36.1472 37.4075 35.8746L39.8787 34.9662L38.1983 36.7831C34.0467 41.3254 28.2147 43.5965 24.0631 44.7775C22.74 45.5713 21.352 46.2699 19.9116 46.867C17.1438 47.9571 14.5738 48.5022 12.1026 48.5022ZM30.8836 12.0731C29.1043 12.0731 27.0285 12.5273 24.8539 13.4358C20.3069 15.1619 15.8588 18.5231 12.2015 22.7929C7.35798 28.5162 4.8868 34.8753 5.67758 39.5085C5.97412 41.3254 6.86374 42.7789 8.2476 43.5965C9.33492 44.2324 10.6199 44.5958 12.2015 44.5958C13.9807 44.5958 15.9577 44.1416 18.2312 43.2331C22.6793 41.5071 27.1274 38.1458 30.7847 33.876C35.6282 28.1528 38.0994 21.7936 37.3086 17.1605C37.0121 15.2527 36.1225 13.89 34.7386 13.0724C33.6513 12.4365 32.3663 12.0731 30.8836 12.0731Z" fill="#56A4CB"/>
<path d="M38.3959 21.6119C39.7797 19.8858 40.274 17.7055 40.5705 16.252C39.4832 17.433 38.6924 17.978 38.6924 17.978C38.7913 19.0682 38.8901 20.1584 38.3959 21.6119Z" fill="#277DAD"/>
<path d="M20.6033 12.4364C31.8719 5.80473 38.9889 12.8906 39.0877 14.6167C38.6923 11.8914 36.5177 9.9836 34.0465 8.89346C31.8719 7.80332 25.3479 9.25684 25.3479 9.25684L20.6033 12.4364Z" fill="#DDEDF5"/>
<path d="M16.7486 46.5037C14.7717 47.6847 9.63166 47.2305 8.64319 46.8671C8.64319 45.6861 9.03858 44.4143 9.03858 44.4143H11.5098C11.5098 44.4143 11.5098 45.3228 14.1786 44.7777C15.5625 45.4136 16.7486 46.5037 16.7486 46.5037Z" fill="#277DAD"/>
<path d="M1.625 36.5104C3.89848 29.2428 11.7074 15.4343 26.6333 9.34763C24.261 8.34833 14.1786 13.4357 8.93969 20.4308C2.41578 28.9703 2.41578 31.1506 1.625 36.5104Z" fill="#DDEDF5"/>
<path d="M34.0467 29.6061C34.0467 29.6061 36.5179 28.7885 38.0994 27.6983C39.2856 25.8814 41.2625 21.5208 41.2625 17.7053C38.396 23.8828 36.3202 24.6096 36.3202 24.6096C35.2329 27.6075 34.8375 28.0617 34.0467 29.6061ZM35.6283 37.6005C30.9824 40.9618 27.8193 42.3245 23.6677 43.5055L21.0977 44.8682L20.5046 42.5062C20.5046 42.5062 30.3894 37.6914 33.6513 30.1512C35.2329 30.8779 39.5821 28.9702 40.5706 27.6075C38.5937 30.8779 31.8721 37.6005 31.8721 37.6005H35.6283Z" fill="#277DAD"/>
<path d="M30.8835 8.71176C33.0581 8.71176 35.1339 9.25683 36.7155 10.2561C38.7913 11.528 40.0763 13.3449 40.6693 15.7977C41.1636 15.1618 41.6578 14.435 41.8555 13.7083C42.6862 18.536 41.6733 23.4791 38.9889 27.6985C40.0763 27.2443 41.1636 26.6992 41.9544 25.9724C40.1751 30.6964 36.9132 34.2394 33.5524 36.9648H33.7501C34.9362 36.9648 36.5178 36.8739 37.7039 36.4197C33.6512 40.6894 28.2146 43.0514 23.7665 44.2324C22.4446 45.0282 21.0564 45.7268 19.6149 46.3219C16.9461 47.412 14.4749 47.8663 12.2014 47.8663C9.92792 47.8663 7.95097 47.412 6.27058 46.4127C3.99709 44.9592 2.61323 42.7789 2.119 39.9627C1.62476 37.3282 2.02015 34.1486 3.30516 30.7873C4.59018 27.426 6.66596 23.883 9.43368 20.7942C13.3876 16.0703 18.3299 12.3456 23.3711 10.347C26.04 9.25683 28.61 8.71176 30.8835 8.71176ZM12.2014 45.2317C13.9806 45.2317 16.1553 44.6867 18.4288 43.7782C22.9757 41.9613 27.6215 38.6 31.2789 34.2394C36.2212 28.4253 38.7913 21.8844 38.0005 17.0696C37.6051 15.071 36.6166 13.5266 35.1339 12.5273C33.9477 11.8005 32.465 11.4371 30.8835 11.4371C29.0054 11.4371 26.8308 11.8914 24.5573 12.8907C20.0103 14.7076 15.4633 18.0689 11.7072 22.4295C6.76481 28.2436 4.19479 34.7845 4.98556 39.5993C5.38095 41.5979 6.36942 43.1423 7.95097 44.1416C9.03829 44.8683 10.521 45.2317 12.2014 45.2317ZM30.8835 7.62161C28.4123 7.62161 25.6446 8.16668 22.8769 9.25683C17.638 11.3463 12.4979 15.1618 8.34636 20.0675C5.57865 23.3379 3.40401 26.8809 2.119 30.333C0.73514 33.876 0.339752 37.3282 0.833987 40.1444C1.42707 43.324 3.00862 45.7768 5.57865 47.3212C7.35789 48.5022 9.63137 49.0472 12.1026 49.0472C14.6726 49.0472 17.3414 48.5022 20.1092 47.412C21.5828 46.8179 23.0039 46.1193 24.3596 45.3226C26.8701 44.6302 29.29 43.6858 31.5754 42.5064C36.5178 39.8718 38.3959 38.0549 41.9544 33.876L37.2097 35.3295C41.9544 30.6056 43.1405 27.7894 44.6232 22.4295L41.9544 24.4281C44.9198 17.978 42.9428 11.0737 42.3497 9.62021C41.8555 10.7104 41.2624 12.3456 40.867 12.7998C40.0724 11.4128 38.9181 10.2271 37.5062 9.34768C35.6281 8.16668 33.3547 7.53076 30.8835 7.53076V7.62161ZM12.2014 44.0507C10.7187 44.0507 9.53253 43.6874 8.6429 43.1423C7.35789 42.3247 6.56712 41.1437 6.27058 39.4176C5.57865 34.9662 8.04982 28.6978 12.6956 23.1562C16.353 18.9773 20.7022 15.7069 25.0515 13.9808C27.2261 13.0723 29.1042 12.6181 30.8835 12.6181C32.2673 12.6181 33.4535 12.9815 34.442 13.5266C35.6281 14.2533 36.4189 15.5252 36.7155 17.2513C37.5062 21.7027 35.0351 27.971 30.2904 33.5126C26.7319 37.6915 22.2838 40.962 17.9345 42.688C15.8587 43.5965 13.8818 43.9599 12.2014 43.9599V44.0507Z" fill="#083751"/>
<path d="M12.2016 44.0508C10.7189 44.0508 9.53269 43.6874 8.64306 43.1423C7.35805 42.3247 6.56727 41.1437 6.27073 39.4176C5.5788 34.9662 8.04998 28.6979 12.6958 23.1563C16.3531 18.9774 20.7024 15.7069 25.0517 13.9808C27.2263 13.0724 29.1044 12.6182 30.8837 12.6182C32.2675 12.6182 33.4537 12.9815 34.4422 13.5266C35.6283 14.2534 36.4191 15.5252 36.7157 17.2513C37.5064 21.7027 35.0353 27.9711 30.2906 33.5127C26.7321 37.6916 22.284 40.962 17.9347 42.6881C15.8589 43.5965 13.882 43.9599 12.2016 43.9599V44.0508Z" fill="#083751"/>
<path d="M5.67771 2.08019C5.57887 2.71611 5.67771 5.98656 6.96273 6.53163C6.0731 4.53302 7.06157 0.80835 11.7074 0.80835C10.8178 1.35342 10.1258 2.35273 9.92814 2.98865C9.59332 3.29135 9.29505 3.62639 9.03852 3.98795C9.4339 3.80626 10.5212 2.08019 14.574 2.08019C15.6613 2.08019 16.7486 2.17104 17.7371 2.71611C16.0567 2.35273 14.3763 3.17034 12.9924 3.98795C13.9809 3.71541 15.3647 2.80696 17.3417 3.17034C18.6267 3.44288 19.2198 4.53302 20.3071 5.16894C21.1967 5.62317 22.3829 5.53233 22.976 4.71472C23.1197 4.4962 23.1886 4.24295 23.1736 3.98795C23.4388 4.23425 23.6711 4.50873 23.8656 4.80556C24.2668 5.43642 24.4398 6.16801 24.3598 6.89501C23.3713 6.80417 22.4817 7.0767 21.4932 6.98586C20.554 6.87243 19.6658 6.52708 18.9232 5.98656C19.459 6.71316 20.2691 7.23112 21.1967 7.44009C22.284 7.80347 23.4702 7.34924 24.5575 7.53093C25.9414 7.80347 27.6218 8.53024 29.1045 7.62178C29.3826 7.45848 29.6187 7.24148 29.7964 6.98586C30.0224 7.60481 30.0224 8.27466 29.7964 8.89362C29.683 9.23665 29.4793 9.54868 29.2033 9.80208C29.0056 10.0746 28.7091 10.1655 28.4125 10.2563C27.4241 9.89292 26.3368 9.80208 25.3483 9.71123C26.2379 9.98377 27.2264 10.2563 28.116 10.7105C29.0056 11.1648 29.5987 11.7098 30.1918 12.3458C30.686 12.8908 31.2791 13.4359 32.0699 13.6176C32.6278 13.7371 33.2115 13.7056 33.7503 13.5268C33.948 14.2535 33.1572 15.5254 32.1687 15.6162C32.6605 15.9188 33.1919 16.163 33.7503 16.343C33.3549 16.7064 32.3664 16.888 31.7733 16.9789C33.2561 17.6148 33.948 19.5226 33.948 21.0669C33.7503 20.6127 33.4537 20.0676 32.8607 19.6134C33.0584 20.2493 32.9595 21.0669 32.8607 21.7937L30.9826 19.7951C31.2791 19.1592 31.1803 18.705 31.0814 18.069C30.8837 19.1592 29.9941 20.431 29.5987 20.8853C29.7964 20.2493 29.6976 19.5226 29.5987 18.7958C29.4264 18.0437 29.1611 17.3122 28.8079 16.6155L27.5229 13.6176C27.1275 14.8894 26.831 15.5254 26.3368 16.0704C26.359 15.6444 26.3258 15.2174 26.2379 14.7986C26.2379 14.6169 25.9414 13.2542 24.4587 11.4373C24.6564 12.2549 24.9529 13.2542 24.5575 14.2535C24.5575 13.5268 23.9644 11.4373 22.4817 10.6197C22.8771 11.2556 23.2725 13.4359 22.7783 14.0718C22.7783 12.8 21.8886 11.7098 20.9002 10.9831C20.1094 10.438 16.0567 8.34855 16.0567 8.34855C16.0567 8.34855 16.8474 11.4373 15.167 11.619C15.7601 10.6197 14.4751 8.43939 12.9924 7.98516C13.1901 7.2584 13.1901 6.44078 12.8936 5.71402C12.2016 6.44078 10.4224 6.44078 9.4339 7.2584C9.03852 7.53093 8.54428 8.07601 8.44543 8.62108L7.85235 9.34785C7.83475 9.2812 7.80095 9.21909 7.7535 9.16616L5.08463 6.80417C4.49155 5.80486 4.3927 3.17034 5.67771 2.08019Z" fill="#E61C3F"/>
<path d="M2.61316 5.44116L4.09588 6.89471L3.79933 7.16725C3.89199 7.18347 3.98777 7.17498 4.07534 7.14278C4.16292 7.11058 4.23865 7.05603 4.29357 6.98556L4.98551 7.71233C4.88666 7.98487 4.59012 8.34826 4.29357 8.4391C4.68897 8.52995 5.08436 8.25741 5.28205 7.89402L6.17169 8.71164C6.07284 9.16588 5.77629 9.62011 5.08436 9.71096C5.87514 9.89265 6.36938 9.52926 6.46823 9.07503L7.16016 9.62011C7.35786 10.256 6.17169 10.9828 5.47975 10.8011L2.61316 5.44116Z" fill="white"/>
<path d="M8.44527 44.9594C8.34642 46.3221 7.95103 48.9566 6.36948 49.5925C5.87525 49.4108 5.38101 48.8658 5.08447 48.139C5.28217 47.0489 5.7764 46.7763 6.76487 46.0496C7.35795 45.6862 7.75334 44.9594 7.95103 44.4143L8.44527 44.9594ZM19.1207 41.8707C19.6972 43.3087 20.2247 44.7629 20.7023 46.2312C20.6034 46.4129 19.9115 46.5038 19.1207 46.4129C18.5276 45.777 18.6265 45.2319 18.7253 44.4143V44.0509C18.7577 43.7151 18.7243 43.3766 18.6265 43.0516C18.4903 42.5768 18.2911 42.1192 18.0334 41.689C18.4022 41.7112 18.767 41.7722 19.1207 41.8707Z" fill="#9EA7AC"/>
<path d="M34.8376 26.6085C33.6165 29.035 32.0904 31.3217 30.2906 33.4219L28.2148 35.6931C28.4125 34.0579 27.9183 32.2409 26.7321 31.4233C27.8195 33.6036 27.5229 35.3297 26.6333 36.6924C26.0519 37.5185 25.2642 38.2051 24.3358 38.695C23.4073 39.1848 22.365 39.4638 21.2956 39.5086C20.1421 39.4644 19.0197 39.1518 18.0336 38.6001C18.0336 38.6001 13.7832 37.6917 13.4866 38.6001C13.1901 39.5086 14.6728 41.6889 14.6728 41.6889C14.6728 41.6889 15.6613 41.6889 15.7601 42.3248C16.1493 42.0003 16.628 41.7803 17.144 41.6889C17.5703 41.9453 17.8852 42.3311 18.0336 42.779C18.3301 43.5058 18.0336 44.4142 17.8359 45.0502C17.8284 45.1712 17.8284 45.2925 17.8359 45.4136C17.817 45.5341 17.817 45.6564 17.8359 45.7769C17.8589 45.9695 17.9263 46.1553 18.0336 46.322C17.6988 46.2484 17.3687 46.1574 17.0451 46.0495C16.6728 45.9549 16.3092 45.8334 15.9578 45.6861C15.4581 45.4393 15.0203 45.0989 14.6728 44.6868C13.0913 44.7776 12.597 45.141 12.1028 44.3234C11.9431 44.063 11.8107 43.7892 11.7074 43.5058C11.1143 41.7797 9.73046 39.9628 9.13737 39.3269C8.54429 38.691 9.33507 37.0558 10.6201 36.5107C11.9051 35.9656 17.5394 34.6938 18.3301 33.6945C19.1209 32.6952 18.8244 30.5149 22.7783 29.1522C21.5921 28.8797 18.3301 30.3332 17.5394 32.9677C15.9578 33.8762 12.1028 34.9663 11.0155 35.2388C9.23622 35.6931 8.24775 36.8741 7.95121 37.6008C7.06159 37.8734 5.67773 38.3276 5.67773 38.9635C5.67773 39.6903 6.17196 40.6896 6.17196 42.1431C6.17196 42.4156 6.36966 42.779 6.76504 43.1424L7.45697 43.96C7.40378 44.4476 7.15753 44.9002 6.76504 45.2319C6.49476 45.4732 6.19643 45.6864 5.87542 45.8678L4.9858 46.4129C4.81759 46.5342 4.68226 46.6896 4.59041 46.8671C4.43673 46.3625 4.3374 45.8452 4.29387 45.3227C3.40425 44.3234 3.10771 43.96 2.91001 43.5058C2.90795 43.4755 2.90795 43.4452 2.91001 43.4149C2.81116 42.8699 3.00886 41.3255 3.10771 40.3262L3.89848 40.7804H3.99733L3.89848 40.5987C3.20655 39.6903 2.41578 38.6001 2.81116 37.6008C2.91001 37.0558 3.3054 36.7832 3.89848 36.5107V36.4198L4.68926 36.0565C5.67773 35.5114 9.8293 34.3304 10.4224 33.3311C10.7171 32.7688 11.0471 32.2228 11.4109 31.6959C11.5295 32.4093 11.7282 33.1095 12.0039 33.7853C11.9051 28.698 13.882 25.5184 14.6728 24.5191C14.7592 25.5168 14.7592 26.5192 14.6728 27.517C15.7601 26.6085 15.859 22.4296 14.4751 18.9775L14.0797 18.1599L13.5855 17.3423C13.8859 16.7782 14.0221 16.1522 13.9809 15.5254C13.9456 15.2473 13.8794 14.9733 13.7832 14.7077C13.6289 14.2067 13.3592 13.742 12.9924 13.3451L13.2889 15.0711C13.3193 15.437 13.2859 15.805 13.1901 16.1613L12.9924 16.5247L13.0913 16.2521C13.1022 15.9466 13.069 15.6411 12.9924 15.3437C12.938 15.1882 12.8719 15.0365 12.7947 14.8894H12.6959C12.7514 15.0979 12.7845 15.3109 12.7947 15.5254C12.8176 15.8912 12.7843 16.2582 12.6959 16.6155C12.6384 16.7699 12.5724 16.9215 12.4982 17.0697C12.4137 17.3167 12.3147 17.5593 12.2016 17.7965C11.4109 18.6141 10.2247 18.8866 9.53276 19.9768L9.33507 19.8859C9.10933 19.8106 8.87812 19.7499 8.64314 19.7042C8.1489 19.6134 7.65467 19.5226 7.25928 19.7042C7.04816 19.768 6.84834 19.8598 6.6662 19.9768C6.50698 20.0698 6.37199 20.1938 6.27081 20.3402C6.4685 20.1585 7.25928 19.8859 7.85236 19.8859C7.99869 19.915 8.13469 19.9775 8.24775 20.0676C8.46939 20.1985 8.64192 20.3888 8.74199 20.6127C8.84083 20.8852 8.93968 21.3395 8.84083 21.9754C8.74199 22.6113 8.54429 23.1564 8.3466 23.4289C7.85236 23.8831 6.4685 24.7008 5.67773 24.8824C5.61191 24.8868 5.54585 24.8868 5.48003 24.8824C5.278 24.8852 5.0771 24.8544 4.88695 24.7916H4.68926C4.81622 24.695 4.94817 24.604 5.08465 24.5191C5.24281 24.4185 5.4079 24.3275 5.57888 24.2465L6.07312 23.974C7.35813 23.4289 7.95121 23.0655 8.1489 22.7022C8.3466 22.4296 8.24775 21.9754 7.95121 21.612C7.81855 21.4076 7.65177 21.2237 7.45697 21.0669C7.36428 20.9983 7.26503 20.9375 7.16043 20.8852C7.32252 20.8468 7.49258 20.8468 7.65467 20.8852C7.75488 20.9116 7.85382 20.9419 7.95121 20.9761L7.45697 20.7944C7.06159 20.6127 6.76504 20.6127 6.4685 20.8852C6.17196 21.2486 5.77657 22.4296 4.9858 23.1564C4.49156 23.7015 3.60194 23.974 3.00886 23.974C2.21808 23.5198 1.72385 22.793 1.625 22.2479C1.625 21.5212 1.72385 20.7035 2.51462 20.2493L4.09618 15.162C4.19502 14.6169 3.50309 13.2542 3.50309 12.6183C3.60194 12.0732 4.29387 10.9831 4.49156 10.7105L4.7881 11.2556C4.49156 12.0732 4.39272 13.1634 4.68926 13.981L4.88695 12.4366L5.28234 11.5281C5.57888 11.5281 6.17196 11.5281 6.96274 11.0739C7.31146 10.8825 7.58757 10.597 7.75352 10.2563L8.3466 9.62039C8.39101 9.77897 8.45746 9.93163 8.54429 10.0746C8.54429 9.62039 8.84083 8.98447 9.23622 8.43939C9.8293 7.53094 11.1143 7.2584 11.8062 6.89502L10.9166 7.71263C10.2247 8.2577 9.92815 8.98447 10.027 9.80208C10.3235 8.89362 10.9166 8.2577 11.7074 7.62178L12.3993 7.07671C12.3005 7.71263 12.2016 8.34855 11.8062 8.98447C11.2132 9.62039 10.2247 10.2563 11.1143 11.1648C10.9166 10.6197 11.7074 10.0746 12.1028 9.71123C12.4464 9.36787 12.7149 8.96691 12.8936 8.53024C14.4751 9.4387 15.4636 11.619 13.882 12.0732C14.574 12.3458 17.4405 12.6183 16.9463 9.62039L19.4175 10.8922L19.5163 10.9831C19.753 11.0942 19.9839 11.2155 20.2082 11.3465C20.999 11.8915 21.4932 12.3458 21.7898 12.8C21.9457 13.0845 22.046 13.392 22.0863 13.7084C22.284 14.4352 21.9875 14.9803 21.7898 15.162C22.5806 15.0711 23.4702 14.6169 23.569 12.9817V12.8V12.9817C24.1621 14.6169 24.1621 15.5254 24.1621 15.5254C24.6564 15.0711 25.2494 14.6169 25.3483 13.6176C25.3483 13.7084 25.8425 15.4345 25.7437 17.0697C26.0402 16.9789 27.0287 16.7972 27.5229 15.4345C27.7206 15.8887 28.2148 16.888 28.5114 17.9782C28.7091 18.7049 28.9068 19.4317 28.9068 20.1585C28.8079 21.3395 28.2148 21.9754 28.116 22.1571C28.2148 22.1571 29.6976 22.2479 30.5872 20.7944C31.4768 22.2479 32.7618 24.5191 34.8376 26.6085Z" fill="#E5ECEF"/>
<path d="M7.25928 15.5252C7.55582 14.9801 8.1489 14.1625 8.84083 13.6174C9.03852 13.7083 9.13737 14.0717 9.23621 14.3442C9.33506 15.1618 8.54429 14.8892 7.25928 15.5252Z" fill="#FFCE55"/>
<path d="M1.52596 23.0653C1.52596 23.0653 1.62481 21.6118 3.10752 21.3392C2.90982 20.6125 3.50291 19.3406 4.49138 19.6132C4.68907 17.8871 5.18331 15.616 5.18331 15.616C5.18331 15.616 6.27063 15.9793 6.36948 15.4343C6.46832 14.8892 6.96256 13.254 8.64296 12.7997C7.2591 12.7997 6.36948 13.9807 5.87524 14.8892C5.08446 14.8892 4.39253 14.1624 4.68907 12.9814L5.08446 11.0737L4.49138 10.4377C4.49138 10.4377 2.90982 11.8913 3.20637 12.7997C3.50291 13.7082 4.09599 14.8892 3.79945 15.5251L2.21789 19.8857C1.13057 21.0667 1.03173 21.9752 1.52596 23.0653ZM23.8654 29.6062C22.6793 29.6062 19.3185 31.7865 19.3185 33.9668L12.8934 36.238L19.9115 35.2387C19.9115 35.2387 21.8885 35.9654 23.2723 35.2387C24.6562 34.5119 24.2608 32.8767 24.2608 32.8767C22.6793 34.2394 19.9115 31.6048 23.8654 29.6062ZM17.5392 14.7983C19.8127 16.797 24.5574 21.6118 22.6793 25.8815C22.0862 22.7928 19.9115 18.4322 17.5392 14.7983Z" fill="white"/>
<path d="M2.02039 23.5195C2.02039 23.5195 2.61347 23.8829 3.1077 23.5195C3.79963 22.8836 3.20655 21.4301 3.70079 20.9758C4.19502 20.5216 5.08465 20.7033 5.18349 20.885C4.9858 20.2491 4.78811 19.5223 4.88695 19.2498C4.9858 18.9772 5.67773 17.342 6.8639 16.6152C6.36966 17.4328 5.48004 19.4315 5.87542 20.3399C6.27081 19.8857 7.95121 19.4315 8.74199 20.1582C9.53277 20.885 9.53277 22.7019 8.74199 23.7012C7.95121 24.7005 5.77658 25.5181 5.18349 25.4273C3.60194 24.7914 2.81116 24.3371 2.02039 23.5195Z" fill="#9EA7AC"/>
<path d="M5.87549 20.34C6.96281 18.7956 8.24782 19.4315 9.23629 17.3421C9.30971 17.5 9.34755 17.67 9.34755 17.8417C9.34755 18.0135 9.30971 18.1834 9.23629 18.3414C10.9167 17.6146 13.1902 14.6167 12.3994 11.8914C13.0913 12.709 13.7833 15.5252 13.3879 16.797C12.9925 18.0688 11.2132 18.9773 10.8178 19.5224C10.4225 20.0674 9.33514 20.885 9.33514 20.885C8.74206 19.8857 7.06165 20.1583 5.87549 20.34Z" fill="#9EA7AC"/>
<path d="M6.46843 16.0703C6.46843 16.0703 8.34653 16.252 9.335 15.7978C10.3235 15.3435 10.7189 13.9808 10.7189 13.4358C10.5212 14.1625 9.5327 14.6168 9.5327 14.6168C9.19275 14.906 8.78782 15.1231 8.34653 15.2527L6.76498 15.7069L6.46843 16.0703ZM5.87535 9.62025C5.87535 9.62025 6.36959 9.16602 6.17189 8.62095C6.07305 9.07517 5.67766 9.16602 5.57881 9.16602L4.78803 8.25756C4.78803 8.25756 5.47996 7.71249 5.18342 7.25826C4.98573 7.71249 4.49149 8.07587 4.49149 8.07587L3.79956 7.16741C3.79956 7.16741 4.59034 6.89488 4.49149 6.53149C4.19495 6.53149 7.06152 8.80264 7.06152 8.80264L7.55575 9.71109C7.55575 9.71109 7.55575 10.1653 6.76498 10.7104L5.87535 9.62025ZM13.5854 15.6161C14.4751 15.1618 12.3993 12.5273 12.3993 11.8914C15.6612 14.5259 18.4289 18.8865 17.1439 22.6112L16.0566 20.2492C16.0566 20.2492 17.4405 23.883 15.167 26.3359C15.3647 23.1563 13.882 18.3414 13.19 17.7055C13.882 16.7062 13.5854 15.6161 13.5854 15.6161ZM21.7897 29.2429C20.2082 29.0612 17.3416 30.1514 16.6497 32.15C16.6497 31.4232 16.5508 30.5148 17.5393 29.6063C16.1555 29.6063 14.3762 31.4232 14.3762 32.8767C12.1027 33.876 4.98573 37.0556 4.49149 37.5099C3.99725 37.9641 3.99725 38.4183 4.88688 40.5078C4.2938 42.0522 3.40417 42.8698 5.67766 44.6867C6.56728 45.4135 7.06152 45.5043 7.06152 45.5043L7.95114 43.6874C7.95114 43.6874 5.7765 39.8719 6.36959 38.9634C7.95114 37.9641 8.44538 37.8733 8.44538 37.8733C8.44538 37.8733 9.03846 36.3289 11.8062 35.6021C14.5739 34.8754 18.0336 33.4218 18.0336 33.4218C18.8243 30.0605 21.0978 29.6063 21.7897 29.2429Z" fill="#9EA7AC"/>
<path d="M27.6217 36.1471C27.6217 36.1471 28.0171 32.0591 25.9413 30.333C26.4355 31.4232 26.732 33.5126 25.9413 34.5119C25.9514 33.583 25.6009 32.6811 24.9528 31.9682C24.9528 31.9682 26.0401 35.6929 22.9759 36.5105C20.6035 37.0556 19.7139 36.0563 19.7139 36.0563C17.1439 36.8739 13.5854 37.1464 12.4981 37.419C11.8061 38.8725 11.8061 41.7796 14.2773 43.869C14.0773 43.3644 13.9122 42.8485 13.7831 42.3247C13.7831 42.3247 14.5739 43.4148 15.3646 43.2331C16.1554 43.0514 17.4404 42.0521 18.7254 43.6873C18.2312 41.9613 17.6381 41.3254 17.6381 41.3254L15.8589 41.4162L14.6727 40.8711L13.8819 38.7817L17.6381 39.1451C17.6381 39.1451 21.2955 41.0528 23.5689 39.781C25.8424 38.5091 27.6217 36.1471 27.6217 36.1471Z" fill="#9EA7AC"/>
<path d="M6.86364 21.2485C6.93441 21.2689 7.00116 21.2996 7.06133 21.3394C7.06133 21.8845 6.36941 22.5204 6.36941 22.5204C6.86364 22.2478 7.25903 21.9753 7.55556 21.5211C7.683 21.6381 7.77682 21.7823 7.82858 21.9409C7.88034 22.0995 7.88842 22.2674 7.8521 22.4295C7.65441 22.8838 5.77633 23.6105 4.88672 23.8831C6.17172 23.1563 6.27056 21.2485 6.86364 21.2485Z" fill="white"/>
<path d="M31.4766 20.976L30.6858 19.8858C30.6858 19.8858 29.6974 21.3393 29.0054 21.6119C29.5985 19.1591 28.4123 16.252 27.4239 14.7985C27.3398 15.1838 27.163 15.5469 26.9065 15.8613C26.6499 16.1757 26.3201 16.4333 25.9412 16.6154C25.9412 16.6154 25.9412 14.9801 25.5458 13.7083C25.4401 13.3531 25.2732 13.0157 25.0515 12.709C25.0133 13.1726 24.9137 13.6302 24.755 14.0717C24.692 14.325 24.5922 14.5695 24.4585 14.7985L24.2608 14.2534L23.9642 13.1632L23.2723 11.8914V13.4358C23.2041 13.8742 22.998 14.2847 22.6792 14.6168V14.5259C22.6285 14.2804 22.5625 14.0377 22.4815 13.7992C22.2838 13.1632 21.8884 12.1639 21.1965 11.6189L20.9988 11.4372L19.7138 10.7104L16.7484 9.34771C17.6045 9.84283 18.3999 10.4215 19.1207 11.0738C19.4412 11.356 19.7386 11.6597 20.0103 11.9822C20.8011 12.9815 21.0977 13.7992 21.0977 14.5259C21.1424 14.8273 21.1424 15.133 21.0977 15.4344C20.208 14.7076 19.0219 13.9808 18.2311 13.7083L20.7023 16.3428H20.6034L20.8011 16.4337L22.0861 17.8872C23.8654 20.5217 24.755 24.4281 23.6677 26.7901C24.8539 26.6084 26.04 24.7915 25.9412 23.2471C25.8423 22.0661 25.2492 20.6126 24.9527 19.795C31.4766 25.6091 31.9708 29.788 32.1685 30.1514C31.2789 29.0612 28.2147 26.3359 28.1158 26.3359C28.1158 26.4267 30.587 30.3331 31.3778 32.15C33.0582 29.9697 34.3432 27.7894 35.2328 25.6999L31.4766 20.976ZM11.0153 10.5287C11.7072 10.347 12.7945 10.0745 12.9922 9.5294C13.5853 9.80194 14.9691 10.9829 14.5738 11.8914C15.3645 10.9829 14.5738 8.98433 12.7945 8.25756L12.5968 6.53149C12.5968 6.53149 8.93947 8.89348 10.2245 10.8921C10.4222 9.98363 11.1141 9.07517 11.1141 9.07517L11.0153 10.5287Z" fill="#9EA7AC"/>
<path d="M4.78798 6.9857C4.78798 6.9857 4.68914 4.6237 5.28221 3.89693C5.28221 4.53286 5.77644 5.89555 6.9626 6.53147C6.17183 4.98709 5.97414 1.44409 5.97414 1.44409C3.99721 3.07932 3.79952 4.71455 4.78798 6.9857Z" fill="#F0ABAB"/>
<path d="M6.46831 5.8049C6.46831 5.8049 5.87523 2.08025 9.03832 1.08095C12.2014 0.0816566 12.3991 0.445037 12.3991 0.445037C12.3991 0.445037 9.43371 3.26124 8.64293 4.62392C8.64293 3.89715 8.93947 2.44363 9.92794 1.71687C8.24755 1.89856 6.666 4.16969 6.46831 5.8049Z" fill="#F0ABAB"/>
<path d="M10.1257 2.89769C11.5096 2.62516 14.1785 2.35262 16.0566 2.98854C13.8819 3.35192 12.5969 4.07869 12.1027 4.80545C14.2773 3.89699 16.9462 3.53361 18.2312 4.53291C19.5162 5.53222 20.9989 7.34913 23.2724 5.44137C23.2724 6.16813 23.4701 6.62236 23.2724 7.25828C24.4585 7.53082 24.9528 7.25828 24.9528 7.25828C24.9528 7.25828 25.0516 4.26038 23.0747 3.53361C23.0747 4.53291 21.8885 5.16883 20.9001 4.98714C19.9116 4.80545 18.2312 2.98854 18.2312 2.98854C18.2312 2.98854 18.1323 1.35332 13.8819 1.62586C11.5096 1.62586 10.1257 2.89769 10.1257 2.89769Z" fill="#F0ABAB"/>
<path d="M18.9231 5.98657C19.3185 6.89503 20.1093 8.16686 21.4931 8.34855C22.877 8.53024 24.162 7.98517 24.9528 8.34855C25.7436 8.71193 27.8194 9.43869 28.9067 8.62109C29.2032 8.98447 28.3136 10.3471 27.5228 10.2563C25.447 9.71123 26.0401 9.80207 23.8655 9.71123C26.1389 10.438 27.9182 11.4373 28.5113 12.2549C29.1044 13.0725 29.994 14.7986 32.0698 14.6169C31.8721 15.0711 31.4767 15.3436 30.4882 15.2528C30.7848 15.707 31.5756 16.3429 32.3663 16.3429C31.8721 16.6155 30.6859 16.6155 30.6859 16.6155C30.6859 16.6155 32.6629 18.4324 32.9594 19.7951C33.5525 21.2486 34.1456 21.5211 34.1456 21.5211C34.1456 21.5211 34.9364 18.8866 33.0583 17.1605C34.541 16.6155 34.7387 16.3429 34.7387 16.3429L32.8606 15.5253C32.8606 15.5253 35.1341 14.3443 34.1456 13.0725C32.4652 13.4359 31.9709 13.4359 30.8836 12.6183C29.7963 11.8007 28.8078 10.7105 28.8078 10.7105C28.8078 10.7105 31.3779 9.52954 29.6975 6.53164C28.5113 7.53094 27.7205 7.80348 25.9413 7.34925C24.162 6.89503 21.8885 7.53094 21.3943 7.34925L18.9231 5.98657Z" fill="#F0ABAB"/>
<path d="M12.7947 32.6948C12.3993 30.6962 13.0912 27.6983 14.1786 26.2448C14.1786 27.3349 14.8705 28.8793 14.8705 28.8793C14.8705 28.8793 17.5394 26.0631 17.144 23.8828C18.0336 25.8814 16.4521 29.061 14.9693 30.3329C13.4866 31.6047 12.7947 32.6948 12.7947 32.6948ZM11.4108 36.7829C10.5212 36.8737 9.23618 38.1456 9.63157 39.054C10.027 39.9625 11.4108 41.8703 11.4108 41.8703L10.5212 39.3266C10.5212 39.3266 11.4108 38.7815 11.4108 38.0547C11.4108 37.328 12.3993 36.6921 11.4108 36.7829Z" fill="white"/>
<path d="M20.6034 16.3428C22.8769 19.0682 23.7665 21.2485 23.8653 22.702C24.063 23.4288 24.063 24.5189 24.063 24.8823C24.4912 24.2928 24.6993 23.5914 24.6561 22.8837C24.2607 18.9773 20.8011 16.4336 20.6034 16.3428ZM3.79937 20.6125C3.30513 20.7942 3.40398 21.6118 3.50283 22.2478L3.60167 22.1569C3.70052 21.3393 3.89822 20.8851 4.2936 20.7942C4.2936 20.7942 4.19476 20.4308 3.79937 20.6125Z" fill="#083751"/>
<path d="M9.43376 15.7069L7.55566 16.0702C8.24759 16.3428 9.13722 16.2519 9.63145 15.9794C10.2245 15.7069 10.5211 14.9801 10.5211 14.3442C10.2245 14.8893 10.0268 15.4343 9.43376 15.7069Z" fill="#082E44"/>
<path d="M33.3564 22.7021C33.3564 22.4295 33.5541 22.0661 33.5541 21.3394C33.7738 21.7359 33.9081 22.1678 33.9494 22.6112C35.7287 20.6126 33.9494 17.6147 33.6529 17.433C34.4437 17.2513 34.8391 16.7062 35.3333 15.9795C34.6414 15.9795 34.246 15.9795 33.6529 15.7978C34.9379 15.1619 34.6414 13.5266 34.4437 12.6182C33.6529 13.0724 32.4667 12.9816 31.676 12.5273C30.6875 11.9823 30.5886 11.3463 29.4025 10.7104C29.7662 10.5926 30.0784 10.3695 30.2921 10.0745C30.5018 9.77198 30.6368 9.43087 30.6875 9.0752C30.8852 7.98505 30.5886 6.71321 29.7979 5.8956C28.414 7.71252 25.6463 6.98575 25.4486 6.98575C25.5474 5.80476 24.6578 3.07939 22.582 2.98854C22.7797 4.53292 21.4947 4.98715 20.3086 4.26038C19.9132 3.35192 19.2212 2.44347 18.3316 1.89839C17.2443 1.35332 15.8604 1.26247 14.5754 1.26247C13.587 1.26247 12.5985 1.53501 11.8077 1.80755C12.1043 1.17163 12.9939 0.535709 13.1916 0.444863C10.8192 -0.645285 6.76652 0.7174 6.27228 3.17023V0.808246C3.89995 1.7167 3.80111 4.62376 3.80111 5.71391L0.934544 3.17023L3.89995 9.43859L3.60341 10.0745L3.01033 11.3463C2.81907 11.6678 2.65388 12.0018 2.5161 12.3456C2.41725 12.7999 3.20803 14.5259 3.10918 15.1619C3.04672 15.742 2.9477 16.3183 2.81264 16.8879C2.51602 17.9064 2.15293 18.9075 1.72532 19.8858C0.73685 20.6126 0.73685 21.8844 0.73685 22.4295C0.638003 23.4288 2.21956 24.4281 2.91148 24.7915L3.20803 24.9732C3.65052 25.2181 4.11323 25.4307 4.59188 25.6091C4.87691 25.7101 5.17677 25.7713 5.48151 25.7908C6.46998 25.7908 8.8423 24.519 9.13884 24.1556C9.43539 23.7922 9.73193 21.7028 10.0285 20.976C10.6215 19.7041 11.0169 20.2492 12.895 18.3415C13.2904 18.9774 14.0812 20.6126 14.4766 22.8837C12.2031 24.8824 11.4123 27.5169 11.3135 29.788C11.0989 30.0182 10.9007 30.261 10.7204 30.5148C10.2543 31.0464 9.8563 31.6256 9.53423 32.2409C9.04 33.0585 7.95268 33.6035 6.76652 34.1486L5.6792 34.512L4.09765 35.0571C2.5161 35.7838 1.92301 36.6014 1.62647 37.5099C1.42878 38.3275 1.82417 39.4177 2.02186 39.8719C1.92301 40.6895 1.62647 43.1423 1.92301 43.6874C2.21956 44.505 2.3184 44.5959 3.40572 45.8677C3.80111 47.6846 4.78958 50.1375 6.66767 50.7734C8.44692 50.5008 9.43539 46.3219 9.53423 44.6867L9.33654 44.4142C9.33654 44.4142 7.3596 42.4156 7.26075 41.7796C7.1619 41.1437 7.26075 40.5987 6.76652 39.1451C7.14642 38.9616 7.54338 38.8096 7.95268 38.6909C8.05153 39.1451 8.24922 39.8719 8.94115 40.7803C10.1273 42.3247 10.9181 45.2318 11.61 45.686C12.3019 46.1402 13.8835 45.686 13.8835 45.686C13.8835 45.686 18.0351 49.0473 21.8901 47.2304C21.989 46.3219 21.6924 44.9592 21.297 43.7783C20.9698 42.9049 20.5734 42.0547 20.1109 41.2346C20.1109 41.2346 18.9247 40.5987 16.3547 41.1437C16.2558 40.962 15.4651 40.7803 15.1685 40.7803C14.9708 40.3261 14.5754 39.1451 14.7731 39.0543C14.9708 38.9634 16.2558 39.1451 17.1455 39.3268C18.0351 39.5085 19.1224 40.5987 21.1982 40.6895C23.3728 40.6895 26.5359 39.236 27.6232 37.5099C28.7106 35.5113 28.3152 32.6042 26.7336 31.4232C27.8209 33.6035 27.5244 35.3296 26.6348 36.6923C26.0534 37.5185 25.2657 38.205 24.3372 38.6949C23.4088 39.1847 22.3665 39.4637 21.297 39.5085C20.1436 39.4643 19.0212 39.1517 18.0351 38.6001C18.0351 38.6001 13.7847 37.6916 13.4881 38.6001C13.3893 38.9634 13.587 39.5994 13.8835 40.2353C14.115 40.734 14.379 41.2194 14.6743 41.6888C14.6743 41.6888 15.6627 41.598 15.7616 42.3247C16.025 42.1241 16.3267 41.9701 16.6512 41.8705C16.8101 41.7973 16.9754 41.7365 17.1455 41.6888C17.5541 41.9223 17.867 42.2737 18.0351 42.6881L18.1339 44.0508L17.7385 45.4135C17.7062 45.7401 17.8125 46.0656 18.0351 46.3219C16.7501 46.0494 15.3662 45.5952 14.6743 44.6867C12.6973 44.8684 12.3019 45.3226 11.7089 43.5057C11.1158 41.6888 9.73193 39.9627 9.13884 39.3268C9.04887 39.2092 8.98508 39.0765 8.95115 38.9362C8.91722 38.7958 8.91383 38.6507 8.94115 38.5092C9.0028 38.1132 9.17286 37.7381 9.43539 37.4191C9.73655 37.0253 10.1458 36.7118 10.6215 36.5106C12.0054 35.9655 17.5408 34.6028 18.3316 33.6944C19.1224 32.7859 18.8258 30.5148 22.7797 29.1521C21.5936 28.7887 18.3316 30.3331 17.5408 32.9676C15.9593 33.8761 12.1043 34.9662 11.0169 35.2388C10.1021 35.4782 9.27967 35.9506 8.64461 36.6014C8.35142 36.8943 8.11714 37.2326 7.95268 37.6007C7.06306 37.8733 5.6792 38.3275 5.6792 38.9634C5.6792 39.6902 6.17344 40.6895 6.17344 42.143C6.17344 42.5064 6.86536 43.324 7.45845 43.9599C7.3596 45.4135 5.6792 45.8677 4.98727 46.4128C4.81906 46.5341 4.68373 46.6896 4.59188 46.867C4.43757 46.3625 4.33824 45.8452 4.29534 45.3226C3.40572 44.3233 3.10918 43.9599 2.91148 43.5057C2.81264 43.2332 3.01033 41.4163 3.10918 40.3261L3.9988 40.7803C3.30687 39.781 2.41725 38.6001 2.81264 37.6007C3.01033 36.874 3.60341 36.6014 4.69073 36.0564C5.5507 35.6599 6.44304 35.3258 7.3596 35.0571C8.74346 34.512 10.1273 33.8761 10.4239 33.331L11.4123 31.6958C11.5316 32.4091 11.7304 33.1092 12.0054 33.7852C11.9066 28.6979 13.8835 25.5183 14.6743 24.519C14.7607 25.5167 14.7607 26.5192 14.6743 27.5169C15.9593 26.4267 15.8604 20.8851 13.587 17.3422C14.4766 15.6161 13.6858 13.9809 12.9939 13.3449C13.2904 14.5259 13.587 15.4344 12.9939 16.5245C13.0723 15.9728 13.0045 15.4118 12.7962 14.8893H12.6973C12.895 15.6161 12.7962 16.3429 12.4996 17.0696L12.2031 17.7964C11.4123 18.614 10.2262 18.8865 9.53423 19.9767C9.04 19.795 8.05153 19.4316 7.26075 19.7041C7.04963 19.7679 6.84981 19.8597 6.66767 19.9767C6.50845 20.0697 6.37346 20.1937 6.27228 20.3401C6.46998 20.1584 7.26075 19.8858 7.85383 19.8858C7.95268 19.9767 8.44692 19.9767 8.74346 20.6126C8.8423 20.8851 8.94115 21.3394 8.8423 21.9753C8.74346 22.6112 8.54576 23.1563 8.34807 23.4288C7.85383 23.8831 6.46998 24.7007 5.6792 24.8824C5.33754 24.9106 4.99427 24.8475 4.69073 24.7007C4.96869 24.5204 5.26695 24.3681 5.58035 24.2464C7.16191 23.5197 7.95268 23.0654 8.15037 22.7021C8.54576 22.157 7.85383 21.2485 7.1619 20.8851C7.45845 20.7943 7.75499 20.8851 8.05153 20.976C7.65614 20.6126 6.76652 20.4309 6.46998 20.7943C5.58035 21.5211 5.58035 23.1563 4.1965 23.7014C3.81522 23.8379 3.41666 23.9295 3.01033 23.9739C2.21956 23.5197 1.72532 22.7929 1.62647 22.2478C1.62647 21.6119 1.72532 20.8851 2.3184 20.4309C2.37793 20.3648 2.44412 20.3039 2.5161 20.2492L3.10918 18.614C3.60341 17.1605 4.09765 15.5252 4.09765 15.1619C4.1965 14.6168 3.50457 13.2541 3.50457 12.6182L4.29534 11.0738L4.49304 10.7104L4.59188 10.983L4.78958 11.2555C4.49304 12.0731 4.39419 13.1633 4.69073 13.9809L4.88842 12.4365L5.28381 11.528C5.58035 11.528 6.17344 11.528 6.96421 11.0738C7.31293 10.8824 7.58904 10.5969 7.75499 10.2562L8.34807 9.62028C8.39138 9.77918 8.45789 9.93198 8.54576 10.0745C8.54576 9.71112 8.74346 9.25689 8.94115 8.80267L9.23769 8.43928C9.83077 7.53083 11.1158 7.25829 11.8077 6.89491L10.9181 7.71252C10.6404 7.94846 10.4066 8.22466 10.2262 8.53013C10.0467 8.90052 9.97849 9.3083 10.0285 9.71112C10.2155 9.25065 10.4825 8.82112 10.8192 8.43928C11.085 8.13984 11.3831 7.86591 11.7089 7.62167L12.4008 7.0766C12.3583 7.41325 12.2922 7.74704 12.2031 8.0759C12.1342 8.39875 12.0001 8.70688 11.8077 8.98436L11.3135 9.43859C10.9181 9.98366 10.4239 10.5287 11.1158 11.1647C10.9181 10.6196 11.7089 10.0745 12.1043 9.62028C12.2501 9.47965 12.3824 9.32767 12.4996 9.16605C12.6533 8.96622 12.7857 8.75326 12.895 8.53013C13.0748 8.66709 13.2402 8.81916 13.3893 8.98436C14.6743 9.98366 15.2674 11.7097 13.8835 12.0731C14.5754 12.3456 17.442 12.6182 16.9478 9.62028L19.5178 10.983C22.9774 12.7999 22.0878 14.8893 21.7913 15.1619C22.582 15.071 23.5705 14.5259 23.5705 12.7999C24.1636 14.5259 24.1636 15.5252 24.1636 15.5252C24.6578 15.071 25.2509 14.6168 25.3498 13.6175C25.3498 13.7992 25.844 15.4344 25.7451 17.0696C26.0417 16.9788 27.0302 16.7971 27.5244 15.4344C27.7221 15.8886 28.2163 16.8879 28.5129 17.9781C28.7106 18.7048 28.9082 19.4316 28.9082 20.1584C28.8094 21.4302 28.2163 21.9753 28.1175 22.157C28.2163 22.157 29.699 22.2478 30.5886 20.7943C31.8392 23.0299 33.4009 25.1065 35.2345 26.9718L35.7287 25.6091C34.9379 24.9732 34.1471 24.0647 33.3564 22.7021ZM18.0351 41.6888C18.4039 41.711 18.7687 41.772 19.1224 41.8705C19.6989 43.3085 20.2264 44.7628 20.7039 46.2311C20.6051 46.4128 19.9132 46.5036 19.1224 46.4128C18.5293 45.7769 18.6282 45.2318 18.727 44.4142V44.0508C18.7594 43.7149 18.7259 43.3765 18.6282 43.0515C18.4919 42.5767 18.2927 42.119 18.0351 41.6888ZM6.76652 46.0494C7.3596 45.686 7.65614 44.9592 7.95268 44.4142L8.44692 44.9592C8.34807 46.3219 7.95268 48.9565 6.37113 49.5924C5.87689 49.4107 5.38266 48.8656 5.08612 48.1388C5.28381 47.0487 5.77805 46.7762 6.76652 46.0494ZM6.86536 21.2485C6.93613 21.2689 7.00288 21.2995 7.06306 21.3394C7.06306 21.8844 6.37113 22.5204 6.37113 22.5204C6.86536 22.2478 7.26075 21.9753 7.55729 21.5211C7.68473 21.6381 7.77855 21.7823 7.83031 21.9409C7.88207 22.0995 7.89015 22.2674 7.85383 22.4295C7.65614 22.8837 5.77805 23.6105 4.88842 23.8831C6.17344 23.1563 6.27228 21.2485 6.86536 21.2485ZM6.66767 10.5287C6.27228 10.8013 5.77805 10.8921 5.48151 10.8013H5.38266L4.88842 9.80197L2.61494 5.44138L4.09765 6.89491C4.09765 6.98575 3.9988 7.16744 3.80111 7.16744C3.89376 7.18366 3.98954 7.17517 4.07711 7.14297C4.16469 7.11078 4.24041 7.05622 4.29534 6.98575L4.98727 7.71252C4.88842 7.98505 4.59188 8.34844 4.29534 8.43928C4.69073 8.53013 5.08612 8.25759 5.28381 7.89421L6.17344 8.80267C6.07459 9.0752 5.87689 9.52943 5.38266 9.71112C5.28757 9.75092 5.18817 9.78137 5.08612 9.80197C5.58035 9.89281 5.97574 9.71112 6.17344 9.52943C6.30843 9.40061 6.40983 9.2453 6.46998 9.0752L6.76652 9.34774L7.1619 9.62028C7.26075 9.98366 6.96421 10.2562 6.66767 10.5287ZM32.8621 21.7936L30.984 19.8858C31.1817 19.1591 31.1817 18.7048 30.984 18.0689C30.7863 19.1591 29.9956 20.4309 29.5013 20.8851C29.699 20.2492 29.699 19.5225 29.5013 18.7957C29.3608 18.0473 29.1286 17.3159 28.8094 16.6154L27.5244 13.6175C27.129 14.8893 26.8325 15.5252 26.3382 16.0703C26.3605 15.6443 26.3273 15.2173 26.2394 14.7985C26.2394 14.6168 25.9428 13.2541 24.4601 11.4372C24.6578 12.2548 24.9544 13.2541 24.559 14.2534C24.559 13.5266 23.9659 11.4372 22.4832 10.6196C22.8786 11.2555 23.274 13.4358 22.7797 14.0717C22.7797 12.7999 21.8901 11.7097 20.9016 10.983C20.2097 10.4379 16.157 8.34844 16.0581 8.34844C16.0581 8.43928 16.8489 11.3463 15.2674 11.6189C15.5639 10.8921 15.0697 9.62028 14.18 8.80267C13.8835 8.43928 13.4881 8.16675 13.0927 7.98505V7.89421C13.1916 7.16744 13.1916 6.34983 12.895 5.71391C12.2031 6.44068 10.4239 6.44068 9.43539 7.25829C9.04 7.53083 8.54576 8.0759 8.34807 8.62097L8.05153 9.0752L7.85383 9.34774C7.83623 9.28109 7.80244 9.21898 7.75499 9.16605L5.08612 6.80406C4.49304 5.80476 4.39419 3.17023 5.6792 2.08009C5.58035 2.71601 5.6792 5.98645 6.96421 6.53152C6.07459 4.53292 7.06306 0.808246 11.7089 0.808246C10.8192 1.35332 10.1273 2.35262 9.92962 2.98854C9.59591 3.29217 9.29774 3.6271 9.04 3.98784C9.43539 3.80615 10.5227 2.08009 14.5754 2.08009C15.6627 2.08009 16.7501 2.17093 17.7385 2.71601C16.157 2.35262 14.3777 3.17023 12.9939 3.98784C13.9823 3.71531 15.3662 2.80685 17.3431 3.17023C18.6282 3.44277 19.2212 4.53292 20.3086 5.16884C21.1982 5.62307 22.3843 5.53222 22.9774 4.71461C23.1159 4.49409 23.1844 4.24232 23.1751 3.98784C23.4403 4.23415 23.6726 4.50862 23.867 4.80546C24.2683 5.43631 24.4413 6.1679 24.3613 6.89491C23.8978 6.87847 23.4337 6.90893 22.9774 6.98575H21.4947C20.7946 6.90332 20.121 6.68667 19.5178 6.34983C19.3118 6.24054 19.1137 6.11916 18.9247 5.98645C19.0443 6.14648 19.1765 6.29829 19.3201 6.44068C19.8162 6.96554 20.4693 7.34467 21.1982 7.53083C22.2855 7.80336 23.4717 7.34913 24.559 7.53083C25.3498 7.71252 26.2394 7.98505 27.129 8.0759C27.7221 8.16675 28.414 8.0759 29.1059 7.62167C29.3841 7.45837 29.6202 7.24137 29.7979 6.98575C30.0024 7.57681 30.0024 8.21161 29.7979 8.80267V8.89351C29.7132 9.22787 29.5439 9.53913 29.3036 9.80197H29.2048C29.0071 10.0745 28.7106 10.1654 28.414 10.2562C27.4255 9.89281 26.3382 9.80197 25.3498 9.71112C26.2394 9.98366 27.2278 10.2562 28.1175 10.7104C29.0071 11.1647 29.6002 11.7097 30.1933 12.3456C30.6875 12.8907 31.2806 13.4358 32.0713 13.6175C32.6293 13.737 33.2129 13.7055 33.7517 13.5266C33.9494 14.2534 33.1587 15.5252 32.1702 15.6161C32.6625 15.9178 33.1937 16.162 33.7517 16.3429C33.3564 16.7062 32.3679 16.8879 31.7748 16.9788C33.2575 17.6147 33.9494 19.5225 33.9494 21.0668C33.7517 20.6126 33.4552 20.0675 32.8621 19.6133C33.0598 20.3401 32.961 21.0668 32.8621 21.7936Z" fill="#083751"/>
<path d="M9.7303 14.2532C9.63145 13.8898 9.5326 13.5265 9.23606 13.3448C9.6197 13.1028 10.0599 12.9472 10.5211 12.8905C9.33491 12.618 8.64298 12.9814 7.75336 13.7081C7.25913 14.2532 6.66605 15.3434 6.46836 15.7068C6.36951 16.161 5.2822 15.7976 5.2822 15.7976C5.57874 16.0701 5.97412 16.3427 6.46836 16.3427C6.86374 16.4335 6.86374 16.2518 6.96259 15.8885C7.95106 15.5251 9.03837 15.5251 9.43376 15.1617C9.7303 14.98 9.7303 14.6166 9.7303 14.2532ZM7.25913 15.5251C7.55567 14.98 8.14875 14.1624 8.84068 13.6173C9.03837 13.7081 9.13722 14.0715 9.23606 14.3441C9.33491 15.1617 8.54414 14.8891 7.25913 15.5251ZM3.70065 19.5223C2.81103 20.1582 2.81103 21.7934 3.20642 22.3385C3.10757 21.6117 3.30526 19.9765 4.09604 19.9765C4.59027 19.9765 4.88681 20.1582 4.98566 20.2491L5.0845 20.3399C5.10593 20.2501 5.10593 20.1571 5.0845 20.0674C5.0845 19.1589 5.57874 18.3413 5.97412 17.4328C5.38127 18.0325 4.88224 18.7052 4.49142 19.4314C4.29373 19.3406 3.99719 19.3406 3.70065 19.5223Z" fill="#083751"/>
</svg>
