<svg width="48" height="47" viewBox="0 0 48 47" fill="none" xmlns="http://www.w3.org/2000/svg">
<path d="M47.1943 23.1791C47.1943 10.3776 36.7538 0 23.8748 0C10.9957 0 0.555176 10.3776 0.555176 23.1791C0.555176 35.9806 10.9957 46.3582 23.8748 46.3582C36.7538 46.3582 47.1943 35.9806 47.1943 23.1791Z" fill="url(#paint0_linear)"/>
<path d="M13.8433 18.368C13.8414 18.3934 13.8404 18.4189 13.8403 18.4444V36.6428C13.8403 36.7885 13.8692 36.9327 13.9253 37.0673C13.9814 37.2019 14.0635 37.3241 14.1672 37.4271C14.2708 37.5301 14.3938 37.6118 14.5292 37.6675C14.6646 37.7233 14.8097 37.7519 14.9562 37.7519C15.5724 37.7519 16.0721 37.2554 16.0721 36.6428V33.4177C16.0721 32.8052 16.5715 32.3085 17.1877 32.3085C17.4837 32.3085 17.7674 32.4254 17.9767 32.6334C18.186 32.8414 18.3036 33.1235 18.3036 33.4177V34.9466C18.3036 35.2408 18.4211 35.5229 18.6304 35.7309C18.8396 35.9389 19.1234 36.0557 19.4193 36.0557C19.5659 36.0557 19.711 36.0271 19.8463 35.9714C19.9817 35.9156 20.1047 35.8339 20.2084 35.7309C20.312 35.6279 20.3942 35.5057 20.4503 35.3711C20.5063 35.2365 20.5352 35.0923 20.5352 34.9466V33.4177C20.5352 32.8052 21.0346 32.3085 21.6509 32.3085H21.6511C22.2671 32.3085 22.7668 32.8052 22.7668 33.4177V33.8351C22.7668 34.1292 22.8844 34.4113 23.0936 34.6193C23.3029 34.8273 23.5866 34.9442 23.8825 34.9442C24.1785 34.9442 24.4623 34.8273 24.6715 34.6193C24.8808 34.4113 24.9984 34.1292 24.9984 33.8351V33.4177C24.9984 32.8052 25.498 32.3085 26.1141 32.3085C26.7304 32.3085 27.2301 32.8052 27.2301 33.4177V34.9466C27.2301 35.0923 27.2589 35.2365 27.315 35.3711C27.371 35.5056 27.4532 35.6279 27.5568 35.7309C27.6604 35.8339 27.7834 35.9156 27.9187 35.9713C28.0541 36.027 28.1992 36.0557 28.3457 36.0557C28.4922 36.0557 28.6373 36.0271 28.7727 35.9714C28.9081 35.9156 29.0311 35.8339 29.1347 35.7309C29.2383 35.6279 29.3205 35.5057 29.3766 35.3711C29.4327 35.2365 29.4616 35.0923 29.4616 34.9466V33.4177C29.4616 33.1235 29.5792 32.8414 29.7884 32.6334C29.9977 32.4254 30.2815 32.3085 30.5774 32.3085C31.1936 32.3085 31.6931 32.8052 31.6931 33.4177V36.6428C31.6931 37.2554 32.1928 37.7519 32.809 37.7519C33.105 37.7519 33.3888 37.6351 33.598 37.4271C33.8073 37.2191 33.9248 36.937 33.9248 36.6428V18.4444C33.9248 18.4187 33.9236 18.3932 33.9218 18.368C33.7986 12.9614 29.3512 8.61621 23.8825 8.61621C18.4138 8.61621 13.9664 12.9614 13.8433 18.368ZM25.7986 17.9285C25.7986 16.8037 26.5986 15.8919 27.5855 15.8919C28.5722 15.8919 29.3723 16.8037 29.3723 17.9285C29.3723 19.0533 28.5722 19.9649 27.5855 19.9649C26.5986 19.9649 25.7986 19.0533 25.7986 17.9285ZM18.393 17.9285C18.393 16.8037 19.1929 15.8919 20.1796 15.8919C21.1665 15.8919 21.9667 16.8037 21.9667 17.9285C21.9667 19.0533 21.1665 19.9649 20.1796 19.9649C19.1929 19.9649 18.393 19.0533 18.393 17.9285ZM25.5843 21.655C25.5843 22.3094 24.8583 22.8399 23.9626 22.8399C23.0671 22.8399 22.341 22.3094 22.341 21.655C22.341 21.0006 23.0671 21.3955 23.9626 21.3955C24.8583 21.3955 25.5843 21.0006 25.5843 21.655Z" fill="white"/>
<defs>
<linearGradient id="paint0_linear" x1="4.55955" y1="44.6959" x2="47.0036" y2="11.9975" gradientUnits="userSpaceOnUse">
<stop stop-color="#50B5AC"/>
<stop offset="1" stop-color="#B22F92"/>
</linearGradient>
</defs>
</svg>
