<svg width="55" height="44" viewBox="0 0 55 44" fill="none" xmlns="http://www.w3.org/2000/svg">
<path d="M38.0492 26.6635C47.556 28.0694 54.189 31.249 54.189 34.9466C54.189 39.9466 42.0585 44 27.0945 44C12.1305 44 0 39.9466 0 34.9466C0 31.249 6.63303 28.0694 16.1398 26.6635C19.4053 27.3274 23.1346 27.7038 27.0945 27.7038C30.9551 27.7038 34.5965 27.3462 37.8029 26.7135L38.0492 26.6635ZM33.9519 11.7771C42.5623 12.7361 48.7701 15.4507 48.7701 18.6503C48.7701 22.6503 39.0656 25.8931 27.0945 25.8931C15.1234 25.8931 5.4189 22.6503 5.4189 18.6503C5.4189 15.451 11.6267 12.7359 20.2372 11.7773C22.3461 12.1222 24.6631 12.3126 27.0945 12.3126C29.4407 12.3126 31.6806 12.1352 33.7297 11.813L33.9519 11.7771Z" fill="white"/>
<path d="M27.0943 10.8642C36.0727 10.8642 43.3511 8.43214 43.3511 5.43208C43.3511 2.43203 36.0727 0 27.0943 0C18.116 0 10.8376 2.43203 10.8376 5.43208C10.8376 8.43214 18.116 10.8642 27.0943 10.8642Z" fill="white"/>
</svg>
