<svg width="41" height="52" viewBox="0 0 41 52" fill="none" xmlns="http://www.w3.org/2000/svg">
<path fill-rule="evenodd" clip-rule="evenodd" d="M2.58023 40.5319C1.29596 39.758 0.510498 38.38 0.510498 36.9V28.6367C0.510498 28.3204 0.596498 28.0156 0.75703 27.7444C1.25583 26.8971 2.36236 26.6092 3.22235 27.1061L22.1538 37.9788C23.2604 38.6171 23.9426 39.7807 23.9426 41.0458V49.6085C23.9426 49.9982 23.8336 50.3879 23.6273 50.7212C23.0023 51.7266 21.6721 52.0429 20.6516 51.4272L2.58023 40.5319ZM30.7996 24.8411C31.9061 25.4794 32.5884 26.643 32.5884 27.9081V45.2819C32.5884 45.796 32.3074 46.2704 31.8545 46.5189L27.7093 48.8178C27.6577 48.8461 27.6004 48.8686 27.5431 48.8856V39.2384C27.5431 37.9901 26.878 36.8323 25.7887 36.1884L9.16207 26.3888V15.4991C9.16207 15.1828 9.24808 14.8778 9.4086 14.6067C9.9074 13.7595 11.0139 13.4714 11.8739 13.9684L30.7996 24.8411ZM39.0843 12.0085C40.1965 12.6411 40.8788 13.8159 40.8788 15.0811V40.4585C40.8788 40.9781 40.5864 41.4581 40.122 41.7067L36.1946 43.7965V26.129C36.1946 24.8808 35.5297 23.7285 34.4461 23.0846L17.4524 13.0421V2.7116C17.4524 2.3953 17.5384 2.0903 17.6933 1.81919C18.192 0.971961 19.2986 0.683904 20.1586 1.1753L39.0843 12.0085Z" fill="#00D395"/>
</svg>
