<svg width="148" height="38" viewBox="0 0 148 38" fill="none" xmlns="http://www.w3.org/2000/svg">
<g fill="rgb(180 187 198)" opacity="0.6">
<path d="M42.6223 8.38783V8.33519C42.6223 6.91381 43.616 5.91357 44.9467 5.91357C46.0468 5.91357 46.8985 6.45756 47.005 7.57185H46.1001C46.0025 6.94013 45.6476 6.61549 44.9556 6.61549C44.1128 6.61549 43.5627 7.26476 43.5627 8.32641V8.37906C43.5627 9.44948 44.0773 10.0724 44.9645 10.0724C45.6299 10.0724 46.1001 9.73902 46.1888 9.0722H47.0582C46.9163 10.2128 46.1001 10.7919 44.9645 10.7919C43.4651 10.7919 42.6223 9.84431 42.6223 8.38783Z" />
<path d="M47.9541 8.38784V8.3352C47.9541 6.94892 48.9566 5.92236 50.3761 5.92236C51.7956 5.92236 52.7893 6.92259 52.7893 8.30888V8.36152C52.7893 9.74781 51.8311 10.7831 50.3761 10.7831C48.9123 10.7919 47.9541 9.75658 47.9541 8.38784ZM51.8666 8.37907V8.32643C51.8666 7.35252 51.3165 6.63305 50.3761 6.63305C49.4357 6.63305 48.8856 7.31742 48.8856 8.3352V8.38784C48.8856 9.42317 49.5244 10.09 50.3939 10.09C51.2988 10.0812 51.8666 9.40562 51.8666 8.37907Z" />
<path d="M53.8806 5.99268H54.9452L56.9591 9.41452V5.99268H57.7665V10.7306H56.8438L54.6879 7.09819V10.7306H53.8806V5.99268Z" />
<path d="M58.9109 9.25648H59.7715C59.8336 9.73027 60.0287 10.1339 60.8361 10.1339C61.3684 10.1339 61.741 9.84434 61.741 9.40564C61.741 8.96694 61.5192 8.80024 60.7474 8.6774C59.6029 8.52824 59.0617 8.17728 59.0617 7.29112C59.0617 6.51901 59.7271 5.93115 60.7296 5.93115C61.7587 5.93115 62.3798 6.39617 62.4685 7.29989H61.6523C61.5636 6.79977 61.2797 6.5892 60.7296 6.5892C60.1796 6.5892 59.9045 6.84364 59.9045 7.21215C59.9045 7.5982 60.0642 7.79123 60.8982 7.90529C62.0249 8.05445 62.6104 8.37909 62.6104 9.32667C62.6104 10.1514 61.9096 10.7919 60.8449 10.7919C59.523 10.7919 58.973 10.1514 58.9109 9.25648Z" />
<path d="M63.7549 5.99268H66.7536V6.68582H64.6509V7.98436H66.3366V8.65118H64.6509V10.0375H66.8689V10.7306H63.7638L63.7549 5.99268Z" />
<path d="M68.0046 5.99268H69.0693L71.0832 9.41452V5.99268H71.8905V10.7306H70.9678L68.812 7.09819V10.7306H68.0046V5.99268Z" />
<path d="M73.0349 9.25648H73.8955C73.9576 9.73027 74.1528 10.1339 74.9601 10.1339C75.4924 10.1339 75.865 9.84434 75.865 9.40564C75.865 8.96694 75.6432 8.80024 74.8714 8.6774C73.7269 8.52824 73.1857 8.17728 73.1857 7.29112C73.1857 6.51901 73.8511 5.93115 74.8536 5.93115C75.8828 5.93115 76.5038 6.39617 76.5925 7.29989H75.7763C75.6876 6.79977 75.4037 6.5892 74.8536 6.5892C74.3036 6.5892 74.0285 6.84364 74.0285 7.21215C74.0285 7.5982 74.1882 7.79123 75.0222 7.90529C76.1489 8.05445 76.7256 8.37909 76.7256 9.32667C76.7256 10.1514 76.0247 10.7919 74.969 10.7919C73.6471 10.7919 73.097 10.1514 73.0349 9.25648Z" />
<path d="M78.8017 8.67751L77.2136 5.99268H78.1984L79.2808 7.94927L80.3276 5.99268H81.1971L79.6977 8.67751V10.7218H78.8017V8.67751Z" />
<path d="M81.6938 9.25648H82.5544C82.6165 9.73027 82.8117 10.1339 83.619 10.1339C84.1514 10.1339 84.524 9.84434 84.524 9.40564C84.524 8.96694 84.3022 8.80024 83.5303 8.6774C82.3859 8.52824 81.8447 8.17728 81.8447 7.29112C81.8447 6.51901 82.5101 5.93115 83.5126 5.93115C84.5417 5.93115 85.1628 6.39617 85.2515 7.29989H84.4353C84.3465 6.79977 84.0626 6.5892 83.5126 6.5892C82.9625 6.5892 82.6875 6.84364 82.6875 7.21215C82.6875 7.5982 82.8472 7.79123 83.6812 7.90529C84.8079 8.05445 85.3934 8.37909 85.3934 9.32667C85.3934 10.1514 84.6925 10.7919 83.6279 10.7919C82.3149 10.7919 81.7648 10.1514 81.6938 9.25648Z" />
<path d="M42.9858 14.5911C42.9858 14.4419 43.11 14.3191 43.2609 14.3191H48.9388C55.3266 14.3191 58.4761 17.7409 58.4761 23.1194V23.3212C58.4761 28.7084 55.3 32.3057 48.9122 32.3057H43.2609C43.11 32.3057 42.9858 32.1829 42.9858 32.0337V14.5911ZM48.788 29.1295C52.4521 29.1295 54.1821 27.094 54.1821 23.3738V23.172C54.1821 19.4782 52.5763 17.4865 48.7437 17.4865H47.1112V29.1295H48.788Z" />
<path d="M59.7537 15.3718C59.7537 14.24 60.6675 13.3889 61.8385 13.3889C63.0362 13.3889 63.95 14.2488 63.95 15.3718C63.95 16.4949 63.0362 17.3547 61.8385 17.3547C60.6675 17.3635 59.7537 16.5037 59.7537 15.3718ZM60.3037 19.1446H63.4177C63.5686 19.1446 63.6928 19.2675 63.6928 19.4166V32.0336C63.6928 32.1827 63.5686 32.3056 63.4177 32.3056H60.3037C60.1529 32.3056 60.0287 32.1827 60.0287 32.0336V19.4166C60.0287 19.2675 60.1529 19.1446 60.3037 19.1446Z" />
<path d="M66.5585 13.1873H69.6725C69.8233 13.1873 69.9475 13.3101 69.9475 13.4592V32.0337C69.9475 32.1829 69.8233 32.3057 69.6725 32.3057H66.5585C66.4077 32.3057 66.2834 32.1829 66.2834 32.0337V13.4592C66.2834 13.3101 66.4077 13.1873 66.5585 13.1873Z" />
<path d="M72.2363 15.3718C72.2363 14.24 73.1501 13.3889 74.3212 13.3889C75.5189 13.3889 76.4327 14.2488 76.4327 15.3718C76.4327 16.4949 75.5189 17.3547 74.3212 17.3547C73.1501 17.3635 72.2363 16.5037 72.2363 15.3718ZM72.7864 19.1446H75.9004C76.0512 19.1446 76.1754 19.2675 76.1754 19.4166V32.0336C76.1754 32.1827 76.0512 32.3056 75.9004 32.3056H72.7864C72.6356 32.3056 72.5114 32.1827 72.5114 32.0336V19.4166C72.5202 19.2675 72.6356 19.1446 72.7864 19.1446Z" />
<path d="M78.3581 32.5777H81.4809C81.6051 32.5777 81.7116 32.6566 81.7471 32.7795C82.031 33.8236 82.8827 34.4904 84.6482 34.4904C86.8839 34.4904 88.0017 33.3322 88.0017 31.2704V29.2874C87.1146 30.7878 85.491 31.7178 83.7255 31.7266C80.4962 31.7266 77.9233 29.3401 77.9233 25.4357V25.2602C77.9233 21.4874 80.4696 18.8464 83.7699 18.8464C85.9346 18.8464 87.2299 19.7765 87.9929 21.1101V19.4167C87.9929 19.2676 88.1171 19.1447 88.2679 19.1447H91.3819C91.5327 19.1447 91.6569 19.2676 91.6569 19.4167V31.2704C91.6303 35.166 89.0131 37.1577 84.6393 37.1577C80.5139 37.1577 78.5444 35.438 78.0742 32.9023C78.0475 32.7532 78.1451 32.6128 78.296 32.5865C78.3226 32.5777 78.3403 32.5777 78.3581 32.5777ZM88.1082 25.383V25.2076C88.1082 22.9702 86.9105 21.6102 84.9055 21.6102C82.8472 21.6102 81.7027 23.0667 81.7027 25.2339V25.4357C81.7027 27.6204 82.998 28.9804 84.8345 28.9804C86.7597 28.9804 88.1082 27.6204 88.1082 25.383Z" />
<path d="M92.97 25.8919V25.6901C92.97 21.54 95.942 18.8464 99.8102 18.8464C103.244 18.8464 106.295 20.8293 106.295 25.541V26.278C106.295 26.4271 106.171 26.55 106.02 26.55H96.705C96.8115 28.7347 98.0003 29.9981 100.014 29.9981C101.611 29.9981 102.454 29.3576 102.738 28.3574C102.773 28.2433 102.88 28.1644 102.995 28.1644H105.941C106.091 28.1644 106.216 28.2872 106.216 28.4364C106.216 28.4539 106.216 28.4715 106.207 28.489C105.657 31.1212 103.403 32.5864 99.9078 32.5864C95.8888 32.5777 92.97 30.0859 92.97 25.8919ZM102.702 24.3038C102.578 22.3209 101.558 21.3646 99.8013 21.3646C98.1511 21.3646 97.0333 22.4438 96.7494 24.3038H102.702Z" />
<path d="M107.91 19.1447H111.051C111.201 19.1447 111.326 19.2676 111.326 19.4167V21.233C111.982 19.9256 113.437 18.8464 115.646 18.8464C118.263 18.8464 120.127 20.4082 120.127 23.9266V32.0337C120.127 32.1829 120.002 32.3057 119.852 32.3057H116.711C116.56 32.3057 116.436 32.1829 116.436 32.0337V24.4618C116.436 22.6719 115.726 21.8208 114.094 21.8208C112.515 21.8208 111.326 22.7772 111.326 24.7162V32.0425C111.326 32.1916 111.201 32.3145 111.051 32.3145H107.91C107.759 32.3145 107.635 32.1916 107.635 32.0425V19.4167C107.635 19.2676 107.759 19.1447 107.91 19.1447Z" />
<path d="M121.298 25.8919V25.6901C121.298 21.4435 124.376 18.8464 128.164 18.8464C131.154 18.8464 133.931 20.1099 134.392 23.6458C134.41 23.7949 134.304 23.9353 134.153 23.9529C134.144 23.9529 134.126 23.9529 134.117 23.9529H131.163C131.039 23.9529 130.924 23.8651 130.897 23.7423C130.595 22.356 129.673 21.7155 128.244 21.7155C126.337 21.7155 125.068 23.1281 125.068 25.6375V25.8393C125.068 28.4802 126.266 29.8402 128.324 29.8402C129.735 29.8402 130.888 29.0593 131.145 27.5239C131.163 27.3923 131.278 27.3045 131.412 27.3045H134.206C134.357 27.3045 134.481 27.4274 134.481 27.5765C134.481 27.5853 134.481 27.5941 134.481 27.6028C134.153 30.5597 131.891 32.5864 128.147 32.5864C124.252 32.5777 121.298 30.1912 121.298 25.8919Z" />
<path d="M135.413 25.8919V25.6901C135.413 21.54 138.385 18.8464 142.253 18.8464C145.686 18.8464 148.738 20.8293 148.738 25.541V26.278C148.738 26.4271 148.614 26.55 148.463 26.55H139.148C139.254 28.7347 140.443 29.9981 142.457 29.9981C144.054 29.9981 144.897 29.3576 145.181 28.3574C145.216 28.2433 145.323 28.1556 145.447 28.1644H148.392C148.543 28.1644 148.667 28.2872 148.667 28.4364C148.667 28.4539 148.667 28.4715 148.658 28.489C148.108 31.1212 145.855 32.5864 142.359 32.5864C138.341 32.5777 135.413 30.0859 135.413 25.8919ZM145.154 24.3038C145.03 22.3209 144.01 21.3646 142.253 21.3646C140.603 21.3646 139.485 22.4438 139.201 24.3038H145.154Z" />
<path d="M19.9458 0C9.34396 0 0.738281 8.51074 0.738281 18.9956C0.738281 29.4805 9.34396 38 19.9458 38C30.5477 38 39.1622 29.4893 39.1622 18.9956C39.1622 8.50196 30.5565 0 19.9458 0ZM14.951 29.4015C14.951 29.498 14.8711 29.577 14.7735 29.577H11.0296C10.932 29.577 10.8522 29.498 10.8522 29.4015V15.0386C10.8522 14.942 10.932 14.8631 11.0296 14.8631H14.7735C14.8711 14.8631 14.951 14.942 14.951 15.0386V29.4015ZM12.8927 12.8626C11.5885 12.8626 10.5594 11.9063 10.5594 10.6428C10.5594 9.37936 11.5885 8.423 12.8927 8.423C14.2323 8.423 15.2526 9.37936 15.2526 10.6428C15.2526 11.9063 14.2323 12.8626 12.8927 12.8626ZM22.0484 29.3927C22.0484 29.4893 21.9686 29.5682 21.871 29.5682H18.1271C18.0295 29.5682 17.9496 29.4893 17.9496 29.3927V8.59848C17.9496 8.50196 18.0295 8.423 18.1271 8.423H21.871C21.9686 8.423 22.0484 8.50196 22.0484 8.59848V29.3927ZM29.137 29.4015C29.137 29.498 29.0572 29.577 28.9596 29.577H25.2246C25.127 29.577 25.0471 29.498 25.0471 29.4015V15.0386C25.0471 14.942 25.127 14.8631 25.2246 14.8631H28.9685C29.0661 14.8631 29.1459 14.942 29.1459 15.0386V29.4015H29.137ZM29.3411 12.6959C29.3411 12.7924 29.2612 12.8714 29.1636 12.8714H25.0294C24.9318 12.8714 24.8519 12.7924 24.8519 12.6959V8.59848C24.8519 8.50196 24.9318 8.423 25.0294 8.423H29.1636C29.2612 8.423 29.3411 8.50196 29.3411 8.59848V12.6959Z" />
</g>
</svg>
