<svg width="48" height="56" viewBox="0 0 48 56" fill="none" xmlns="http://www.w3.org/2000/svg">
<path fill-rule="evenodd" clip-rule="evenodd" d="M40.5912 14.2025C45.6072 19.2186 47.9146 24.8365 47.9146 32.0596C47.9146 46.1045 37.7153 55.869 23.1019 55.869H8.78952L0.462891 47.5424V0.057312H15.0428C22.8679 0.057312 29.4556 2.86629 33.9366 7.58136L40.5912 14.2025ZM8.3548 7.54792H8.25446V9.21993L15.3772 16.2758V14.5704L8.3548 7.54792ZM16.5811 14.3363L9.79272 7.54792H8.82297L15.6113 14.3363H16.5811ZM18.9554 14.3363L12.167 7.54792H10.2609L17.0493 14.3363H18.9554ZM15.1432 7.54792H12.6351L19.4235 14.3363H21.9315L15.1432 7.54792ZM24.3727 14.3697L17.718 7.71512C17.0158 7.6148 16.347 7.58136 15.6113 7.54792L22.3997 14.3363H23.1019C23.5367 14.3363 23.9714 14.3363 24.3727 14.3697ZM26.5128 14.6038L20.0254 8.11641C19.4569 7.98264 18.855 7.88232 18.2531 7.782L24.8743 14.4032C25.4428 14.4366 26.0112 14.5369 26.5128 14.6038ZM28.4524 15.072L22.1322 8.75177C21.664 8.58457 21.1624 8.41737 20.6608 8.28361L27.1147 14.7376C27.5829 14.8379 28.0176 14.9382 28.4524 15.072ZM29.188 15.3061C29.6228 15.5067 30.0909 15.7073 30.4922 15.908L24.3392 9.75498C23.9045 9.5209 23.4363 9.28681 22.9682 9.08617L29.188 15.3061ZM8.25446 22.4288L9.45831 23.6327L9.1908 23.9002L8.25446 22.9639V40.4865H15.3772V16.744L8.25446 9.75498V11.3935L15.0094 18.115L14.7419 18.3491L8.25446 11.8951V13.5672L13.8724 19.2186L13.6383 19.4861L8.25446 14.0688V15.7742L12.7689 20.3221L12.5348 20.5896L8.25446 16.2758V17.9813L11.6654 21.4256L11.4313 21.6931L8.25446 18.4829V20.2218L10.5619 22.5291L10.2943 22.7967L8.25446 20.7234V22.4288ZM29.9572 14.9048C28.8202 13.1324 27.3154 11.6276 25.5096 10.4572L29.9572 14.9048ZM39.9224 14.8713L37.2137 12.0958C39.0195 15.4733 40.1899 19.6533 40.1899 24.0005C40.1899 24.4687 40.1899 24.9368 40.1564 25.3716L46.9782 32.2268V32.0596C46.9782 25.0706 44.7043 19.787 39.9224 14.8713ZM16.3136 40.4531C26.0447 39.9181 32.3314 33.531 32.3314 24.0005C32.3314 21.5259 31.8967 19.252 31.0941 17.2456C29.0543 15.8411 26.7135 15.2726 23.1019 15.2726H16.3136V40.4531ZM38.752 32.5946L45.8413 39.684C46.5101 37.5104 46.9114 35.1695 46.9782 32.695L40.123 25.8397C39.9558 28.2474 39.4876 30.4879 38.752 32.5946ZM45.7075 40.0184L38.6182 32.9291C37.9828 34.6011 37.1802 36.1727 36.2105 37.5772L43.4336 44.8003C44.3699 43.329 45.139 41.7238 45.7075 40.0184ZM40.4908 48.4119C41.5275 47.4087 42.4304 46.2717 43.2329 45.0678L36.0433 37.8782C35.2073 39.0486 34.271 40.1521 33.2009 41.1219L40.4908 48.4119ZM30.024 43.6299L37.3475 50.9533C38.3841 50.2511 39.3539 49.482 40.2567 48.646L32.9668 41.356C32.0639 42.192 31.0941 42.9611 30.024 43.6299ZM26.8138 45.4022L34.1372 52.7257C35.1404 52.2575 36.1102 51.7224 37.0465 51.154L29.7231 43.8306C28.8202 44.4325 27.8504 44.9341 26.8138 45.4022ZM23.6704 46.5727L30.9604 53.8626C31.9302 53.5951 32.8999 53.2273 33.8028 52.8594L26.4794 45.536C25.5765 45.9373 24.6402 46.3051 23.6704 46.5727ZM20.6273 47.3083L27.8839 54.5649C28.8202 54.3977 29.7231 54.197 30.5925 53.9629L23.336 46.7064C22.4666 46.9405 21.5637 47.1411 20.6273 47.3083ZM20.1926 47.3752C19.3901 47.5424 18.5541 47.6427 17.718 47.7096L24.9077 54.8658C25.7771 54.8324 26.6132 54.7321 27.4492 54.6317L20.1926 47.3752ZM22.1322 54.9327H23.1019C23.5701 54.9327 24.0048 54.9327 24.4395 54.8993L17.2833 47.7431C16.5476 47.7765 15.812 47.8099 15.0428 47.8099H15.0094L22.1322 54.9327ZM2.06802 47.8099L9.1908 54.9327H9.65897L2.56964 47.8099H2.06802ZM3.03781 47.8099L10.1606 54.9327H10.7625L3.63971 47.8099H3.03781ZM4.10788 47.8099L11.2307 54.9327H11.9998L4.87701 47.8099H4.10788ZM5.34518 47.8099L12.4679 54.9327H13.4377L6.31494 47.8099H5.34518ZM6.78311 47.8099L13.9059 54.9327H15.0763L7.95352 47.8099H6.78311ZM8.42166 47.8099L15.5444 54.9327H16.9489L9.82617 47.8099H8.42166ZM10.3278 47.8099L17.4505 54.9327H19.156L12.0332 47.8099H10.3278ZM12.5014 47.8099L19.6241 54.9327H21.664L14.5078 47.8099H12.5014Z" fill="#3760DF"/>
</svg>
