<svg width="410" height="58" xmlns="http://www.w3.org/2000/svg"><path d="M41 15c5 5 7 11 7 18 0 14-10 24-25 24H9l-9-8V1h15c8 0 14 3 19 8l7 6zM8 9v1l7 7v-1L8 9zm9 6l-7-6H9l7 6h1zm2 0l-7-6h-2l7 6h2zm-4-6h-2l6 6h3l-7-6zm9 6l-6-6h-2l6 6h2zm3 1l-7-7h-2l7 6 2 1zm1 0l-6-6-1-1 6 7h1zm1 0l1 1-6-6-1-1 6 6zM8 23l1 2-1-1v17h7V18l-7-7v1l7 7-7-6v2l6 5-6-5v2l5 4v1l-5-5v2l4 3-1 1-3-4v2l3 3h-1l-2-2v1zm22-7l-4-5 4 5zm10 0l-3-3c2 3 3 8 3 12v1l7 7c0-7-2-12-7-17zM16 41c10 0 16-6 16-16l-1-7-8-2h-7v25zm23-7l7 7 1-7-7-7-1 7zm7 7l-7-7-3 5 7 7 3-5zm-6 8l3-3-7-7-3 3 7 7zm-10-4l7 7 3-2-7-8-3 3zm-3 1l7 8 3-2-7-7-3 1zm-3 2l7 7 3-1-8-7-2 1zm-3 0l7 8 3-1-8-7h-2zm-1 0l-2 1 7 7h2l-7-8zm2 8h2l-7-7h-2l7 7zM2 49l7 7h1l-7-7H2zm1 0l7 7h1l-7-7H3zm1 0l7 7h1l-7-7H4zm1 0l7 7h1l-7-7H5zm2 0l7 7h1l-7-7H7zm1 0l8 7h1l-7-7H8zm2 0l7 7h2l-7-7h-2zm3 0l7 7h2l-7-7h-2zm72-7l8 8v7H61l-8-8V1h31l8 8v7H68v5h12l8 8v7H68v6h17zm6-32l-7-7v5l7 7v-5zm-23 5l-7-7 7 7zm1 0l-7-7 7 7zm2 0l-7-7h-1l7 7h1zm2 0l-7-7h-1l7 7h1zm3 0l-7-7h-2l7 7h2zm2 0l-7-7h-2l7 7h2zm3 0l-7-7h-2l7 7h2zm3 0l-7-7h-2l7 7h2zm2 0l-7-7h-2l7 7h2zm2 0l-7-7h-1l7 7h1zm2 0l-7-7h-1l7 7h1zm1 0l-7-7h-1l7 7h1zm-31 3l2 2-2-1v2h7v-6l-7-6v1l6 6-6-6v2l5 5-5-5v2l4 4-4-4v2l3 3-3-3v2zm20 4v6l7 7v-6l-7-7zM68 35l-7-7 7 7zm-6-7l7 7h1l-7-7h-1zm1 0l7 7h2l-7-7h-2zm3 0l7 7h2l-7-7h-2zm12 7l-7-7h-2l7 7h2zm4 0l-7-7h-3l7 7h3zm2 0l-7-7h-2l7 7h2zm2 0l-7-7h-2l8 7h1zm-7-7l7 7h1l-7-7h-1zM60 40l1 1-1-1v2h7v-7l-7-7v2l6 6-6-6v2l5 5-5-5v2l4 4-4-4v2l3 3-3-3v2l2 2-2-2v2zm25 3v6l7 7v-6l-7-7zm-28 6h-3l7 7h4l-8-7zm4 0h-3l7 7h3l-7-7zm0 0l7 7h3l-7-7h-3zm3 0l7 7h3l-7-7h-3zm5 0h-2l7 7h2l-7-7zm10 7l-8-7h-1l7 7h2zm-7-7l7 7h2l-7-7h-2zm2 0l7 7h2l-8-7h-1zm2 0l7 7h1l-7-7h-1zm2 0l7 7h1l-7-7h-1zm1 0l7 7h1l-7-7h-1zm2 0l7 7h1l-8-7zm1 0l7 7h1l-7-7h-1zm1 0l7 7h1l-7-7h-1zm1 0l7 7h1l-8-7zm54-33h-25v6h12l9 9v7h-21v19h-7l-9-8V1h32l9 8v7zm-8-13v6l7 6v-5l-7-7zm-18 12h1l-7-6h-1l7 6zm2 0l-7-6h-1l7 6h1zm2 0l-7-6h-1l7 6h1zm2 0l-7-6h-2l7 6h2zm3 0l-7-6h-3l8 6h2zm3 0l-7-6h-3l8 6h2zm3 0l-7-6h-3l7 6h3zm3 0l-7-6h-3l8 6h2zm2 0l-7-6h-2l8 6h1zm2 0l-7-6h-1l7 6h1zm1 0l-7-6h-1l7 6h1zm-6-6l7 6-7-6zm-24 13h7v-6l-7-7v1l6 6-6-6v2l5 5-5-5v2l4 4-4-4v2l3 3-3-3v2l2 2-2-1v1l1 1h-1v1zm20 2v6l8 7v-6l-8-7zm-20 6l7 7h1l-7-7h-1zm1 0l7 7h2l-8-7h-1zm2 0l7 7h2l-7-7h-2zm2 0l8 7h2l-7-7h-3zm4 0l7 7h3l-7-7h-3zm3 0l7 7h3l-7-7h-3zm3 0l7 7h2l-7-7h-2zm3 0l7 7h1l-7-7h-1zm1 0l7 7h1l-7-7h-1zm-19 19l7 7V37l-7-7v1l6 6v1l-6-6v1l5 5v1l-5-5v1l4 4v1l-4-4v1l3 3v1l-3-3v1l2 2v1l-2-2v1l1 2-1-1v7zm-6 0l7 7h1l-7-7h-1zm3 0h-1l7 7h1l-7-7zm0 0l8 7-7-7h-1zm2 0l7 7h1l-7-7h-1zm45-48l8 8v48h-7l-9-8V1h8zm0 2l7 7-7-7zm0 2l7 7v-1l-7-7v1zm0 2l7 7v-2l-7-7v2zm0 2l7 8v-3l-7-7v2zm0 4l7 7v-3l-7-7v3zm0 5l7 8v-5l-7-7v4zm0 31l7 7V26l-7-7v30zm-5 0h-1l7 7h2l-8-7zm9 7l-7-7h-1l7 7h1zm-6-7l7 7h1l-7-7h-1zm1 0l7 7h1l-7-7h-1zm74-37c3 4 4 7 4 12 0 9-7 16-17 16h-8v17h-8l-8-8V1h17c6 0 10 2 13 5l7 6zm-29 8v5h6V15l-6-7v2l6 6h-1l-5-6v2l5 5h-1l-4-5v2l4 4h-1l-3-4v2l2 3-2-3v2l1 2-1-1v1zm7-5l-6-7h-1l7 7zm2 0l-7-7h-1l7 7h1zm2 0l-7-7h-1l6 7h2zm2 0l-7-7h-1l6 7h2zm-4-7h-2l6 7h2l-6-7zm8 7l-6-7h-2l7 7h1zm1-1l-5-5h-1l6 6v-1zm0-1l-4-4 4 4zm10 0l-3-3 1 6v1l6 6c0-4-1-7-4-10zm-19 12c5 0 9-3 9-8v-1h-11v9h2zm22 4l1-5-6-6-1 5 6 6zm-6-6l-3 4 7 6 2-3-6-7zm2 13l2-3-7-6-2 2 7 7zm-10-5l7 6 2-1-7-7-2 2zm-3 1l7 6 3-1-8-6-2 1zm-3 0l8 7 2-1-7-6h-3zm5 7h2l-7-7h-2l7 7zm-10-7l8 7h1l-7-7h-2zm1 24V39l-7-7v2l6 6-6-5v1l5 5h-1l-4-4v2l4 3h-1l-3-3v2l2 2v1l-2-3v2l1 1v1l-1-1v5l7 7zm-7-24l7 7h1l-7-7h-1zm1 0l8 7-7-7h-1zm2 0l7 7h1l-7-7h-1zm1 0l8 7h1l-7-7h-2zm-10 17l7 7h1l-7-7h-1zm3 0h-2l8 7h1l-7-7zm0 0l7 7h1l-7-7h-1zm2 0l7 7-7-7zm79-48l8 8v26c0 14-8 23-20 23-7 0-11-2-16-6l-6-7c-4-4-6-9-6-17V1h7l9 8v33h4c8 0 12-5 12-14V1h8zm-25 9l-7-7 7 7zm25-7l7 7V9l-7-6zm-25 9v-1l-7-7v1l7 7zm25-7l7 6v-1l-7-6v1zm-25 9v-2l-7-7v2l7 7zm25-7l7 6v-1l-7-7v2zm-25 9v-2l-7-7v2l7 7zm25-7l7 7v-2l-7-7v2zm-25 11v-3l-7-7v3l7 7zm25-7l7 7v-3l-7-7v3zm-25 12v-4l-7-7v4l7 7zm32-5l-7-6v4l7 7v-5zm-39-1v9c0 7 2 12 7 14V26l-7-7zm38 25l1-9v-9l-7-7v9l-1 9 7 7zm-7-7l-2 5 6 6 2-4-6-7zm2 15l2-3-7-7-2 3 7 7zm-10-5l7 7 3-2-7-7-3 2zm-3 1l7 7 3-1-7-7-3 1zm-19-1l4 4 2 2-5-5-1-1zm3 2l-1-1 6 6 1 1-6-6zm14 0l7 7 2-1-7-6h-2zm-13 0l6 6 1 1-6-7h-1zm2 0l6 7h2l-7-6-1-1zm8 1l7 7 2-1-7-7-2 1zm-7 0l7 6 2 1-7-7h-2zm5 0l7 7h2l-7-7h-2zm-2 0l6 7h2l-7-7h-1zm66-9l8 9v7h-30l-9-8V1h8l8 8v32h15zm-16-31l-7-7 7 7zm0 2v-1l-7-7v1l7 7zm0 2v-2l-7-7v2l7 7zm0 2v-2l-7-7v2l7 7zm0 4v-3l-7-7v3l7 7zm0 5v-4l-7-7v4l7 7zm-7 16h7V26l-7-7v22zm30 15v-6l-7-7v6l7 7zm-36-7l7 7h3l-7-7h-3zm3 0l8 7h2l-7-7h-3zm4 0l7 7h2l-7-7h-2zm3 0l7 7h2l-7-7h-2zm2 0l8 7h1l-7-7h-2zm3 0l7 7h2l-7-7h-2zm2 0l7 7h2l-7-7h-2zm2 0l7 7h2l-8-7h-1zm2 0l7 7h1l-7-7h-1zm2 0l7 7h1l-7-7h-1zm1 0l7 7h1l-7-7h-1zm2 0l7 7-7-7zm1 0l7 7h1l-8-7zm1 0l7 7h1l-7-7h-1zm45-15c3 3 4 5 4 9 0 9-7 15-17 15-7 0-12-2-15-5l-8-8v-8h1c3 3 8 5 13 5s8-2 10-4c-6-2-12-4-15-8l-5-7c-3-3-4-5-4-9 0-8 7-14 16-14 5 0 10 2 14 4l8 8v8h-1c-4-3-8-4-12-4-5 0-8 2-9 4 5 2 10 4 13 7l7 7zm-6-28v6l7 7v-6l-7-7zm-12 2h-1-1l7 7h2l-7-7zm9 7l-7-7h-2l7 7h2zm-5 0l-7-7h-2l7 8 2-1zm8 0l-7-6-2-1 7 7h2zm-10 1l-8-8-2 2 7 7 3-1zm12 0l-7-6-1-1 6 7h2zm-17 4l2-3-7-7-2 3 7 7zm19-3l-6-6-2-1 6 6 2 1zm-5-5l6 5 1 1-6-6h-1zm-21 2c0 3 2 4 6 6l-6-6zm2 16l5 3-8-7-1-1 4 5zm1-3l-3-1 8 8 2 1-7-8zm1 0l7 8 2 1-8-8-1-1zm2 1l8 8 1 1-8-8-1-1zm10 9l-7-7-1-1 8 8zm-6-7l6 6-5-6h-1zm6 5l-4-4 4 4zm11 0l-4-4 1 4v3l7 6v-1c0-3-1-6-4-8zm-11-1l-2-2 2 2zm15 11l-7-7-2 4 7 7 2-4zm-4 8l2-3-7-7-2 2 7 8zm-10-6l7 8 3-2-8-7-2 1zm-22 0l6 5 1 2-6-6-1-1zm19 1l7 8 3-1-7-8-3 1zm-17 0l6 6 1 1-6-7h-1zm2 0l6 7h1l-6-6-1-1zm12 1l8 7h2l-7-7h-3zm-11 0l7 7h2l-7-7h-2zm2 0l7 7h2l-7-7h-2zm16 7l-7-7h-2l7 8 2-1zm-14-7l7 7 2 1-7-8h-2zm10 8h2l-8-8h-2l8 8zm55-15l9 8v7h-33l-8-8V1h31l9 8v7h-24v5h11l9 8v7h-20v6h16zm7-32l-7-7v5l7 7v-5zm-23 5l-7-7h-1l7 7h1zm1 0l-7-7h-1l7 7h1zm2 0l-8-7h-1l7 7h2zm2 0l-7-7h-2l7 7h2zm2 0l-7-7h-2l7 7h2zm3 0l-7-7h-2l7 7h2zm3 0l-7-7h-3l7 7h3zm2 0l-7-7h-2l7 7h2zm3 0l-7-7h-2l7 7h2zm2 0l-7-7h-2l7 7h2zm1 0l-7-7h-1l7 7h1zm1 0l-7-7 7 7zm-30 3l1 2-1-1v2h7v-6l-7-6v1l6 6-6-6v2l5 5-5-5v2l4 4h-1l-3-4v2l3 3h-1l-2-3v2zm20 4v6l7 7v-6l-7-7zm-13 13h1l-7-7h-1l7 7zm-6-7l7 7h1l-7-7h-1zm2 0l7 7h2l-7-7h-2zm2 0l7 7h3l-7-7h-3zm13 7l-7-7h-3l7 7h3zm3 0l-7-7h-3l7 7h3zm2 0l-7-7h-1l7 7h1zm2 0l-7-7h-1l7 7h1zm-6-7l7 7-7-7zm-19 12l1 1h-1v-1 2h7v-7l-7-7v2l6 6-6-6v2l5 5-5-5v2l4 4-4-4v2l3 3-3-3v2l2 2h-1l-1-2v2zm24 3v6l8 7v-6l-8-7zm-27 6h-3l7 7h3l-7-7zm3 0h-3l7 7h3l-7-7zm1 0l7 7h3l-8-7h-2zm3 0l7 7h2l-7-7h-2zm5 0h-2l7 7h2l-7-7zm9 7l-7-7h-2l7 7h2zm-7-7l8 7h1l-7-7h-2zm3 0l7 7h1l-7-7h-1zm1 0l8 7h1l-7-7h-2zm2 0l7 7h1l-7-7h-1zm2 0l7 7h1l-7-7h-1zm1 0l7 7h1l-7-7h-1zm1 0l7 7h1l-7-7h-1zm1 0l8 7-7-7h-1zm2 0l7 7-7-7z" fill="#222" fill-rule="evenodd"/></svg>