<svg width="39" height="42" viewBox="0 0 39 42"  xmlns="http://www.w3.org/2000/svg">
    <path fill-rule="evenodd" clip-rule="evenodd" d="M19 0A19 19 0 006 6c-4 3-6 8-6 12a1368 1368 0 002 23l2 1h15a385 385 0 0017-1c2 0 3-2 3-3a239 239 0 00-1-24A20 20 0 0019 0zm-1 12v10a326 326 0 00-7 4V5h1c2-2 4-2 6-2v9zm3-9l6 1 1 1v23l-1 1a2849 2849 0 01-6 4V3zM9 28l-3 2-3 2v-6-8c0-5 2-9 6-12v22zM30 6a17 17 0 014 5l-4 4a299 299 0 010-9zm5 8a16 16 0 011 5v4h-1l-5 4V17l2-2a161 161 0 013-1zM18 29v6a502 502 0 00-6 4H4l-1-1v-4l7-5a4435 4435 0 008-5v5zm18 2v6l-2 2a201 201 0 01-19 0l1-1a2290 2290 0 0120-13v6z" class="animate-fill-to-dark" fill="#fff"/>
</svg>
