<svg width="33" height="32" viewBox="0 0 33 32" fill="none" xmlns="http://www.w3.org/2000/svg">
<path d="M13.9611 13.8667C13.2899 13.8667 12.6187 14.5334 12.6187 15.3334C12.6187 16.1334 13.2899 16.8 13.9611 16.8C14.7665 16.8 15.4377 16.1334 15.4377 15.3334C15.4377 14.5334 14.7665 13.8667 13.9611 13.8667ZM18.928 13.8667C18.1225 13.8667 17.5855 14.5334 17.5855 15.3334C17.5855 16.1334 18.1225 16.8 18.928 16.8C19.7334 16.8 20.2704 16.1334 20.2704 15.3334C20.2704 14.5334 19.7334 13.8667 18.928 13.8667Z" fill="#0061E3"/>
<path d="M25.5056 2.66663H7.51741C5.90653 2.66663 4.69836 3.86663 4.69836 5.46663V23.4666C4.69836 24.9333 5.90653 26.1333 7.51741 26.1333H22.6866L22.0154 23.7333L23.6263 25.3333L25.3714 26.8L28.1904 29.3333V5.46663C28.1904 3.86663 26.9823 2.66663 25.5056 2.66663ZM20.2702 20.1333L19.3306 18.9333C21.0757 18.5333 21.7469 17.4666 21.7469 17.4666L20.2702 18.1333C19.599 18.5333 18.9278 18.6666 18.2566 18.8C16.4397 19.1055 14.5724 18.8737 12.887 18.1333C12.4843 18.1333 12.2158 17.8666 11.8131 17.7333L11.6789 17.6L11.2761 17.3333C11.2761 17.4666 11.9473 18.5333 13.6925 18.9333L12.7528 20.1333C9.7995 20 8.72557 18 8.72557 18C8.72557 13.7333 10.6049 10.2666 10.6049 10.2666C12.4843 8.79996 14.3637 8.93329 14.3637 8.93329L14.4979 9.06663C12.0816 9.73329 11.0077 10.8 11.0077 10.8L11.8131 10.4C13.1555 9.73329 14.3637 9.59996 14.7664 9.59996H15.0349C17.3871 9.28291 19.7803 9.70238 21.8811 10.8C21.8811 10.8 20.8072 9.73329 18.5251 9.06663L18.6594 8.93329C18.6594 8.93329 20.5387 8.79996 22.4181 10.2666C22.4181 10.2666 24.2975 13.7333 24.2975 18C24.4317 18 23.2235 20 20.2702 20.1333Z" fill="#0061E3"/>
</svg>
