<svg width="28" height="28" viewBox="0 0 28 28" fill="none" xmlns="http://www.w3.org/2000/svg">
<g clip-path="url(#clip0)">
<path d="M13.5999 0.280051C10.4045 0.274318 7.31164 1.40724 4.87602 3.47562C2.4404 5.54399 0.821402 8.41248 0.309415 11.5666C-0.202571 14.7207 0.425956 17.954 2.08226 20.6866C3.73856 23.4192 6.31427 25.4722 9.34739 26.4776C10.0299 26.5826 10.2661 26.1888 10.2661 25.8213V23.3276C6.87989 23.9576 6.01364 22.5138 5.72489 21.7526C5.59364 21.3588 4.93739 20.1776 4.35989 19.8626C3.88739 19.6001 3.20489 18.9701 4.33364 18.9701C5.40989 18.9438 6.14489 19.9413 6.40739 20.3351C7.61489 22.3826 9.55739 21.8051 10.3186 21.4376C10.4499 20.5713 10.7911 19.9938 11.1849 19.6526C8.19239 19.3113 5.06864 18.1563 5.06864 13.0113C5.06864 11.5413 5.59364 10.3338 6.43364 9.41505C6.30239 9.0738 5.82989 7.68255 6.56489 5.84505C6.56489 5.84505 7.69364 5.47755 10.2661 7.21005C12.4639 6.59506 14.7883 6.59506 16.9861 7.21005C19.5586 5.47755 20.6874 5.84505 20.6874 5.84505C21.4224 7.68255 20.9499 9.0738 20.8186 9.41505C21.6849 10.3338 22.2099 11.5413 22.2099 13.0113C22.2099 18.1826 19.0599 19.3113 16.0674 19.6526C16.5661 20.0726 16.9861 20.8863 16.9861 22.1463L16.9599 25.8213C16.9599 26.1888 17.2224 26.6088 17.8786 26.4776C20.882 25.4427 23.4228 23.3795 25.052 20.6525C26.6813 17.9255 27.294 14.7103 26.782 11.5752C26.2699 8.44015 24.6661 5.58701 22.2539 3.52009C19.8417 1.45317 16.7764 0.305542 13.5999 0.280051Z" fill="#0061E3"/>
</g>
<defs>
<clipPath id="clip0">
<rect width="26.88" height="26.88" fill="white" transform="translate(0.159912 0.280029)"/>
</clipPath>
</defs>
</svg>
