<svg width="373" height="373" viewBox="0 0 373 373" fill="none" xmlns="http://www.w3.org/2000/svg">
<circle opacity="0.75" cx="186.875" cy="187.875" r="46.125" stroke="#B184FB"/>
<circle opacity="0.5" cx="186.875" cy="187.875" r="92.75" stroke="#D458FF"/>
<circle opacity="0.2" cx="186.875" cy="187.875" r="139.375" stroke="#FB84D6"/>
<circle opacity="0.25" cx="186.875" cy="187.875" r="139.375" stroke="#FB84D6"/>
<circle opacity="0.2" cx="186.5" cy="186.5" r="186" stroke="#FB84D6"/>
<path d="M164.555 172.82C164.555 171.061 164.447 169.359 164.284 167.599H172.146L172.417 171.172C173.298 169.963 175.439 166.995 180.991 166.995C187.367 166.995 189.181 170.896 189.728 172.216C192.035 167.765 195.771 167.044 198.631 167.044C204.234 167.044 206.492 170.397 207.091 171.495C208.577 173.913 208.466 177.266 208.466 179.684V194.887H200.279V179.031C200.279 176.049 199.837 172.766 195.608 172.766C190.715 172.766 190.607 177.326 190.607 181.441V194.884H182.417V178.866C182.417 176.721 182.363 172.766 177.855 172.766C172.745 172.766 172.745 177.161 172.745 179.031V194.892H164.555V172.82ZM164.282 200.994H208.468V207.755H164.282V200.994Z" fill="#F4F4F4"/>
</svg>
