<svg viewBox="0 0 1436 1800" fill="none" xmlns="http://www.w3.org/2000/svg">
<g transform="translate(0, 320)">
<g opacity="0.25">
<path d="M596.42 277.217C661.909 219.725 768.088 219.725 833.577 277.217C899.066 334.71 899.066 427.924 833.577 485.416C768.088 542.908 661.909 542.908 596.42 485.416C530.931 427.924 530.931 334.71 596.42 277.217Z" stroke="white" stroke-width="0.5"/>
<path d="M752.7 312.207L792.535 347.179L772.117 365.104L730.539 328.603C726.561 325.111 721.936 321.555 716.787 320.187C714.184 319.496 711.44 319.361 708.591 320.072C705.75 320.782 702.872 322.316 699.961 324.871C696.587 327.834 694.759 330.822 694.165 333.823C693.573 336.822 694.231 339.741 695.643 342.54C698.441 348.086 704.302 353.343 709.757 358.132L744.901 388
.984L724.475 406.916L682.463 370.034C679.625 367.543 675.378 363.86 670.251 362.192C667.661 361.349 664.819 361.01 661.814 361.604C658.811 362.197 655.726 363.705 652.616 366.436C649.106 369.517 647.172 372.541 646.381 375.445C645.589 378.351 645.961 381.069 646.939 383.507C648.864 388.311 653.173 392.093 655.654 394.271L655.696 394.308L697.288 430.822L676.862 448.753L618.707 397.7C614.245 393.782 609.663 390.217 604.834 386.672L624.37 369.522L633.918 376.722L635.979 378.276L635.558 375.92L635.55 375.875C635.114 373.437 634.387 369.374 635.533 364.34C636.684 359.287 639.736 353.202 647.003 346.822C655.347 339.497 663.187 337.087 669.489 336.685C675.816 336.282 680.699 337.895 683.138 338.781L685.123 339.502L684.473 337.704C681.68 329.975 682.258 323.61 684.429 318.372C686.608 313.115 690.416 308.939 694.175 305.639C708.765 292.83 723.295 295.357 727.62 296.473L727.644 296.48L727.669 296.485C732.671 297.534 737.3 300.02 741.514 302.989C745.192 305.581 748.498 308.499 751.435 311.093C751.865 311.472 752.286 311.844 752.7 312.207Z" stroke="white" stroke-width="0.5"/>
<path d="M693.813 464.928L810.238 362.718L826.854 377.306L710.429 479.515L693.813 464.928Z" stroke="white" stroke-width="0.5"/>
<path d="M1430 277.217C1495.49 334.71 1495.49 427.923 1430 485.416C1364.51 542.908 1258.34 542.908 1192.85 485.416C1127.36 427.923 1127.36 334.71 1192.85 277.217C1258.34 219.725 1364.51 219.725 1430 277.217Z" stroke="white" stroke-width="0.5"/>
<path d="M1347.88 315.14L1348.52 315.402L1349.02 314.966L1362.46 303.16L1374.12 313.389L1363.65 322.578L1362.86 323.268L1363.73 323.881C1365.98 325.483 1368.17 327.21 1370.28 329.065L1370.61 329.346C1372.98 331.434 1375.18 333.609 1377.2 335.858L1377.89 336.635L1378.69 335.936L1389.24 326.671L1400.9 336.9L1387.18 348.943L1386.69 349.373L1386.98 349.926C1400.1 375.301 1394.15 406.082 1367.09 429.837L1322.36 469.107L1287.04 438.097L1286.33 437.476L1285.62 438.097L1270.54 451.339L1258.89 441.11L1273.97 427.869L1274.68 427.248L1273.97 426.627L1260.26 414.587L1259.55 413.966L1258.84 414.587L1243.76 427.829L1232.11 417.599L1247.19 404.358L1247.9 403.737L1247.19 403.116L1211.42 371.718L1256.16 332.447C1283.53 308.417 1318.89 303.178 1347.88 315.14ZM1298.33 426.944L1297.62 427.565L1298.33 428.186L1322.64 449.527L1323.34 450.148L1324.05 449.527L1356.79 420.789C1377.23 402.84 1382.64 380.769 1374.91 361.49L1374.38 360.175L1373.26 361.161L1298.33 426.944ZM1365.5 347.516L1366.21 346.895L1365.55 346.316C1363.64 344.102 1361.52 341.966 1359.19 339.927L1358.87 339.646C1356.59 337.637 1354.19 335.801 1351.7 334.139L1351.01 333.674L1350.39 334.217L1271.55 403.434L1270.84 404.054L1271.55 404.675L1285.26 416.715L1285.97 417.336L1286.68 416.715L1365.5 347.516ZM1334.92 327.337L1336.04 326.36L1334.56 325.891C1312.44 318.888 1286.99 323.442 1266.45 341.478L1233.71 370.217L1233 370.837L1233.71 371.458L1258.48 393.204L1259.19 393.825L1259.9 393.204L1334.92 327.337Z" stroke="white" stroke-width="0.5"/>
<path d="M535.319 747.177C470.127 804.409 363.443 804.409 298.251 747.177C233.059 689.945 233.059 596.288 298.251 539.056C363.443 481.825 470.127 481.825 535.319 539.056C600.511 596.288 600.511 689.945 535.319 747.177Z" stroke="white" stroke-width="0.5"/>
<path d="M547.724 652.51L427.484 758.068C421.601 763.233 411.968 763.233 406.085 758.068L285.845 652.51C279.962 647.345 279.962 638.888 285.845 633.723L406.085 528.166C411.968 523.001 421.601 523.001 427.484 528.166L547.724 633.723C553.607 638.888 553.607 647.345 547.724 652.51Z" stroke="white" stroke-width="0.5"/>
<path d="M474.123 661.329L474.118 661.325L473.367 661.985C473.236 662.1 473.164 662.136 473.139 662.145C473.131 662.146 473.109 662.145 473.065 662.138C472.999 662.128 472.909 662.107 472.771 662.068C469.67 660.991 466.324 661.642 463.428 664.184C462.16 665.297 461.151 666.568 460.689 667.815C460.223 669.074 460.279 670.463 461.457 671.498C462.038 672.008 462.73 672.337 463.538 672.441C464.325 672.543 465.138 672.421 465.96 672.161C467.574 671.652 469.483 670.524 471.778 668.941L471.782 668.939C475.218 666.548 478.145 665.098 480.723 664.711C483.198 664.339 485.458 664.93 487.705 666.903C490.223 669.113 491.024 671.73 490.509 674.441C489.987 677.192 488.093 680.096 485.09 682.732C482.51 684.997 479.54 686.502 476.541 686.969C473.622 687.423 470.612 686.906 467.783 685.049L471.916 681.421C472.073 681.283 472.157 681.268 472.168 681.266C472.174 681.265 472.217 681.255 472.332 681.299C475.229 682.618 479.046 681.956 482.084 679.289C483.394 678.139 484.45 676.791 484.896 675.431C485.353 674.037 485.175 672.557 483.868 671.41C483.159 670.787 482.352 670.391 481.421 670.28C480.51 670.172 479.598 670.352 478.694 670.685C476.935 671.334 474.862 672.706 472.337 674.427C469.403 676.409 466.802 677.755 464.432 678.148C462.169 678.524 460.023 678.047 457.845 676.135C455.67 674.225 454.743 671.786 455.087 669.157C455.433 666.508 457.083 663.605 460.197 660.871C465.748 655.998 472.385 655.361 477.415 658.439L474.123 661.329ZM473.129 662.148C473.129 662.148 473.132 662.147 473.138 662.146C473.132 662.148 473.129 662.149 473.129 662.148ZM506.955 656.634L506.96 656.638L507.711 655.978C512.293 651.956 512.19 645.672 507.291 641.372C502.39 637.069 495.228 636.987 490.615 641.037L486.331 644.798C485.49 645.536 485.622 646.694 486.369 647.349L500.516 659.769C501.308 660.464 502.592 660.464 503.384 659.769L506.955 656.634ZM429.625 730.889L410.422 714.031C409.684 713.383 408.36 713.257 407.516 713.997L400.758 719.931L397.141 716.756L417.978 698.463L421.594 701.638L414.874 707.538C414.085 708.231 414.074 709.42 414.874 710.123L434.076 726.98L429.625 730.889ZM453.622 690.49L440.341 678.83L444.793 674.922L457.888 686.418C461.638 689.71 463.45 693.16 463.567 696.44C463.685 699.712 462.123 702.962 458.799 705.879C455.496 708.779 451.815 710.133 448.104 710.019C444.381 709.904 440.459 708.306 436.708 705.012L423.613 693.516L428.064 689.608L441.346 701.268C443.381 703.055 445.724 704.193 448.104 704.436C450.519 704.682 452.867 703.992 454.796 702.298C456.726 700.604 457.512 698.543 457.231 696.423C456.955 694.334 455.658 692.277 453.622 690.49ZM501.086 668.153L476.795 646.828L487.041 637.832C494.34 631.425 504.892 630.913 512.13 637.267C519.248 643.516 518.712 652.679 511.333 659.157L501.086 668.153Z" stroke="white" stroke-width="0.5"/>
<path d="M362.391 717.677C363.44 718.599 365.158 718.599 366.208 717.677L501.716 598.715C502.766 597.794 502.766 596.286 501.716 595.364" stroke="white" stroke-width="0.5"/>
<mask id="path-11-inside-1" fill="rgba(255,255,255,0.5)">
<path fill-rule="evenodd" clip-rule="evenodd" d="M386.863 601.995L406.555 584.708C407.342 584.017 407.342 582.886 406.555 582.195L394.149 571.304C393.362 570.613 392.073 570.613 391.286 571.304L334.983 620.732C334.196 621.423 334.196 622.554 334.983 623.245L347.389 634.136C348.176 634.827 349.465 634.827 350.252 634.136L371.595 615.399L410.244 649.329C411.031 650.02 412.319 650.02 413.107 649.329L425.512 638.438C426.3 637.747 426.3 636.616 425.512 635.925L386.863 601.995Z"/>
</mask>
<path d="M386.863 601.995L385.36 600.676L383.857 601.995L385.36 603.315L386.863 601.995ZM334.983 623.245L333.48 624.565L334.983 623.245ZM347.389 634.136L348.892 632.817L347.389 634.136ZM371.595 615.399L373.098 614.08L371.595 612.76L370.092 614.08L371.595 615.399ZM405.052 583.389L385.36 600.676L388.366 603.315L408.058 586.028L405.052 583.389ZM405.052 583.514C405.027 583.493 405.02 583.466 405.02 583.452C405.02 583.437 405.027 583.41 405.052 583.389L408.058 586.028C409.675 584.608 409.675 582.295 408.058 580.875L405.052 583.514ZM392.646 572.623L405.052 583.514L408.058 580.875L395.652 569.985L392.646 572.623ZM392.789 572.623C392.765 572.645 392.734 572.652 392.717 572.652C392.701 572.652 392.67 572.645 392.646 572.623L395.652 569.985C394.035 568.565 391.4 568.565 389.783 569.985L392.789 572.623ZM336.486 622.051L392.789 572.623L389.783 569.985L333.48 619.412L336.486 622.051ZM336.486 621.926C336.511 621.947 336.518 621.974 336.518 621.989C336.518 622.003 336.511 622.03 336.486 622.051L333.48 619.412C331.863 620.832 331.863 623.145 333.48 624.565L336.486 621.926ZM348.892 632.817L336.486 621.926L333.48 624.565L345.886 635.456L348.892 632.817ZM348.749 632.817C348.773 632.795 348.804 632.788 348.82 632.788C348.837 632.788 348.868 632.795 348.892 632.817L345.886 635.456C347.503 636.875 350.137 636.875 351.755 635.456L348.749 632.817ZM370.092 614.08L348.749 632.817L351.755 635.456L373.098 616.719L370.092 614.08ZM411.747 648.009L373.098 614.08L370.092 616.719L408.741 650.648L411.747 648.009ZM411.604 648.009C411.628 647.988 411.658 647.981 411.675 647.981C411.692 647.981 411.722 647.988 411.747 648.009L408.741 650.648C410.358 652.068 412.992 652.068 414.61 650.648L411.604 648.009ZM424.009 637.119L411.604 648.009L414.61 650.648L427.015 639.757L424.009 637.119ZM424.009 637.244C423.985 637.223 423.977 637.196 423.977 637.181C423.977 637.167 423.985 637.14 424.009 637.119L427.015 639.757C428.633 638.338 428.633 636.025 427.015 634.605L424.009 637.244ZM385.36 603.315L424.009 637.244L427.015 634.605L388.366 600.676L385.36 603.315Z" fill="rgba(255,255,255,0.5)" mask="url(#path-11-inside-1)" />
<path d="M768.282 888.429L768.285 888.425L768.838 887.689C787.03 875.87 804.257 867.487 818.439 863.406C825.552 861.359 831.847 860.409 837.087 860.621C842.319 860.832 846.432 862.197 849.309 864.722C853.195 868.134 854.672 873.545 853.746 880.647C852.821 887.738 849.516 896.352 844.09 905.936C833.244 925.096 814.038 947.942 789.023 969.903C764.008 991.863 737.984 1008.72 716.159 1018.25C705.241 1023.01 695.429 1025.91 687.353 1026.72C679.263 1027.54 673.099 1026.24 669.213 1022.83C666.336 1020.3 664.782 1016.69 664.541 1012.1C664.299 1007.5 665.382 1001.97 667.713 995.728C672.362 983.276 681.912 968.153 695.374 952.183C708.572 944.516 722.337 934.649 735.601 923.004C748.584 911.607 759.627 899.789 768.282 888.429ZM704.388 856.354L704.39 856.351L704.928 855.695C720.879 844.526 736.247 836.436 748.922 832.306C755.277 830.235 760.902 829.177 765.555 829.197C770.202 829.217 773.788 830.308 776.224 832.447C779.268 835.119 780.451 839.379 779.713 845.034C778.977 850.676 776.344 857.546 772.009 865.203C763.345 880.509 747.996 898.769 727.996 916.327C707.996 933.885 687.195 947.361 669.76 954.967C661.038 958.772 653.213 961.084 646.786 961.73C640.345 962.377 635.492 961.339 632.448 958.667C630.012 956.528 628.769 953.38 628.747 949.301C628.724 945.216 629.929 940.278 632.288 934.699C636.992 923.571 646.207 910.08 658.93 896.078C667.172 890.878 675.58 884.617 683.727 877.465C691.628 870.529 698.572 863.378 704.388 856.354Z" stroke="white" stroke-width="0.5"/>
<path d="M714.247 808.672C716.365 810.531 717.181 813.585 716.538 817.779C715.897 821.955 713.831 827.081 710.476 832.83C703.773 844.319 692.043 858.104 676.859 871.435C661.674 884.765 645.971 895.063 632.885 900.947C626.336 903.892 620.497 905.706 615.74 906.269C610.963 906.833 607.485 906.117 605.366 904.257C603.248 902.397 602.432 899.344 603.075 895.15C603.716 890.974 605.783 885.848 609.137 880.099C615.84 868.61 627.57 854.825 642.754 841.494C657.939 828.164 673.642 817.866 686.728 811.982C693.277 809.037 699.116 807.223 703.873 806.66C708.65 806.096 712.128 806.812 714.247 808.672Z" stroke="white" stroke-width="0.5"/>
<circle r="157.73" transform="matrix(0.751498 -0.659736 0.751498 0.659736 714.998 904.917)" stroke="white" stroke-width="0.5"/>
<path d="M1134.23 17.6379C1199.92 75.3063 1199.92 168.09 1134.23 225.759C1068.54 283.427 962.853 283.427 897.163 225.759C831.474 168.09 831.474 75.3063 897.163 17.6379C962.853 -40.0304 1068.54 -40.0304 1134.23 17.6379Z" stroke="white" stroke-width="0.5"/>
<path d="M905.306 72.3863L905.426 72.1845L905.426 71.957C905.426 71.8129 905.521 71.5728 905.788 71.2443C906.01 70.9716 906.279 70.7247 906.512 70.5182C907.526 70.0076 908.482 69.8653 909.355 69.9864C910.27 70.1132 911.192 70.5428 912.062 71.3066L919.02 77.4149C920.162 78.4175 920.783 79.3622 921.037 80.2988C921.288 81.2214 921.206 82.225 920.77 83.393C907.747 108.055 907.249 136.683 920.796 161.796C944.882 208.482 1008.56 229.197 1061.75 207.241C1062.83 207.068 1064.13 207.073 1065.33 207.264C1066.61 207.468 1067.6 207.855 1068.13 208.315L1075.09 214.424C1076.14 215.35 1076.27 215.52 1076.26 215.945L1076.26 216.204L1076.42 216.426C1077.01 217.292 1077.08 218.197 1076.77 218.95C1076.45 219.699 1075.72 220.379 1074.51 220.734L1074.43 220.756L1074.36 220.789C1037.88 237.231 995.501 237.232 959.027 220.79C897.418 192.663 873.274 126.466 905.306 72.3863ZM959.373 24.8435L959.447 24.8217L959.517 24.7907C995.501 8.77962 1038.38 8.34791 1075.35 25.2228C1136.96 53.3485 1161.1 119.547 1129.07 173.627L1128.95 173.829L1128.95 174.057C1128.95 174.201 1128.86 174.441 1128.59 174.769C1128.37 175.042 1128.1 175.289 1127.87 175.495C1126.85 176.006 1125.9 176.148 1125.02 176.027C1124.11 175.901 1123.18 175.471 1122.31 174.707L1115.36 168.599C1114.21 167.596 1113.59 166.652 1113.34 165.715C1113.09 164.792 1113.17 163.789 1113.61 162.621C1126.63 137.958 1127.13 109.331 1113.58 84.2178C1089.49 37.5313 1025.82 16.8169 972.623 38.7732C971.55 38.9445 970.258 38.9379 969.017 38.7009C967.724 38.4542 966.563 37.9735 965.753 37.2621L958.795 31.1538C957.739 30.2272 957.615 30.0577 957.615 29.6311L957.615 29.3725L957.463 29.1508C956.871 28.2854 956.798 27.3798 957.114 26.6269C957.428 25.8783 958.162 25.1982 959.373 24.8435Z" stroke="white" stroke-width="0.5"/>
<path d="M0.0381016 277.255C65.4952 219.791 171.649 219.791 237.106 277.255C302.563 334.72 302.563 427.912 237.106 485.376C171.649 542.84 65.5282 542.869 0.0381016 485.376C-65.452 427.883 -65.4191 334.72 0.0381016 277.255Z" stroke="white" stroke-width="0.5"/>
<mask id="path-20-inside-2" fill="rgba(255,255,255,0.5)">
<path d="M122.067 354.895L104.307 339.304L144.897 303.67L117.859 279.933L7.35446 376.945L34.3925 400.681L74.9827 365.047L92.743 380.639C61.298 410.921 43.0076 438.439 50.8274 445.304C58.6472 452.169 89.9928 436.112 124.486 408.506L181.312 458.394L210.67 432.621L153.844 382.734C185.256 352.481 203.48 325.021 195.66 318.156C187.807 311.32 156.528 327.319 122.067 354.895ZM149.039 378.516C148.244 379.272 144.268 383.228 134.791 391.547C127.203 398.209 121.703 402.689 119.715 404.259L119.748 404.288C89.3301 428.723 62.4909 443.384 56.4272 438.061C50.3635 432.737 67.0303 409.204 94.8968 382.472L114.645 399.809C116.699 398.238 122.465 393.758 130.02 387.126C139.066 379.185 143.241 374.88 144.003 374.036L124.188 356.641C154.573 332.235 181.346 317.633 187.409 322.956C193.407 328.337 176.773 351.841 149.039 378.516Z"/>
</mask>
    <g transform="translate(950, 70)">4
            <path d="M109.684 39.9737C92.5397 24.9729 77.6609 30.1163 57.2106 48.5471C42.3927 61.5277 35.9027 61.0382 29.044 55.0371C22.1854 49.0359 22.0644 40.2807 30.6362 30.4842C38.3511 21.667 45.5766 19.3398 55.0669 23.32C55.9978 23.6885 57.0193 23.7628 57.9937 23.5327C58.9681 23.3027 59.8486 22.7794 60.5163 22.0334L67.3733 14.1967C67.7811 13.7531 68.0944 13.2314 68.2945 12.6631C68.4945 12.0948 68.5771 11.4918 68.5371 10.8906C68.4971 10.2895 68.3355 9.70271 68.0619 9.16591C67.7884 8.62911 67.4087 8.15346 66.9458 7.76781L66.4556 7.33886C60.3175 3.64226 53.1303 2.07653 46.0107 2.88495C38.8912 3.69337 32.2381 6.83067 27.0851 11.8094L15.3288 1.52283C13.369 -0.191933 10.6137 -0.00822176 7.98078 2.01164L1.5517 9.3593C-0.163071 11.3191 0.0206376 14.0744 2.04169 16.7084L13.3077 26.566C2.40932 42.9761 4.06301 60.8541 16.3095 71.5696C32.4744 85.7136 47.4133 81.4883 67.8648 63.0585C82.3149 51.4851 89.1114 49.6482 96.9493 56.5062C104.787 63.3643 104.174 74.9372 96.0311 84.2434C84.8867 96.9802 75.6402 96.6734 67.0067 91.7139C66.0692 91.1523 64.9669 90.9308 63.8852 91.0868C62.8035 91.2428 61.8087 91.7667 61.0681 92.5704L53.7811 100.899C53.3735 101.342 53.0603 101.864 52.8605 102.432C52.6606 103.001 52.5783 103.604 52.6185 104.205C52.6586 104.806 52.8205 105.393 53.0942 105.93C53.368 106.466 53.7479 106.942 54.2109 107.327L54.7011 107.756C68.6602 116.512 84.3354 116.389 100.929 102.368L112.686 112.654C114.644 114.368 117.4 114.184 120.032 112.165L126.462 104.817C128.176 102.857 127.993 100.102 125.973 97.4688L114.216 87.1823C124.625 70.3433 122.91 51.5461 109.684 39.9737Z"  stroke="white" stroke-width="0.5"/>
    </g>
<path d="M104.307 339.304L102.804 337.984L101.301 339.304L102.804 340.623L104.307 339.304ZM144.897 303.67L146.4 304.989L147.903 303.67L146.4 302.35L144.897 303.67ZM117.859 279.933L119.362 278.614L117.859 277.294L116.356 278.614L117.859 279.933ZM7.35446 376.945L5.85147 375.625L4.34847 376.945L5.85147 378.264L7.35446 376.945ZM34.3925 400.681L32.8895 402.001L34.3925 403.32L35.8955 402.001L34.3925 400.681ZM74.9827 365.047L76.4857 363.728L74.9827 362.409L73.4797 363.728L74.9827 365.047ZM92.743 380.639L94.3138 381.896L95.6811 380.58L94.246 379.32L92.743 380.639ZM124.486 408.506L125.989 407.187L124.554 405.927L123.054 407.127L124.486 408.506ZM181.312 458.394L179.809 459.713L181.312 461.033L182.815 459.713L181.312 458.394ZM210.67 432.621L212.173 433.94L213.676 432.621L212.173 431.302L210.67 432.621ZM153.844 382.734L152.273 381.476L150.906 382.793L152.341 384.053L153.844 382.734ZM195.66 318.156L197.163 316.837L197.156 316.831L195.66 318.156ZM119.715 404.259L118.293 402.872L116.628 404.188L118.212 405.579L119.715 404.259ZM119.748 404.288L121.183 405.665L122.822 404.348L121.251 402.969L119.748 404.288ZM94.8968 382.472L96.3998 381.152L94.8287 379.773L93.3287 381.212L94.8968 382.472ZM114.645 399.809L113.142 401.128L114.545 402.36L116.041 401.216L114.645 399.809ZM144.003 374.036L145.668 375.195L146.845 373.892L145.506 372.716L144.003 374.036ZM124.188 356.641L122.753 355.264L121.114 356.581L122.685 357.96L124.188 356.641ZM187.409 322.956L188.929 321.651L188.92 321.644L188.912 321.636L187.409 322.956ZM123.57 353.576L105.81 337.984L102.804 340.623L120.564 356.215L123.57 353.576ZM105.81 340.623L146.4 304.989L143.394 302.35L102.804 337.984L105.81 340.623ZM146.4 302.35L119.362 278.614L116.356 281.253L143.394 304.989L146.4 302.35ZM116.356 278.614L5.85147 375.625L8.85746 378.264L119.362 281.253L116.356 278.614ZM5.85147 378.264L32.8895 402.001L35.8955 399.362L8.85746 375.625L5.85147 378.264ZM35.8955 402.001L76.4857 366.367L73.4797 363.728L32.8895 399.362L35.8955 402.001ZM73.4797 366.367L91.24 381.959L94.246 379.32L76.4857 363.728L73.4797 366.367ZM91.1722 379.382C75.3874 394.583 62.8457 409.144 55.2169 420.824C51.4109 426.652 48.7643 431.858 47.5897 436.124C46.4511 440.259 46.5272 444.168 49.3244 446.623L52.3304 443.984C51.2176 443.007 50.6476 440.902 51.7218 437.001C52.76 433.23 55.1851 428.376 58.9048 422.681C66.3276 411.316 78.6536 396.977 94.3138 381.896L91.1722 379.382ZM49.3244 446.623C52.1215 449.079 56.5739 449.146 61.2843 448.146C66.1437 447.115 72.0734 444.792 78.7115 441.45C92.0167 434.753 108.603 423.743 125.918 409.885L123.054 407.127C105.876 420.875 89.5428 431.696 76.5969 438.213C70.1095 441.478 64.5807 443.607 60.2855 444.519C55.8415 445.462 53.4432 444.961 52.3304 443.984L49.3244 446.623ZM122.983 409.826L179.809 459.713L182.815 457.074L125.989 407.187L122.983 409.826ZM182.815 459.713L212.173 433.94L209.167 431.302L179.809 457.074L182.815 459.713ZM212.173 431.302L155.347 381.414L152.341 384.053L209.167 433.94L212.173 431.302ZM155.415 383.991C171.183 368.804 183.7 354.265 191.308 342.602C195.104 336.783 197.741 331.585 198.909 327.325C200.041 323.194 199.958 319.291 197.163 316.837L194.157 319.476C195.271 320.454 195.843 322.558 194.776 326.452C193.744 330.216 191.328 335.061 187.619 340.747C180.217 352.094 167.916 366.41 152.273 381.476L155.415 383.991ZM197.156 316.831C194.352 314.39 189.905 314.323 185.195 315.321C180.338 316.35 174.415 318.668 167.785 322.002C154.496 328.685 137.934 339.673 120.635 353.516L123.499 356.275C140.661 342.541 156.969 331.742 169.898 325.24C176.377 321.982 181.899 319.859 186.193 318.949C190.633 318.008 193.041 318.504 194.163 319.481L197.156 316.831ZM147.477 377.25C146.677 378.011 142.73 381.939 133.288 390.228L136.294 392.867C145.806 384.517 149.811 380.533 150.601 379.781L147.477 377.25ZM133.288 390.228C125.723 396.869 120.25 401.326 118.293 402.872L121.137 405.646C123.156 404.051 128.683 399.549 136.294 392.867L133.288 390.228ZM118.212 405.579L118.245 405.608L121.251 402.969L121.218 402.94L118.212 405.579ZM118.313 402.912C103.162 415.082 88.9588 424.772 77.8453 430.742C72.2735 433.735 67.5808 435.737 63.9935 436.678C62.1982 437.148 60.791 437.323 59.7484 437.276C58.7224 437.231 58.2062 436.983 57.9302 436.741L54.9242 439.38C56.1641 440.469 57.8131 440.927 59.5342 441.004C61.2389 441.079 63.161 440.791 65.2098 440.254C69.3109 439.179 74.366 436.986 80.0642 433.925C91.4907 427.787 105.916 417.929 121.183 405.665L118.313 402.912ZM57.9302 436.741C57.6534 436.498 57.3714 436.045 57.3191 435.145C57.2658 434.23 57.4634 432.996 57.9982 431.421C59.0667 428.275 61.344 424.158 64.7514 419.269C71.5475 409.516 82.5847 397.047 96.4648 383.731L93.3287 381.212C79.3424 394.629 68.1129 407.293 61.125 417.321C57.6403 422.322 55.1462 426.757 53.9243 430.355C53.3138 432.153 52.9864 433.84 53.0735 435.335C53.1614 436.846 53.685 438.292 54.9242 439.38L57.9302 436.741ZM93.3938 383.791L113.142 401.128L116.148 398.489L96.3998 381.152L93.3938 383.791ZM116.041 401.216C118.122 399.625 123.925 395.116 131.523 388.445L128.517 385.806C121.005 392.401 115.277 396.851 113.249 398.402L116.041 401.216ZM131.523 388.445C140.595 380.481 144.834 376.119 145.668 375.195L142.337 372.876C141.647 373.64 137.536 377.888 128.517 385.806L131.523 388.445ZM145.506 372.716L125.691 355.321L122.685 357.96L142.5 375.355L145.506 372.716ZM125.623 358.018C140.757 345.861 154.935 336.194 166.027 330.242C171.589 327.258 176.272 325.264 179.852 324.33C181.643 323.862 183.047 323.69 184.088 323.737C185.112 323.784 185.629 324.032 185.906 324.275L188.912 321.636C187.674 320.549 186.028 320.089 184.308 320.01C182.605 319.933 180.686 320.219 178.64 320.753C174.545 321.822 169.499 324.006 163.811 327.058C152.404 333.178 138.004 343.015 122.753 355.264L125.623 358.018ZM185.89 324.261C186.167 324.51 186.448 324.973 186.497 325.882C186.546 326.804 186.345 328.044 185.808 329.622C184.735 332.775 182.458 336.892 179.059 341.778C172.279 351.524 161.283 363.971 147.469 377.258L150.609 379.774C164.529 366.386 175.716 353.744 182.687 343.723C186.164 338.726 188.655 334.292 189.881 330.69C190.493 328.891 190.824 327.204 190.743 325.706C190.662 324.196 190.151 322.747 188.929 321.651L185.89 324.261Z" fill="rgba(255,255,255,0.5)" mask="url(#path-20-inside-2)"/>
<circle r="157.73" transform="matrix(0.751498 -0.659736 0.751498 0.659736 1311.43 904.917)" stroke="white" stroke-width="0.5"/>
<path d="M1298.87 902.6L1299 902.631C1301.32 903.196 1302.53 904.085 1303.14 905.036C1303.75 906.002 1303.84 907.199 1303.52 908.556C1302.87 911.303 1300.62 914.285 1298.94 916.077L1298.94 916.078C1296.45 918.729 1294.38 919.348 1292.77 919.081C1291.07 918.799 1289.39 917.463 1287.9 915.209L1287.9 915.201L1287.89 915.194C1286.88 913.721 1286.41 912.012 1286.54 910.296C1286.66 908.584 1287.39 906.946 1288.61 905.604C1289.84 904.297 1291.48 903.323 1293.32 902.797C1295.11 902.283 1297.04 902.215 1298.87 902.6ZM1367.15 846.977L1367.15 846.977C1380.12 844.31 1390.82 847.717 1398.51 853.172C1404.95 857.736 1409.22 863.698 1410.94 868.672C1404.92 864.394 1397.72 863.846 1390.05 865.106C1382.47 866.351 1374.25 869.387 1366.01 872.432C1364.76 872.892 1363.52 873.353 1362.27 873.808C1352.71 877.299 1343.23 880.448 1334.42 880.784C1326.29 881.094 1318.74 879.007 1312.24 872.421C1321.23 871.931 1329.17 866.931 1337.31 861.589C1337.73 861.313 1338.15 861.037 1338.57 860.759C1347.11 855.142 1356.07 849.251 1367.15 846.977Z" stroke="white" stroke-width="0.5"/>
<mask id="path-24-inside-3" fill="rgba(255,255,255,0.5)">
<path d="M1367.22 841.267L1367.14 841.256C1365.67 840.866 1364.17 840.573 1362.66 840.382C1358.15 839.776 1353.55 840.546 1349.61 842.565C1347 843.912 1344.55 845.478 1342.28 847.241C1339.96 849.005 1337.67 850.864 1335.32 852.718C1330.59 856.425 1325.55 860.043 1319.8 862.844C1316.88 864.292 1313.81 865.495 1310.64 866.436C1307.37 867.266 1304 867.727 1300.6 867.808C1293.94 868.012 1287.58 867.185 1281.34 866.457C1275.23 865.583 1269.08 864.996 1262.9 864.698C1256.83 864.425 1250.75 865.069 1244.93 866.604C1239.04 868.299 1233.57 870.958 1228.81 874.442C1232.85 870.034 1237.99 866.505 1243.84 864.132C1249.84 861.82 1256.3 860.566 1262.86 860.441C1267.11 860.331 1271.36 860.462 1275.6 860.828C1286.99 845.895 1301 837.973 1314.69 834.455L1315 834.366C1320.04 833.061 1325.24 832.327 1330.5 832.182C1334.12 832.057 1337.76 832.167 1341.36 832.507L1341.64 832.544C1353.52 833.79 1363.03 837.596 1367.22 841.267ZM1233.68 877.463C1237.85 874.751 1242.99 872.772 1248.13 873.107C1253.28 873.442 1257.74 875.83 1261.86 878.228C1265.06 880.065 1268.21 882.045 1271.76 883.338C1273.49 883.977 1275.3 884.27 1277.07 884.746C1278.54 885.139 1280.34 885.087 1281.72 885.673C1281.93 885.746 1282.12 885.867 1282.26 886.025C1282.4 886.182 1282.5 886.37 1282.53 886.569C1282.66 888.909 1277.69 890.532 1275.77 891.113C1272.44 892.092 1268.92 892.499 1265.41 892.312C1254.5 891.789 1243.55 886.857 1236.17 880.092C1235.29 879.257 1234.46 878.382 1233.69 877.468L1233.68 877.463ZM1359.21 881.259C1373.33 907.403 1423.55 889.15 1432.56 920.414C1440.54 903.46 1429.93 882.757 1410.69 875.819C1393.83 869.709 1374.83 878.756 1359.21 881.259ZM1340.95 947.678C1341.46 944.39 1342.46 941.174 1343.92 938.112C1345.43 935.033 1347.27 932.096 1349.43 929.336C1353.69 923.833 1358.65 919.047 1361.25 913.654C1362.56 911.015 1363.31 908.183 1363.46 905.303C1363.57 902.481 1362.92 899.674 1361.56 897.109C1360.1 894.433 1358.03 892.04 1355.46 890.082C1352.7 888.004 1349.59 886.299 1346.25 885.024C1350.25 885.099 1354.16 886.036 1357.64 887.752C1361.12 889.468 1364.07 891.91 1366.22 894.862C1368.46 898.025 1369.65 901.669 1369.68 905.387C1369.65 909.031 1368.72 912.612 1366.93 915.895C1365.22 919.016 1363.04 921.927 1360.44 924.545C1357.98 927.1 1355.45 929.425 1353.05 931.797C1348.11 936.513 1344.03 941.868 1340.95 947.673L1340.95 947.678ZM1429.61 937.578C1429.45 938.824 1429.33 940.101 1429.04 941.379C1428.75 942.646 1428.35 943.898 1427.84 945.118C1426.83 947.698 1425.16 950.038 1422.94 951.951C1416.88 957.077 1408.22 956.862 1400.74 954.605C1395.64 953.071 1390.78 950.835 1385.52 949.72C1378.01 948.123 1369.38 949.102 1364.37 954.715C1362.35 957.019 1361.21 959.846 1361.95 962.763C1363.84 970.397 1376.14 972.627 1381.32 966.24C1381.77 965.706 1382.14 965.128 1382.43 964.517C1382.72 963.897 1382.9 963.245 1382.97 962.58C1383.11 961.176 1382.82 959.763 1382.11 958.496C1381.4 957.15 1380.29 956.014 1378.87 955.192C1377.4 954.344 1375.61 954.032 1373.88 954.322C1375.64 953.767 1377.57 953.83 1379.28 954.506C1381.05 955.197 1382.57 956.307 1383.66 957.705C1384.81 959.145 1385.5 960.83 1385.66 962.585C1385.73 963.5 1385.64 964.418 1385.42 965.313C1384.7 968.008 1382.95 970.406 1380.47 972.109C1378.1 973.667 1375.3 974.635 1372.36 974.91C1368.91 975.251 1365.48 974.753 1362.02 974.774C1357.93 974.679 1353.85 975.229 1349.98 976.397C1347.4 977.272 1344.94 978.413 1342.65 979.78C1341.48 980.455 1340.35 981.171 1339.25 981.927C1338.76 982.283 1336.07 983.78 1336.06 984.304C1336.28 979.188 1337.1 974.115 1338.48 969.151C1339.94 964.09 1342.16 959.22 1345.07 954.668C1348.07 949.945 1352.12 945.796 1356.98 942.463C1359.48 940.74 1362.23 939.321 1365.15 938.243C1368.2 937.101 1371.46 936.431 1374.77 936.269C1378.15 936.185 1381.52 936.682 1384.68 937.724C1387.6 938.719 1390.41 940.007 1393.03 941.552C1400.83 946.165 1410.49 955.469 1420.5 949.301C1421.03 948.992 1421.54 948.647 1422.03 948.291L1423.46 947.102C1424.34 946.201 1425.16 945.243 1425.89 944.243C1427.37 942.133 1428.62 939.897 1429.61 937.578ZM1273.17 900.543C1274.06 901.858 1274.64 903.324 1274.88 904.842C1275.3 907.631 1274.88 910.468 1273.66 913.068C1272.59 915.44 1271.12 917.649 1269.31 919.629C1268.93 920.069 1268.5 920.498 1268.09 920.912C1266.84 922.089 1266.06 923.588 1265.86 925.185C1265.66 926.783 1266.05 928.394 1266.98 929.781C1267.45 930.464 1267.96 931.119 1268.52 931.745C1269.97 933.373 1271.65 934.913 1273.56 936.897C1276.65 940.382 1279.08 944.292 1280.73 948.469C1282.98 954.008 1284.16 959.024 1289.62 962.894C1293.17 965.402 1296.94 965.847 1301.33 965.894C1309.26 965.983 1319.82 959.867 1327.77 970.292C1332.51 976.513 1328.95 990.535 1317.39 1004.48C1318.55 1003.1 1310.16 1001.21 1309.63 1001.09C1305.85 1000.35 1302.05 999.844 1298.38 998.661C1291.22 996.404 1284.52 992.393 1280.13 986.88C1275.49 981.084 1275.33 973.664 1274.48 966.884C1273.47 958.81 1271.07 949.165 1265.39 942.515C1264.01 940.903 1262.16 939.007 1260.51 936.934C1258.64 934.693 1257.18 932.2 1256.2 929.556C1255.58 927.797 1255.32 925.959 1255.41 924.126C1255.45 923.16 1255.12 922.209 1254.47 921.426C1253.82 920.643 1252.89 920.073 1251.83 919.807L1190.44 904.324L1260.81 910.932C1261.62 911.013 1262.44 910.937 1263.21 910.709C1263.98 910.482 1264.68 910.108 1265.27 909.615C1265.85 909.121 1266.31 908.52 1266.6 907.855C1266.89 907.189 1267.02 906.475 1266.96 905.764C1266.89 905.004 1266.53 904.289 1265.93 903.737C1265.33 903.185 1264.53 902.83 1263.67 902.732C1258.99 902.219 1254.13 901.769 1249.39 901.292L1231.65 899.611L1196.16 896.313L1147.23 891.365L1196.43 892.977L1232.08 894.622L1249.91 895.475C1255.87 895.794 1261.73 896.03 1267.84 896.496L1268.86 896.585L1269.83 897.26C1271.15 898.177 1272.29 899.287 1273.17 900.543Z"/>
</mask>
<path d="M1367.51 840.372L1367.41 840.345L1366.81 842.136L1366.91 842.162L1367.51 840.372ZM1372.9 973.841L1372.5 973.878L1372.72 975.734L1373.12 975.697L1372.9 973.841ZM1367.22 841.267L1366.92 843.114L1373.25 843.907L1368.72 839.945L1367.22 841.267ZM1367.14 841.256L1366.52 843.042L1366.67 843.083L1366.83 843.103L1367.14 841.256ZM1362.66 840.382L1362.33 842.226L1362.34 842.228L1362.35 842.229L1362.66 840.382ZM1349.61 842.565L1348.54 840.954L1348.54 840.957L1349.61 842.565ZM1342.28 847.241L1343.67 848.651L1343.68 848.644L1343.69 848.637L1342.28 847.241ZM1335.32 852.718L1336.73 854.109L1336.74 854.106L1335.32 852.718ZM1319.8 862.844L1318.77 861.212L1318.76 861.216L1318.75 861.22L1319.8 862.844ZM1310.64 866.436L1311.23 868.229L1311.27 868.217L1311.32 868.204L1310.64 866.436ZM1300.6 867.808L1300.55 865.943L1300.54 865.943L1300.53 865.943L1300.6 867.808ZM1281.34 866.457L1281 868.299L1281.03 868.303L1281.06 868.307L1281.34 866.457ZM1262.9 864.698L1263.01 862.835L1263.01 862.834L1262.9 864.698ZM1244.93 866.604L1244.32 864.817L1244.3 864.823L1244.27 864.831L1244.93 866.604ZM1228.81 874.442L1227.16 873.273L1230.17 875.875L1228.81 874.442ZM1243.84 864.132L1242.98 862.423L1242.96 862.431L1242.94 862.438L1243.84 864.132ZM1262.86 860.441L1262.9 862.307L1262.91 862.306L1262.92 862.306L1262.86 860.441ZM1275.6 860.828L1275.39 862.685L1276.65 862.795L1277.36 861.867L1275.6 860.828ZM1314.69 834.455L1315.29 836.246L1315.33 836.236L1315.36 836.225L1314.69 834.455ZM1315 834.366L1314.39 832.576L1314.36 832.585L1314.32 832.595L1315 834.366ZM1330.5 832.182L1330.56 834.047L1330.57 834.047L1330.58 834.047L1330.5 832.182ZM1341.36 832.507L1341.68 830.661L1341.63 830.656L1341.59 830.652L1341.36 832.507ZM1341.64 832.544L1341.33 834.389L1341.36 834.393L1341.39 834.396L1341.64 832.544ZM1233.68 877.463L1232.42 875.965L1230.44 877.253L1232.18 878.783L1233.68 877.463ZM1248.13 873.107L1247.97 874.968L1247.97 874.968L1248.13 873.107ZM1261.86 878.228L1260.68 879.782L1260.7 879.79L1261.86 878.228ZM1271.76 883.338L1272.58 881.618L1272.58 881.615L1271.76 883.338ZM1277.07 884.746L1276.45 886.531L1276.45 886.531L1277.07 884.746ZM1281.72 885.673L1280.8 887.354L1280.87 887.386L1280.95 887.412L1281.72 885.673ZM1282.53 886.569L1284.65 886.473L1284.64 886.393L1284.63 886.314L1282.53 886.569ZM1275.77 891.113L1276.45 892.883L1276.46 892.88L1276.47 892.877L1275.77 891.113ZM1265.41 892.312L1265.54 890.45L1265.53 890.449L1265.41 892.312ZM1236.17 880.092L1234.61 881.359L1234.62 881.371L1234.63 881.383L1236.17 880.092ZM1233.69 877.468L1235.4 876.358L1235.31 876.247L1235.19 876.149L1233.69 877.468ZM1359.21 881.259L1358.83 879.424L1356.11 879.861L1357.29 882.059L1359.21 881.259ZM1432.56 920.414L1430.5 920.872L1432.08 926.333L1434.53 921.127L1432.56 920.414ZM1410.69 875.819L1409.88 877.544L1409.88 877.545L1410.69 875.819ZM1340.95 947.678L1338.84 947.423L1337.98 952.924L1342.45 948.997L1340.95 947.678ZM1343.92 938.112L1341.97 937.377L1341.97 937.384L1341.96 937.392L1343.92 938.112ZM1349.43 929.336L1351.18 930.395L1351.19 930.389L1351.19 930.384L1349.43 929.336ZM1361.25 913.654L1359.3 912.908L1359.3 912.917L1359.29 912.927L1361.25 913.654ZM1363.46 905.303L1365.58 905.391L1365.59 905.38L1365.59 905.369L1363.46 905.303ZM1361.56 897.109L1363.49 896.321L1363.48 896.312L1363.48 896.302L1361.56 897.109ZM1355.46 890.082L1356.86 888.674L1356.85 888.669L1356.85 888.664L1355.46 890.082ZM1346.25 885.024L1346.3 883.158L1345.41 886.735L1346.25 885.024ZM1366.22 894.862L1368.02 893.876L1368.01 893.866L1368.01 893.857L1366.22 894.862ZM1369.68 905.387L1371.8 905.397L1371.8 905.387L1371.8 905.376L1369.68 905.387ZM1366.93 915.895L1365.01 915.088L1365.01 915.088L1366.93 915.895ZM1360.44 924.545L1358.84 923.319L1358.82 923.33L1358.81 923.342L1360.44 924.545ZM1353.05 931.797L1354.61 933.06L1354.62 933.049L1354.64 933.037L1353.05 931.797ZM1340.95 947.673L1342.46 948.992L1342.72 948.759L1342.88 948.461L1340.95 947.673ZM1429.61 937.578L1431.72 937.78L1427.61 936.926L1429.61 937.578ZM1429.04 941.379L1431.13 941.757L1431.13 941.748L1431.13 941.739L1429.04 941.379ZM1427.84 945.118L1425.84 944.478L1425.84 944.496L1425.83 944.513L1427.84 945.118ZM1422.94 951.951L1424.42 953.295L1424.43 953.288L1424.43 953.281L1422.94 951.951ZM1400.74 954.605L1401.43 952.84L1401.43 952.84L1400.74 954.605ZM1385.52 949.72L1385.02 951.534L1385.02 951.534L1385.52 949.72ZM1364.37 954.715L1362.7 953.564L1362.69 953.574L1364.37 954.715ZM1361.95 962.763L1364.02 962.365L1364.02 962.36L1361.95 962.763ZM1381.32 966.24L1379.61 965.133L1379.6 965.146L1379.59 965.158L1381.32 966.24ZM1382.43 964.517L1384.39 965.242L1384.4 965.228L1384.41 965.214L1382.43 964.517ZM1382.97 962.58L1385.09 962.755L1385.09 962.746L1382.97 962.58ZM1382.11 958.496L1380.18 959.28L1380.19 959.297L1380.2 959.313L1382.11 958.496ZM1378.87 955.192L1380.05 953.636L1380.04 953.63L1378.87 955.192ZM1373.88 954.322L1373.16 952.566L1374.27 956.155L1373.88 954.322ZM1379.28 954.506L1378.41 956.208L1378.42 956.21L1379.28 954.506ZM1383.66 957.705L1381.9 958.76L1381.91 958.768L1381.92 958.777L1383.66 957.705ZM1385.66 962.585L1387.78 962.466L1387.78 962.451L1387.78 962.436L1385.66 962.585ZM1385.42 965.313L1387.49 965.738L1387.49 965.73L1387.49 965.722L1385.42 965.313ZM1380.47 972.109L1381.74 973.602L1381.76 973.591L1381.77 973.58L1380.47 972.109ZM1372.36 974.91L1372.13 973.055L1372.12 973.056L1372.36 974.91ZM1362.02 974.774L1361.96 976.64L1362 976.64L1362.03 976.64L1362.02 974.774ZM1349.98 976.397L1349.29 974.633L1349.25 974.644L1349.22 974.656L1349.98 976.397ZM1342.65 979.78L1343.82 981.337L1343.83 981.331L1343.84 981.324L1342.65 979.78ZM1339.25 981.927L1337.94 980.457L1337.91 980.473L1337.89 980.49L1339.25 981.927ZM1336.06 984.304L1333.94 984.266L1338.19 984.374L1336.06 984.304ZM1338.48 969.151L1336.42 968.693L1336.42 968.7L1336.42 968.707L1338.48 969.151ZM1345.07 954.668L1346.92 955.581L1346.92 955.578L1345.07 954.668ZM1356.98 942.463L1358.29 943.933L1358.29 943.931L1356.98 942.463ZM1365.15 938.243L1365.97 939.963L1365.98 939.96L1365.15 938.243ZM1374.77 936.269L1374.71 934.403L1374.68 934.404L1374.65 934.406L1374.77 936.269ZM1384.68 937.724L1385.45 935.985L1385.44 935.981L1385.43 935.977L1384.68 937.724ZM1393.03 941.552L1394.21 940.004L1394.21 940.003L1393.03 941.552ZM1420.5 949.301L1419.32 947.746L1419.3 947.76L1419.28 947.774L1420.5 949.301ZM1422.03 948.291L1423.39 949.727L1423.44 949.687L1423.49 949.644L1422.03 948.291ZM1423.46 947.102L1424.92 948.455L1425 948.39L1425.07 948.319L1423.46 947.102ZM1425.89 944.243L1427.68 945.253L1427.69 945.239L1427.7 945.224L1425.89 944.243ZM1273.17 900.543L1275 899.591L1274.99 899.577L1274.98 899.564L1273.17 900.543ZM1274.88 904.842L1276.99 904.597L1276.99 904.587L1274.88 904.842ZM1273.66 913.068L1271.69 912.356L1271.69 912.369L1271.68 912.382L1273.66 913.068ZM1269.31 919.629L1267.65 918.459L1267.64 918.478L1267.62 918.498L1269.31 919.629ZM1268.09 920.912L1269.64 922.181L1269.67 922.161L1269.69 922.139L1268.09 920.912ZM1266.98 929.781L1265.14 930.724L1265.15 930.734L1265.16 930.743L1266.98 929.781ZM1268.52 931.745L1270.2 930.596L1270.19 930.59L1268.52 931.745ZM1273.56 936.897L1275.23 935.749L1275.21 935.722L1275.18 935.695L1273.56 936.897ZM1280.73 948.469L1278.72 949.079L1278.72 949.088L1278.72 949.096L1280.73 948.469ZM1289.62 962.894L1288.28 964.345L1288.28 964.347L1289.62 962.894ZM1301.33 965.894L1301.35 964.028L1301.35 964.028L1301.33 965.894ZM1327.77 970.292L1329.54 969.255L1329.54 969.254L1327.77 970.292ZM1317.39 1004.48L1315.67 1003.39L1319.11 1005.59L1317.39 1004.48ZM1309.63 1001.09L1310.17 999.278L1310.13 999.27L1310.09 999.263L1309.63 1001.09ZM1298.38 998.661L1299.11 996.909L1299.1 996.907L1299.1 996.905L1298.38 998.661ZM1280.13 986.88L1281.87 985.81L1281.87 985.808L1280.13 986.88ZM1274.48 966.884L1272.37 967.088L1272.37 967.088L1274.48 966.884ZM1265.39 942.515L1267.09 941.396L1267.09 941.393L1265.39 942.515ZM1260.51 936.934L1262.26 935.867L1262.24 935.848L1262.23 935.83L1260.51 936.934ZM1256.2 929.556L1254.17 930.108L1254.17 930.122L1254.18 930.136L1256.2 929.556ZM1255.41 924.126L1257.53 924.201L1257.53 924.193L1255.41 924.126ZM1251.83 919.807L1251.25 921.6L1251.25 921.601L1251.83 919.807ZM1190.44 904.324L1190.67 902.468L1189.86 906.117L1190.44 904.324ZM1260.81 910.932L1261.05 909.078L1261.04 909.077L1261.04 909.076L1260.81 910.932ZM1266.96 905.764L1269.08 905.632L1269.08 905.624L1269.08 905.615L1266.96 905.764ZM1263.67 902.732L1263.95 900.882L1263.94 900.88L1263.67 902.732ZM1249.39 901.292L1249.63 899.438L1249.62 899.437L1249.39 901.292ZM1231.65 899.611L1231.87 897.756L1231.87 897.756L1231.65 899.611ZM1196.16 896.313L1195.91 898.167L1195.92 898.168L1195.93 898.168L1196.16 896.313ZM1147.23 891.365L1147.31 889.5L1146.99 893.218L1147.23 891.365ZM1196.43 892.977L1196.54 891.114L1196.52 891.113L1196.51 891.113L1196.43 892.977ZM1232.08 894.622L1232.2 892.758L1232.19 892.758L1232.08 894.622ZM1249.91 895.475L1250.04 893.612L1250.02 893.612L1249.91 895.475ZM1267.84 896.496L1268.05 894.639L1268.04 894.638L1268.03 894.637L1267.84 896.496ZM1268.86 896.585L1270.18 895.122L1269.69 894.782L1269.07 894.728L1268.86 896.585ZM1269.83 897.26L1271.15 895.798L1271.15 895.797L1269.83 897.26ZM1367.52 839.419L1367.44 839.409L1366.83 843.103L1366.92 843.114L1367.52 839.419ZM1367.75 839.471C1366.18 839.053 1364.58 838.74 1362.96 838.535L1362.35 842.229C1363.76 842.407 1365.16 842.679 1366.52 843.042L1367.75 839.471ZM1362.98 838.537C1357.99 837.866 1352.89 838.72 1348.54 840.954L1350.68 844.176C1354.2 842.373 1358.31 841.685 1362.33 842.226L1362.98 838.537ZM1348.54 840.957C1345.81 842.364 1343.24 844.002 1340.87 845.845L1343.69 848.637C1345.85 846.954 1348.2 845.459 1350.69 844.174L1348.54 840.957ZM1340.89 845.831C1338.55 847.609 1336.22 849.498 1333.9 851.33L1336.74 854.106C1339.11 852.23 1341.37 850.402 1343.67 848.651L1340.89 845.831ZM1333.9 851.327C1329.21 855.004 1324.31 858.513 1318.77 861.212L1320.83 864.476C1326.79 861.573 1331.97 857.846 1336.73 854.109L1333.9 851.327ZM1318.75 861.22C1315.95 862.61 1313 863.764 1309.96 864.668L1311.32 868.204C1314.62 867.225 1317.81 865.974 1320.84 864.469L1318.75 861.22ZM1310.04 864.644C1306.95 865.429 1303.76 865.866 1300.55 865.943L1300.66 869.673C1304.24 869.587 1307.79 869.102 1311.23 868.229L1310.04 864.644ZM1300.53 865.943C1294.08 866.141 1287.92 865.342 1281.62 864.607L1281.06 868.307C1287.25 869.028 1293.8 869.884 1300.68 869.673L1300.53 865.943ZM1281.68 864.615C1275.5 863.731 1269.27 863.136 1263.01 862.835L1262.78 866.561C1268.88 866.855 1274.96 867.435 1281 868.299L1281.68 864.615ZM1263.01 862.834C1256.7 862.55 1250.37 863.221 1244.32 864.817L1245.54 868.391C1251.13 866.918 1256.96 866.299 1262.79 866.561L1263.01 862.834ZM1244.27 864.831C1238.13 866.599 1232.42 869.374 1227.45 873.009L1230.17 875.875C1234.73 872.543 1239.96 869.998 1245.6 868.377L1244.27 864.831ZM1230.47 875.611C1234.3 871.427 1239.18 868.078 1244.73 865.826L1242.94 862.438C1236.8 864.932 1231.4 868.64 1227.16 873.273L1230.47 875.611ZM1244.69 865.841C1250.44 863.627 1256.63 862.426 1262.9 862.307L1262.81 858.575C1255.98 858.706 1249.24 860.013 1242.98 862.423L1244.69 865.841ZM1262.92 862.306C1267.08 862.199 1271.24 862.327 1275.39 862.685L1275.8 858.971C1271.48 858.597 1267.14 858.463 1262.79 858.576L1262.92 862.306ZM1277.36 861.867C1288.48 847.294 1302.08 839.64 1315.29 836.246L1314.09 832.664C1299.92 836.306 1285.5 844.497 1273.83 859.79L1277.36 861.867ZM1315.36 836.225L1315.67 836.136L1314.32 832.595L1314.02 832.684L1315.36 836.225ZM1315.6 836.155C1320.46 834.896 1325.49 834.187 1330.56 834.047L1330.43 830.317C1325 830.467 1319.61 831.226 1314.39 832.576L1315.6 836.155ZM1330.58 834.047C1334.1 833.925 1337.63 834.032 1341.14 834.362L1341.59 830.652C1337.88 830.302 1334.14 830.188 1330.41 830.318L1330.58 834.047ZM1341.05 834.353L1341.33 834.389L1341.96 830.698L1341.68 830.661L1341.05 834.353ZM1341.39 834.396C1353.01 835.615 1361.99 839.322 1365.72 842.588L1368.72 839.945C1364.07 835.871 1354.04 831.964 1341.9 830.691L1341.39 834.396ZM1234.95 878.962C1238.89 876.394 1243.53 874.678 1247.97 874.968L1248.29 871.246C1242.44 870.865 1236.8 873.108 1232.42 875.965L1234.95 878.962ZM1247.97 874.968C1252.51 875.263 1256.55 877.373 1260.68 879.782L1263.04 876.673C1258.94 874.286 1254.06 871.621 1248.29 871.246L1247.97 874.968ZM1260.7 879.79C1263.79 881.564 1267.16 883.683 1270.95 885.061L1272.58 881.615C1269.26 880.407 1266.34 878.567 1263.02 876.666L1260.7 879.79ZM1270.94 885.058C1271.93 885.426 1272.93 885.684 1273.84 885.904C1274.81 886.134 1275.61 886.303 1276.45 886.531L1277.7 882.962C1276.77 882.713 1275.78 882.498 1274.96 882.302C1274.1 882.096 1273.32 881.889 1272.58 881.618L1270.94 885.058ZM1276.45 886.531C1277.37 886.778 1278.41 886.888 1279.1 886.981C1279.9 887.09 1280.42 887.193 1280.8 887.354L1282.65 883.993C1281.64 883.567 1280.56 883.403 1279.75 883.293C1278.83 883.168 1278.24 883.107 1277.7 882.962L1276.45 886.531ZM1280.95 887.412C1280.81 887.364 1280.69 887.285 1280.59 887.181L1283.93 884.868C1283.55 884.45 1283.06 884.128 1282.49 883.934L1280.95 887.412ZM1280.59 887.181C1280.5 887.077 1280.44 886.954 1280.42 886.823L1284.63 886.314C1284.55 885.786 1284.31 885.287 1283.93 884.868L1280.59 887.181ZM1280.4 886.664C1280.4 886.617 1280.44 886.706 1280.18 886.973C1279.91 887.248 1279.46 887.567 1278.83 887.9C1277.56 888.564 1276.02 889.064 1275.08 889.35L1276.47 892.877C1277.44 892.582 1279.34 891.979 1281.01 891.101C1281.84 890.664 1282.73 890.102 1283.41 889.396C1284.11 888.682 1284.72 887.691 1284.65 886.473L1280.4 886.664ZM1275.1 889.344C1272.03 890.247 1268.78 890.622 1265.54 890.45L1265.29 894.175C1269.07 894.376 1272.86 893.938 1276.45 892.883L1275.1 889.344ZM1265.53 890.449C1255.22 889.955 1244.76 885.267 1237.7 878.801L1234.63 881.383C1242.34 888.446 1253.78 893.623 1265.3 894.176L1265.53 890.449ZM1237.73 878.825C1236.9 878.04 1236.12 877.217 1235.4 876.358L1231.98 878.579C1232.8 879.546 1233.67 880.474 1234.61 881.359L1237.73 878.825ZM1235.19 876.149L1235.19 876.144L1232.18 878.783L1232.19 878.788L1235.19 876.149ZM1357.29 882.059C1361.11 889.127 1367.38 893.16 1374.56 895.737C1381.64 898.279 1389.79 899.46 1397.4 900.749C1405.15 902.06 1412.38 903.483 1418.24 906.405C1423.96 909.264 1428.4 913.58 1430.5 920.872L1434.62 919.956C1432.22 911.616 1427 906.489 1420.34 903.161C1413.8 899.895 1405.9 898.386 1398.21 897.084C1390.38 895.76 1382.76 894.648 1376.17 892.283C1369.68 889.952 1364.38 886.464 1361.14 880.46L1357.29 882.059ZM1434.53 921.127C1442.98 903.163 1431.76 881.4 1411.5 874.093L1409.88 877.545C1428.1 884.114 1438.1 903.757 1430.6 919.701L1434.53 921.127ZM1411.5 874.094C1402.45 870.815 1392.95 871.652 1384 873.492C1379.52 874.413 1375.08 875.608 1370.87 876.705C1366.62 877.811 1362.61 878.818 1358.83 879.424L1359.6 883.095C1363.63 882.449 1367.84 881.386 1372.08 880.283C1376.35 879.171 1380.64 878.016 1384.97 877.126C1393.64 875.344 1402.07 874.713 1409.88 877.544L1411.5 874.094ZM1343.05 947.933C1343.54 944.804 1344.49 941.745 1345.88 938.832L1341.96 937.392C1340.43 940.603 1339.38 943.975 1338.84 947.423L1343.05 947.933ZM1345.88 938.847C1347.32 935.881 1349.1 933.052 1351.18 930.395L1347.68 928.278C1345.44 931.139 1343.53 934.185 1341.97 937.377L1345.88 938.847ZM1351.19 930.384C1353.31 927.646 1355.51 925.203 1357.69 922.544C1359.81 919.955 1361.81 917.275 1363.21 914.382L1359.29 912.927C1358.09 915.427 1356.31 917.836 1354.24 920.364C1352.22 922.822 1349.81 925.524 1347.67 928.289L1351.19 930.384ZM1363.2 914.401C1364.61 911.551 1365.42 908.495 1365.58 905.391L1361.34 905.215C1361.2 907.871 1360.51 910.48 1359.3 912.908L1363.2 914.401ZM1365.59 905.369C1365.71 902.249 1364.99 899.151 1363.49 896.321L1359.63 897.896C1360.85 900.198 1361.44 902.712 1361.34 905.237L1365.59 905.369ZM1363.48 896.302C1361.89 893.398 1359.64 890.8 1356.86 888.674L1354.07 891.49C1356.41 893.28 1358.31 895.468 1359.64 897.915L1363.48 896.302ZM1356.85 888.664C1353.92 886.466 1350.63 884.662 1347.1 883.313L1345.41 886.735C1348.55 887.936 1351.48 889.542 1354.08 891.5L1356.85 888.664ZM1346.21 886.89C1349.85 886.958 1353.42 887.813 1356.6 889.379L1358.68 886.125C1354.89 884.259 1350.64 883.24 1346.3 883.158L1346.21 886.89ZM1356.6 889.379C1359.77 890.945 1362.46 893.174 1364.43 895.868L1368.01 893.857C1365.67 890.646 1362.46 887.991 1358.68 886.125L1356.6 889.379ZM1364.41 895.849C1366.45 898.717 1367.53 902.023 1367.55 905.397L1371.8 905.376C1371.78 901.315 1370.47 897.333 1368.02 893.876L1364.41 895.849ZM1367.55 905.376C1367.53 908.748 1366.67 912.057 1365.01 915.088L1368.84 916.703C1370.78 913.168 1371.78 909.314 1371.8 905.397L1367.55 905.376ZM1365.01 915.088C1363.39 918.057 1361.31 920.827 1358.84 923.319L1362.04 925.772C1364.77 923.027 1367.05 919.975 1368.84 916.703L1365.01 915.088ZM1358.81 923.342C1356.37 925.881 1353.94 928.112 1351.46 930.557L1354.64 933.037C1356.97 930.738 1359.59 928.32 1362.06 925.749L1358.81 923.342ZM1351.48 930.535C1346.4 935.392 1342.2 940.906 1339.03 946.885L1342.88 948.461C1345.87 942.829 1349.83 937.635 1354.61 933.06L1351.48 930.535ZM1339.45 946.353L1339.44 946.358L1342.45 948.997L1342.46 948.992L1339.45 946.353ZM1427.49 937.375C1427.33 938.688 1427.22 939.844 1426.96 941.019L1431.13 941.739C1431.44 940.359 1431.57 938.959 1431.72 937.78L1427.49 937.375ZM1426.96 941.001C1426.68 942.184 1426.31 943.347 1425.84 944.478L1429.84 945.757C1430.38 944.448 1430.81 943.109 1431.13 941.757L1426.96 941.001ZM1425.83 944.513C1424.93 946.82 1423.43 948.911 1421.45 950.62L1424.43 953.281C1426.88 951.164 1428.74 948.576 1429.85 945.722L1425.83 944.513ZM1421.47 950.606C1416.25 955.016 1408.6 955.003 1401.43 952.84L1400.05 956.37C1407.84 958.721 1417.5 959.137 1424.42 953.295L1421.47 950.606ZM1401.43 952.84C1398.95 952.095 1396.56 951.187 1393.99 950.275C1391.46 949.379 1388.81 948.498 1386.02 947.906L1385.02 951.534C1387.49 952.058 1389.9 952.852 1392.39 953.736C1394.84 954.604 1397.43 955.582 1400.05 956.37L1401.43 952.84ZM1386.02 947.906C1378.09 946.22 1368.43 947.142 1362.7 953.564L1366.05 955.866C1370.34 951.062 1377.93 950.026 1385.02 951.534L1386.02 947.906ZM1362.69 953.574C1360.4 956.178 1358.96 959.559 1359.87 963.165L1364.02 962.36C1363.46 960.134 1364.29 957.86 1366.06 955.856L1362.69 953.574ZM1359.87 963.161C1361.03 967.832 1365.36 970.755 1369.97 971.587C1374.6 972.42 1379.88 971.228 1383.05 967.321L1379.59 965.158C1377.58 967.639 1374.13 968.526 1370.83 967.932C1367.53 967.337 1364.76 965.328 1364.02 962.365L1359.87 963.161ZM1383.03 967.346C1383.58 966.694 1384.03 965.988 1384.39 965.242L1380.48 963.792C1380.25 964.267 1379.96 964.718 1379.61 965.133L1383.03 967.346ZM1384.41 965.214C1384.77 964.428 1385 963.599 1385.09 962.755L1380.85 962.404C1380.8 962.89 1380.67 963.367 1380.46 963.82L1384.41 965.214ZM1385.09 962.746C1385.27 961.003 1384.9 959.249 1384.02 957.678L1380.2 959.313C1380.74 960.276 1380.96 961.35 1380.85 962.413L1385.09 962.746ZM1384.04 957.711C1383.16 956.05 1381.79 954.647 1380.05 953.636L1377.7 956.747C1378.79 957.38 1379.64 958.25 1380.18 959.28L1384.04 957.711ZM1380.04 953.63C1378.1 952.518 1375.75 952.109 1373.48 952.489L1374.27 956.155C1375.46 955.956 1376.7 956.17 1377.71 956.753L1380.04 953.63ZM1374.59 956.079C1375.84 955.686 1377.21 955.731 1378.41 956.208L1380.16 952.804C1377.94 951.929 1375.44 951.849 1373.16 952.566L1374.59 956.079ZM1378.42 956.21C1379.83 956.76 1381.03 957.645 1381.9 958.76L1385.41 956.65C1384.1 954.968 1382.28 953.633 1380.15 952.801L1378.42 956.21ZM1381.92 958.777C1382.85 959.945 1383.41 961.311 1383.54 962.734L1387.78 962.436C1387.59 960.349 1386.77 958.346 1385.4 956.633L1381.92 958.777ZM1383.54 962.704C1383.59 963.442 1383.53 964.183 1383.34 964.904L1387.49 965.722C1387.76 964.654 1387.86 963.558 1387.78 962.466L1383.54 962.704ZM1383.35 964.888C1382.74 967.168 1381.26 969.197 1379.16 970.638L1381.77 973.58C1384.64 971.615 1386.66 968.848 1387.49 965.738L1383.35 964.888ZM1379.19 970.616C1377.13 971.972 1374.69 972.815 1372.13 973.055L1372.59 976.766C1375.91 976.454 1379.07 975.361 1381.74 973.602L1379.19 970.616ZM1372.12 973.056C1370.58 973.208 1369 973.177 1367.3 973.099C1365.66 973.023 1363.82 972.897 1362 972.908L1362.03 976.64C1363.68 976.63 1365.28 976.743 1367.08 976.826C1368.83 976.906 1370.69 976.953 1372.6 976.765L1372.12 973.056ZM1362.07 972.909C1357.73 972.808 1353.4 973.392 1349.29 974.633L1350.67 978.162C1354.3 977.066 1358.13 976.55 1361.96 976.64L1362.07 972.909ZM1349.22 974.656C1346.48 975.584 1343.88 976.793 1341.45 978.235L1343.84 981.324C1346.01 980.034 1348.32 978.96 1350.75 978.138L1349.22 974.656ZM1341.48 978.222C1340.26 978.925 1339.08 979.671 1337.94 980.457L1340.56 983.396C1341.61 982.672 1342.7 981.985 1343.82 981.337L1341.48 978.222ZM1337.89 980.49C1337.89 980.49 1337.85 980.519 1337.73 980.596C1337.62 980.665 1337.48 980.748 1337.32 980.85C1337 981.047 1336.59 981.3 1336.2 981.561C1335.81 981.815 1335.38 982.116 1335.02 982.414C1334.85 982.561 1334.64 982.752 1334.46 982.973C1334.33 983.127 1333.95 983.602 1333.94 984.266L1338.19 984.341C1338.18 984.641 1338.08 984.86 1338.03 984.961C1337.98 985.07 1337.92 985.138 1337.9 985.158C1337.87 985.196 1337.88 985.182 1337.97 985.109C1338.13 984.968 1338.4 984.774 1338.75 984.544C1339.09 984.321 1339.45 984.099 1339.77 983.899C1340.04 983.73 1340.4 983.512 1340.6 983.363L1337.89 980.49ZM1338.19 984.374C1338.4 979.386 1339.2 974.438 1340.55 969.594L1336.42 968.707C1335 973.791 1334.16 978.99 1333.94 984.233L1338.19 984.374ZM1340.54 969.609C1341.96 964.707 1344.1 959.991 1346.92 955.581L1343.21 953.755C1340.21 958.45 1337.93 963.473 1336.42 968.693L1340.54 969.609ZM1346.92 955.578C1349.79 951.072 1353.66 947.113 1358.29 943.933L1355.67 940.993C1350.59 944.479 1346.36 948.818 1343.21 953.758L1346.92 955.578ZM1358.29 943.931C1360.64 942.311 1363.23 940.977 1365.97 939.963L1364.33 936.522C1361.23 937.666 1358.31 939.169 1355.67 940.995L1358.29 943.931ZM1365.98 939.96C1368.81 938.902 1371.83 938.282 1374.89 938.132L1374.65 934.406C1371.09 934.58 1367.6 935.3 1364.32 936.526L1365.98 939.96ZM1374.83 938.134C1377.93 938.057 1381.02 938.514 1383.94 939.472L1385.43 935.977C1382.01 934.851 1378.36 934.313 1374.71 934.403L1374.83 938.134ZM1383.91 939.464C1386.69 940.408 1389.35 941.632 1391.84 943.101L1394.21 940.003C1391.47 938.383 1388.52 937.03 1385.45 935.985L1383.91 939.464ZM1391.84 943.1C1393.73 944.217 1395.7 945.596 1397.93 947.068C1400.1 948.504 1402.47 949.983 1404.95 951.123C1407.43 952.263 1410.14 953.115 1413 953.206C1415.92 953.298 1418.85 952.597 1421.72 950.828L1419.28 947.774C1417.14 949.089 1415.12 949.538 1413.16 949.476C1411.15 949.413 1409.08 948.807 1406.92 947.816C1404.76 946.824 1402.62 945.498 1400.48 944.084C1398.39 942.707 1396.23 941.193 1394.21 940.004L1391.84 943.1ZM1421.67 950.856C1422.28 950.501 1422.86 950.112 1423.39 949.727L1420.67 946.854C1420.22 947.181 1419.77 947.484 1419.32 947.746L1421.67 950.856ZM1423.49 949.644L1424.92 948.455L1421.99 945.749L1420.57 946.938L1423.49 949.644ZM1425.07 948.319C1426.01 947.354 1426.89 946.327 1427.68 945.253L1424.1 943.233C1423.42 944.159 1422.66 945.048 1421.84 945.885L1425.07 948.319ZM1427.7 945.224C1429.26 943.01 1430.56 940.664 1431.6 938.229L1427.61 936.926C1426.68 939.131 1425.49 941.256 1424.08 943.262L1427.7 945.224ZM1271.34 901.496C1272.08 902.596 1272.57 903.825 1272.77 905.097L1276.99 904.587C1276.71 902.822 1276.03 901.119 1275 899.591L1271.34 901.496ZM1272.77 905.087C1273.15 907.552 1272.77 910.058 1271.69 912.356L1275.62 913.78C1276.99 910.877 1277.46 907.71 1276.99 904.597L1272.77 905.087ZM1271.68 912.382C1270.69 914.579 1269.33 916.626 1267.65 918.459L1270.97 920.798C1272.91 918.673 1274.49 916.301 1275.63 913.754L1271.68 912.382ZM1267.62 918.498C1267.29 918.878 1266.91 919.258 1266.49 919.684L1269.69 922.139C1270.09 921.738 1270.57 921.259 1271 920.76L1267.62 918.498ZM1266.53 919.642C1264.97 921.113 1264 922.985 1263.75 924.982L1267.97 925.389C1268.12 924.19 1268.71 923.065 1269.64 922.181L1266.53 919.642ZM1263.75 924.982C1263.5 926.978 1263.99 928.991 1265.14 930.724L1268.81 928.838C1268.12 927.797 1267.82 926.588 1267.97 925.389L1263.75 924.982ZM1265.16 930.743C1265.67 931.493 1266.24 932.213 1266.85 932.899L1270.19 930.59C1269.69 930.026 1269.22 929.435 1268.8 928.819L1265.16 930.743ZM1266.85 932.894C1268.3 934.53 1270.17 936.262 1271.93 938.099L1275.18 935.695C1273.14 933.564 1271.64 932.216 1270.2 930.596L1266.85 932.894ZM1271.88 938.045C1274.83 941.368 1277.14 945.096 1278.72 949.079L1282.73 947.858C1281.01 943.487 1278.47 939.396 1275.23 935.749L1271.88 938.045ZM1278.72 949.096C1280.86 954.342 1282.23 960.057 1288.28 964.345L1290.95 961.442C1286.09 957.991 1285.1 953.674 1282.73 947.841L1278.72 949.096ZM1288.28 964.347C1292.4 967.255 1296.77 967.711 1301.3 967.76L1301.35 964.028C1297.11 963.983 1293.93 963.549 1290.95 961.44L1288.28 964.347ZM1301.3 967.76C1303.55 967.785 1305.92 967.373 1308.11 966.981C1310.39 966.575 1312.53 966.179 1314.66 966.081C1316.74 965.984 1318.69 966.185 1320.52 966.917C1322.34 967.645 1324.2 968.963 1326 971.33L1329.54 969.254C1327.37 966.409 1324.93 964.582 1322.28 963.522C1319.65 962.466 1316.97 962.236 1314.43 962.354C1311.93 962.47 1309.45 962.934 1307.27 963.324C1305 963.729 1303.07 964.047 1301.35 964.028L1301.3 967.76ZM1326 971.329C1327.87 973.774 1328.32 978.175 1326.63 984.031C1324.97 989.787 1321.33 996.566 1315.67 1003.39L1319.11 1005.58C1325.02 998.452 1328.93 991.246 1330.75 984.948C1332.54 978.751 1332.41 973.031 1329.54 969.255L1326 971.329ZM1319.11 1005.59C1319.41 1005.23 1319.62 1004.78 1319.63 1004.26C1319.64 1003.75 1319.46 1003.33 1319.26 1003.02C1318.9 1002.46 1318.33 1002.07 1317.93 1001.84C1317.08 1001.33 1315.93 1000.9 1314.89 1000.56C1312.76 999.864 1310.43 999.339 1310.17 999.278L1309.1 1002.89C1309.36 1002.95 1311.5 1003.43 1313.4 1004.06C1314.39 1004.38 1315.14 1004.69 1315.56 1004.93C1315.79 1005.07 1315.69 1005.06 1315.57 1004.87C1315.49 1004.74 1315.37 1004.51 1315.38 1004.18C1315.39 1003.84 1315.53 1003.56 1315.68 1003.38L1319.11 1005.59ZM1310.09 999.263C1306.12 998.489 1302.61 998.035 1299.11 996.909L1297.65 1000.41C1301.5 1001.65 1305.57 1002.2 1309.17 1002.91L1310.09 999.263ZM1299.1 996.905C1292.27 994.753 1285.97 990.951 1281.87 985.81L1278.39 987.95C1283.08 993.836 1290.16 998.055 1297.66 1000.42L1299.1 996.905ZM1281.87 985.808C1279.79 983.211 1278.67 980.196 1277.98 976.91C1277.27 973.572 1277.03 970.19 1276.59 966.679L1272.37 967.088C1272.78 970.358 1273.05 974.076 1273.8 977.592C1274.55 981.16 1275.83 984.752 1278.39 987.952L1281.87 985.808ZM1276.59 966.679C1275.57 958.536 1273.13 948.465 1267.09 941.396L1263.69 943.634C1269.01 949.865 1271.36 959.083 1272.37 967.088L1276.59 966.679ZM1267.09 941.393C1265.57 939.623 1263.9 937.932 1262.26 935.867L1258.77 938.001C1260.42 940.082 1262.44 942.182 1263.69 943.638L1267.09 941.393ZM1262.23 935.83C1260.49 933.749 1259.13 931.434 1258.22 928.977L1254.18 930.136C1255.23 932.967 1256.79 935.636 1258.8 938.037L1262.23 935.83ZM1258.23 929.004C1257.68 927.457 1257.46 925.832 1257.53 924.201L1253.28 924.052C1253.19 926.086 1253.47 928.137 1254.17 930.108L1258.23 929.004ZM1257.53 924.193C1257.59 922.81 1257.11 921.45 1256.19 920.33L1252.75 922.522C1253.12 922.968 1253.31 923.509 1253.28 924.06L1257.53 924.193ZM1256.19 920.33C1255.26 919.21 1253.94 918.394 1252.42 918.013L1251.25 921.601C1251.85 921.752 1252.38 922.077 1252.75 922.522L1256.19 920.33ZM1252.42 918.013L1191.03 902.53L1189.86 906.117L1251.25 921.6L1252.42 918.013ZM1190.22 906.179L1260.58 912.787L1261.04 909.076L1190.67 902.468L1190.22 906.179ZM1260.57 912.786C1261.69 912.898 1262.82 912.793 1263.88 912.478L1262.53 908.941C1262.05 909.081 1261.55 909.128 1261.05 909.078L1260.57 912.786ZM1263.88 912.478C1264.95 912.163 1265.92 911.645 1266.74 910.962L1263.8 908.267C1263.43 908.57 1263 908.801 1262.53 908.941L1263.88 912.478ZM1266.74 910.962C1267.55 910.28 1268.18 909.448 1268.58 908.527L1264.62 907.183C1264.44 907.593 1264.16 907.963 1263.8 908.267L1266.74 910.962ZM1268.58 908.527C1268.99 907.606 1269.16 906.617 1269.08 905.632L1264.84 905.895C1264.87 906.333 1264.8 906.773 1264.62 907.183L1268.58 908.527ZM1269.08 905.615C1268.97 904.429 1268.4 903.312 1267.47 902.451L1264.39 905.023C1264.65 905.266 1264.81 905.579 1264.84 905.913L1269.08 905.615ZM1267.47 902.451C1266.53 901.589 1265.29 901.035 1263.95 900.882L1263.4 904.583C1263.78 904.626 1264.13 904.781 1264.39 905.023L1267.47 902.451ZM1263.94 900.88C1259.24 900.366 1254.35 899.912 1249.63 899.438L1249.15 903.146C1253.91 903.625 1258.74 904.072 1263.41 904.584L1263.94 900.88ZM1249.62 899.437L1231.87 897.756L1231.42 901.467L1249.16 903.147L1249.62 899.437ZM1231.87 897.756L1196.38 894.457L1195.93 898.168L1231.42 901.467L1231.87 897.756ZM1196.4 894.459L1147.48 889.511L1146.99 893.218L1195.91 898.167L1196.4 894.459ZM1147.15 893.229L1196.35 894.842L1196.51 891.113L1147.31 889.5L1147.15 893.229ZM1196.31 894.841L1231.97 896.485L1232.19 892.758L1196.54 891.114L1196.31 894.841ZM1231.96 896.485L1249.79 897.338L1250.02 893.612L1232.2 892.758L1231.96 896.485ZM1249.78 897.338C1255.78 897.659 1261.58 897.892 1267.66 898.355L1268.03 894.637C1261.88 894.168 1255.95 893.93 1250.04 893.612L1249.78 897.338ZM1267.63 898.353L1268.65 898.442L1269.07 894.728L1268.05 894.639L1267.63 898.353ZM1267.54 898.048L1268.52 898.724L1271.15 895.797L1270.18 895.122L1267.54 898.048ZM1268.51 898.723C1269.64 899.508 1270.61 900.455 1271.36 901.523L1274.98 899.564C1273.96 898.118 1272.66 896.846 1271.15 895.798L1268.51 898.723Z" fill="rgba(255,255,255,0.5)" mask="url(#path-24-inside-3)"/>
<mask id="path-26-inside-4" fill="rgba(255,255,255,0.5)">
<path d="M1372.34 974.879C1369.64 975.178 1366.91 975.151 1364.22 974.801C1366.92 975.015 1369.63 975.041 1372.34 974.879Z"/>
</mask>
<path d="M1372.34 974.879L1372.6 976.73L1372.19 973.017L1372.34 974.879ZM1364.22 974.801L1364.41 972.942L1363.91 976.646L1364.22 974.801ZM1372.07 973.028C1369.57 973.305 1367.03 973.28 1364.53 972.955L1363.91 976.646C1366.79 977.022 1369.71 977.05 1372.6 976.73L1372.07 973.028ZM1364.03 976.659C1366.84 976.883 1369.67 976.91 1372.48 976.741L1372.19 973.017C1369.6 973.173 1367 973.148 1364.41 972.942L1364.03 976.659Z" fill="rgba(255,255,255,0.5)" mask="url(#path-26-inside-4)"/>
<path d="M536.134 14.7407C601.597 72.2095 601.419 165.549 535.727 223.219C470.035 280.89 363.713 281.046 298.251 223.577C232.789 166.108 232.967 72.7693 298.659 15.0986C364.351 -42.5721 470.672 -42.7281 536.134 14.7407Z" stroke="white" stroke-width="0.5"/>
<path d="M435.139 138.394L434.451 137.79L433.705 138.339C424.556 145.074 414.809 149.15 405.364 149.91C396.267 150.643 387.368 148.308 379.427 142.178L400.754 123.455C403.437 125.247 406.174 126.31 408.962 126.632C412.019 126.985 415.049 126.437 418.026 125.1L419.326 124.516L418.293 123.61L398.577 106.301L397.996 105.791L397.288 106.156C396.791 106.411 396.291 106.669 395.79 106.928C387.712 111.097 379.046 115.571 370.116 117.227C365.401 118.102 360.649 118.182 355.903 117.02C351.16 115.859 346.359 113.442 341.572 109.239C334.01 102.6 331.189 94.5461 332.174 86.1972C333.163 77.8195 337.993 69.0975 345.839 61.2356L346.495 60.5786L345.792 59.961L336.436 51.7474L342.947 46.0314L352.303 54.2449L352.996 54.8539L353.743 54.2954C362.891 47.4549 372.256 43.6049 381.343 43.0064C390.088 42.4305 398.692 44.8571 406.741 50.7081L385.306 69.5264C380.128 66.1781 374.735 65.8084 369.823 67.8595L368.463 68.4272L369.528 69.3618L388.868 86.3404L389.438 86.8411L390.141 86.4936C391.061 86.0384 391.989 85.5751 392.925 85.1081C400.767 81.1928 409.109 77.0277 417.651 75.3576C422.401 74.4288 427.17 74.284 431.905 75.3796C436.636 76.4741 441.4 78.8219 446.12 82.9655C452.649 88.697 456.175 96.3671 455.781 104.815C455.386 113.267 451.06 122.563 441.742 131.497L441.056 132.156L441.775 132.787L451.131 141.001L444.62 146.717L435.139 138.394ZM379.366 91.2851L380.889 90.7686L379.735 89.755L362.391 74.5287L361.508 73.7536L360.777 74.6426C358.74 77.1219 357.621 79.7365 357.719 82.3575C357.818 84.9936 359.145 87.5115 361.734 89.7844C366.564 94.0244 372.751 93.5284 379.366 91.2851ZM407.776 101.153L406.365 101.706L407.458 102.665L425.176 118.22L426.069 119.004L426.796 118.097C428.975 115.377 430.043 112.461 429.912 109.645C429.781 106.82 428.446 104.161 425.959 101.978C423.502 99.8211 420.666 98.9126 417.554 98.9176C414.493 98.9225 411.207 99.8104 407.776 101.153Z" stroke="white" stroke-width="0.5"/>
<path d="M393.593 221.658L535.273 97.2787L555.273 114.837L413.594 239.216L393.593 221.658Z" stroke="white" stroke-width="0.5"/>
<path d="M1131.79 539.017C1197.28 596.51 1197.28 689.724 1131.79 747.216C1066.3 804.708 960.123 804.708 894.634 747.216C829.145 689.724 829.145 596.51 894.634 539.017C960.123 481.525 1066.3 481.525 1131.79 539.017Z" stroke="white" stroke-width="0.5"/>
<path d="M987.306 653.8C987.306 653.8 987.307 653.8 987.307 653.8C988.671 652.602 990.522 651.929 992.451 651.929C994.381 651.929 996.231 652.602 997.596 653.8C998.96 654.998 999.727 656.623 999.727 658.317C999.727 660.011 998.96 661.636 997.596 662.834L982.405 676.169C968.084 688.742 944.865 688.742 930.544 676.169C916.222 663.597 916.222 643.213 930.543 630.64L969.717 596.249C971.082 595.051 972.933 594.378 974.862 594.378C976.792 594.378 978.643 595.051 980.007 596.249C981.372 597.447 982.138 599.072 982.138 600.766C982.138 602.46 981.372 604.084 980.007 605.282L940.834 639.673C932.196 647.256 932.196 659.551 940.835 667.135C949.473 674.719 963.478 674.719 972.116 667.135L987.306 653.8Z" stroke="white" stroke-width="0.5"/>
<path d="M985.604 673.362C985.604 673.362 985.603 673.362 985.603 673.362C984.239 674.56 982.388 675.233 980.459 675.233C978.529 675.233 976.679 674.56 975.314 673.362C973.95 672.164 973.183 670.539 973.183 668.845C973.183 667.151 973.95 665.526 975.314 664.328L990.504 650.993C1004.82 638.421 1028.04 638.421 1042.37 650.994C1056.69 663.567 1056.69 683.951 1042.37 696.524L1003.19 730.914C1001.83 732.112 999.977 732.785 998.048 732.785C996.118 732.785 994.267 732.112 992.903 730.914C991.538 729.717 990.772 728.092 990.772 726.398C990.772 724.704 991.538 723.079 992.903 721.881L1032.08 687.49C1040.72 679.907 1040.72 667.611 1032.08 660.027C1023.44 652.444 1009.43 652.443 1000.79 660.027L985.604 673.362Z" stroke="white" stroke-width="0.5"/>
<path d="M981.669 600.572L1005.01 724.68L990.655 726.762L967.312 602.653L981.669 600.572Z" stroke="white" stroke-width="0.5"/>
<path d="M1052.11 609.617L1052.11 609.617C1050.39 607.348 1049.14 605.611 1048.38 604.419C1047.6 603.189 1047.13 602.006 1047.06 600.887C1047.06 600.886 1047.06 600.886 1047.06 600.886L1048.06 600.836C1047.99 599.891 1048.39 599.043 1049.25 598.286C1050.48 597.208 1051.96 596.817 1053.68 597.114L1052.11 609.617ZM1052.11 609.617L1052.12 609.626M1052.11 609.617L1052.12 609.626M1052.12 609.626C1053.81 611.8 1055.03 613.758 1055.81 615.5C1056.56 617.179 1056.78 618.876 1056.47 620.605L1056.47 620.606M1052.12 609.626L1056.47 620.606M1056.47 620.606C1056.17 622.257 1055.11 623.944 1053.16 625.664C1051.42 627.188 1049.41 628.117 1047.12 628.476L1047.12 628.476M1056.47 620.606L1047.12 628.476M1047.12 628.476C1044.81 628.837 1042.4 628.624 1039.87 627.808L1047.12 628.476ZM1027.13 610.591L1027.13 610.591C1026.71 612.732 1026.97 614.944 1027.93 617.244C1028.89 619.535 1030.49 621.683 1032.77 623.682C1034.99 625.627 1037.36 626.994 1039.87 627.807L1027.13 610.591ZM1027.13 610.591C1027.48 608.753 1028.34 607.117 1029.7 605.671L1035.13 610.435C1034.12 611.788 1033.69 613.282 1033.86 614.894C1034.05 616.779 1035.11 618.505 1036.89 620.068C1038.52 621.499 1040.24 622.415 1042.08 622.698C1043.99 622.995 1045.69 622.481 1047.1 621.241C1048.13 620.341 1048.67 619.272 1048.57 618.067L1048.57 618.067M1027.13 610.591L1048.57 618.067M1048.57 618.067C1048.48 616.994 1048.01 615.844 1047.25 614.632M1048.57 618.067L1043.53 609.523M1043.53 609.523L1043.54 609.525C1045.26 611.741 1046.5 613.448 1047.25 614.632M1043.53 609.523C1041.81 607.317 1040.53 605.34 1039.69 603.589C1038.88 601.909 1038.63 600.229 1038.91 598.534L1038.91 598.534M1043.53 609.523L1038.91 598.534M1047.25 614.632L1046.37 615.057L1047.25 614.632C1047.25 614.632 1047.25 614.632 1047.25 614.632ZM1038.91 598.534C1039.17 596.914 1040.2 595.258 1042.13 593.567M1038.91 598.534L1042.13 593.567M1042.13 593.567C1043.95 591.962 1046.07 590.979 1048.49 590.593M1042.13 593.567L1048.49 590.593M1048.49 590.593C1050.92 590.207 1053.46 590.425 1056.12 591.282M1048.49 590.593L1056.12 591.282M1056.12 591.282C1058.78 592.137 1061.26 593.564 1063.57 595.59M1056.12 591.282L1063.57 595.59M1063.57 595.59C1066.07 597.78 1067.81 600.102 1068.82 602.553L1063.57 595.59ZM1093.25 645.328L1075.62 660.81L1070.12 655.982L1088.12 640.176C1090.81 637.82 1092.43 635.479 1092.78 633.156L1092.78 633.156C1093.14 630.757 1092.02 628.516 1089.69 626.473C1087.36 624.429 1084.8 623.436 1082.06 623.734L1082.06 623.734C1079.39 624.025 1076.72 625.451 1074.03 627.808L1056.03 643.614L1050.53 638.787L1068.16 623.305C1072.67 619.353 1077.09 617.408 1081.44 617.27C1085.77 617.133 1090.02 618.809 1094.22 622.495C1098.42 626.182 1100.32 629.909 1100.15 633.695C1099.98 637.499 1097.75 641.376 1093.25 645.328ZM1045.86 580.525L1015.01 607.605L1004.52 598.395C1001.4 595.652 999.328 592.676 998.275 589.467L998.275 589.466C997.22 586.252 997.222 583.078 998.274 579.922L998.274 579.922C999.327 576.763 1001.35 573.853 1004.38 571.193C1007.41 568.533 1010.73 566.756 1014.33 565.831C1017.92 564.908 1021.53 564.907 1025.2 565.833L1025.2 565.833C1028.85 566.756 1032.24 568.572 1035.37 571.314L1045.86 580.525ZM1031.73 575.751L1031.73 575.751L1031.02 575.13C1027.93 572.421 1024.45 571.129 1020.6 571.397C1016.8 571.66 1013.28 573.283 1010.02 576.142C1006.76 579.002 1004.91 582.1 1004.61 585.433C1004.31 588.81 1005.78 591.87 1008.87 594.578L1013.15 598.341L1013.86 598.962L1014.57 598.341L1035.31 580.134L1036.01 579.514L1035.31 578.893L1031.73 575.751Z" stroke="white" stroke-width="0.5"/>
<path d="M1052.11 609.617L1052.11 609.617C1050.39 607.348 1049.14 605.611 1048.38 604.419C1047.6 603.189 1047.13 602.006 1047.06 600.887C1047.06 600.886 1047.06 600.886 1047.06 600.886L1048.06 600.836C1047.99 599.891 1048.39 599.043 1049.25 598.286C1050.48 597.208 1051.96 596.817 1053.68 597.114L1052.11 609.617ZM1052.11 609.617L1052.12 609.626M1052.11 609.617L1052.12 609.626M1052.12 609.626C1053.81 611.8 1055.03 613.758 1055.81 615.5C1056.56 617.179 1056.78 618.876 1056.47 620.605L1056.47 620.606M1052.12 609.626L1056.47 620.606M1056.47 620.606C1056.17 622.257 1055.11 623.944 1053.16 625.664C1051.42 627.188 1049.41 628.117 1047.12 628.476L1047.12 628.476M1056.47 620.606L1047.12 628.476M1047.12 628.476C1044.81 628.837 1042.4 628.624 1039.87 627.808L1047.12 628.476ZM1027.13 610.591L1027.13 610.591C1026.71 612.732 1026.97 614.944 1027.93 617.244C1028.89 619.535 1030.49 621.683 1032.77 623.682C1034.99 625.627 1037.36 626.994 1039.87 627.807L1027.13 610.591ZM1027.13 610.591C1027.48 608.753 1028.34 607.117 1029.7 605.671L1035.13 610.435C1034.12 611.788 1033.69 613.282 1033.86 614.894C1034.05 616.779 1035.11 618.505 1036.89 620.068C1038.52 621.499 1040.24 622.415 1042.08 622.698C1043.99 622.995 1045.69 622.481 1047.1 621.241C1048.13 620.341 1048.67 619.272 1048.57 618.067L1048.57 618.067M1027.13 610.591L1048.57 618.067M1048.57 618.067C1048.48 616.994 1048.01 615.844 1047.25 614.632M1048.57 618.067L1043.53 609.523M1043.53 609.523L1043.54 609.525C1045.26 611.741 1046.5 613.448 1047.25 614.632M1043.53 609.523C1041.81 607.317 1040.53 605.34 1039.69 603.589C1038.88 601.909 1038.63 600.229 1038.91 598.534L1038.91 598.534M1043.53 609.523L1038.91 598.534M1047.25 614.632L1046.37 615.057L1047.25 614.632C1047.25 614.632 1047.25 614.632 1047.25 614.632ZM1038.91 598.534C1039.17 596.914 1040.2 595.258 1042.13 593.567M1038.91 598.534L1042.13 593.567M1042.13 593.567C1043.95 591.962 1046.07 590.979 1048.49 590.593M1042.13 593.567L1048.49 590.593M1048.49 590.593C1050.92 590.207 1053.46 590.425 1056.12 591.282M1048.49 590.593L1056.12 591.282M1056.12 591.282C1058.78 592.137 1061.26 593.564 1063.57 595.59M1056.12 591.282L1063.57 595.59M1063.57 595.59C1066.07 597.78 1067.81 600.102 1068.82 602.553L1063.57 595.59ZM1093.25 645.328L1075.62 660.81L1070.12 655.982L1088.12 640.176C1090.81 637.82 1092.43 635.479 1092.78 633.156L1092.78 633.156C1093.14 630.757 1092.02 628.516 1089.69 626.473C1087.36 624.429 1084.8 623.436 1082.06 623.734L1082.06 623.734C1079.39 624.025 1076.72 625.451 1074.03 627.808L1056.03 643.614L1050.53 638.787L1068.16 623.305C1072.67 619.353 1077.09 617.408 1081.44 617.27C1085.77 617.133 1090.02 618.809 1094.22 622.495C1098.42 626.182 1100.32 629.909 1100.15 633.695C1099.98 637.499 1097.75 641.376 1093.25 645.328ZM1045.86 580.525L1015.01 607.605L1004.52 598.395C1001.4 595.652 999.328 592.676 998.275 589.467L998.275 589.466C997.22 586.252 997.222 583.078 998.274 579.922L998.274 579.922C999.327 576.763 1001.35 573.853 1004.38 571.193C1007.41 568.533 1010.73 566.756 1014.33 565.831C1017.92 564.908 1021.53 564.907 1025.2 565.833L1025.2 565.833C1028.85 566.756 1032.24 568.572 1035.37 571.314L1045.86 580.525ZM1031.73 575.751L1031.73 575.751L1031.02 575.13C1027.93 572.421 1024.45 571.129 1020.6 571.397C1016.8 571.66 1013.28 573.283 1010.02 576.142C1006.76 579.002 1004.91 582.1 1004.61 585.433C1004.31 588.81 1005.78 591.87 1008.87 594.578L1013.15 598.341L1013.86 598.962L1014.57 598.341L1035.31 580.134L1036.01 579.514L1035.31 578.893L1031.73 575.751Z" stroke="white" stroke-width="0.5"/>
</g>
</g>
</svg>
