<svg width="28" height="22" viewBox="0 0 28 22" fill="none" xmlns="http://www.w3.org/2000/svg">
<path d="M3.67048 5.10975C3.67048 4.79632 3.51096 4.40453 3.27167 4.24781L0.799031 1.2702V0.800049H8.61577L14.598 13.8075L19.9421 0.800049H27.36V1.2702L25.2064 3.30751C25.0469 3.38587 24.9671 3.62094 24.9671 3.85602V18.7441C24.9671 18.9792 25.0469 19.2142 25.2064 19.3709L27.36 21.3299V21.8H16.7516V21.3299L18.9051 19.2926C19.1444 19.0575 19.1444 18.9792 19.1444 18.6657V6.67691L13.0825 21.7217H12.2848L5.26574 6.67691V16.7851C5.18597 17.1769 5.3455 17.6471 5.66455 17.9605L8.45624 21.3299V21.7217H0.47998V21.3299L3.27167 17.9605C3.59072 17.6471 3.75025 17.1769 3.67048 16.7851V5.10975Z" fill="#0061E3"/>
</svg>
