<svg viewBox="0 0 60 60" xmlns="http://www.w3.org/2000/svg" fill="white">
    <path d="M0.432926 8.30428C0.432926 5.83397 0.282167 3.43793 0.0560303 0.964383H10.8195L11.1933 5.98897C12.3899 4.2872 15.3109 0.115112 22.9022 0.115112C31.621 0.115112 34.0991 5.6047 34.8372 7.45501C37.978 1.19688 43.1038 0.192612 47.0141 0.192612C54.6776 0.192612 57.7587 4.9072 58.5847 6.45074C60.6137 9.85105 60.4692 14.5624 60.4692 17.9627V39.3333H49.2786V17.0521C49.2786 12.88 48.6787 8.24292 42.8933 8.24292C36.2034 8.24292 36.0527 14.6561 36.0527 20.4524V39.3333H24.8557V16.8034C24.8557 13.7906 24.7804 8.22678 18.6181 8.22678C11.6299 8.22678 11.6299 14.4106 11.6299 17.0521V39.3333H0.432926V8.30428Z" />
    <path d="M0.0560303 47.9164H60.4786V57.4167H0.0560303V47.9164Z" />
</svg>
