<svg viewBox="0 0 343 60" xmlns="http://www.w3.org/2000/svg" fill="#fff"><path d="M80.768 39.572c0 2.629-.15 10.585 9.847 10.585 6.313 0 10.295-3.09 10.295-7.801 0-4.947-3.383-5.813-10.295-7.495-12.928-3.323-19.992-7.262-19.992-16.92 0-9.198 6.389-17.31 21.493-17.31 5.653 0 12.324 1.315 16.385 6.569 3.082 4.017 3.082 8.499 3.082 10.353h-11.201c-.147-1.938-.75-8.5-8.794-8.5-5.411 0-8.942 3.013-8.942 7.573 0 5.166 3.983 6.103 11.797 8.111 9.397 2.326 18.641 4.948 18.641 15.84 0 10.046-8.116 18.157-23.148 18.157-20.814 0-20.965-13.753-21.043-19.162h11.875zM132.098 10.83h-16.156V1.551h44.037v9.277h-16.156v46.588h-11.725V10.829zM187.486 1.552l18.864 55.865h-11.725l-3.907-12.055h-21.492l-4.058 12.055H154.04l19.62-55.865h13.826zm.314 34.769l-7.528-23.79-8.041 23.796 15.569-.006zM213.04 1.636h20.289c3.141 0 9.243 0 13.377 2.629 4.959 3.245 6.087 8.65 6.087 11.896 0 2.086-.374 5.719-3.141 8.347-.374.462-3.006 2.936-6.162 3.785v.155c8.266 1.543 11.498 7.727 11.498 13.598 0 6.568-3.769 10.979-7.965 13.136-4.224 2.235-11.59 2.235-13.694 2.235H213.04V1.636zm11.121 22.717h8.116c3.307 0 9.319 0 9.319-7.188 0-6.952-5.71-6.952-9.545-6.952h-7.89v14.14zm0 24.106h7.89c5.339 0 11.347 0 11.347-7.495 0-7.957-6.988-7.957-12.563-7.957h-6.674V48.46zM263.239 1.636h11.875v46.28h23.295v9.5h-35.176l.006-55.78zM305.401 1.552h36.373v9.126h-24.727v13.288h23.144v9.116h-23.144v15.067h25.55v9.268h-37.196V1.552zM.433 8.304c0-2.47-.15-4.866-.377-7.34H10.82l.373 5.025C12.39 4.287 15.311.115 22.903.115c8.718 0 11.196 5.49 11.934 7.34C37.978 1.197 43.104.193 47.014.193c7.664 0 10.745 4.714 11.57 6.258 2.03 3.4 1.885 8.111 1.885 11.512v21.37H49.28v-22.28c0-4.173-.6-8.81-6.386-8.81-6.69 0-6.84 6.413-6.84 12.21v18.88H24.856v-22.53c0-3.012-.076-8.576-6.238-8.576-6.988 0-6.988 6.184-6.988 8.825v22.281H.433V8.304zM.056 47.916h60.423v9.5H.056v-9.5z"/></svg>