<svg width="426" height="426" viewBox="0 0 426 426" fill="none" xmlns="http://www.w3.org/2000/svg">
<g opacity="0.1">
<path d="M425 213C425 330.084 330.084 425 213 425C95.9156 425 1 330.084 1 213C1 95.9156 95.9156 1 213 1C330.084 1 425 95.9156 425 213Z" stroke="white" stroke-width="0.5"/>
<path d="M317.196 176.377V247.771H280.211V173.266C280.211 166.164 279.695 158.477 276.523 152.552C274.923 149.564 272.643 147.016 269.426 145.224C266.215 143.435 262.131 142.433 256.968 142.433C250.984 142.433 246.37 143.829 242.841 146.314C239.314 148.798 236.961 152.307 235.389 156.379C232.268 164.463 232.151 174.989 232.151 184.742V247.758H195.153V172.478C195.153 167.403 195.102 159.923 192.249 153.709C190.81 150.576 188.649 147.738 185.413 145.69C182.178 143.644 177.942 142.433 172.427 142.433C166.198 142.433 161.446 143.773 157.836 145.989C154.223 148.208 151.822 151.262 150.233 154.577C147.093 161.127 147.093 168.772 147.093 173.206V173.266V247.797H110.095V143.691C110.095 135.637 109.62 127.839 108.899 119.828H144.313L145.534 135.918L145.739 138.627L147.339 136.431L147.38 136.375C149.473 133.503 152.979 128.691 159.161 124.569C165.371 120.428 174.336 116.949 187.362 116.949C202.32 116.949 211.833 121.517 217.919 126.78C224.024 132.058 226.762 138.103 228.045 141.195L228.868 143.18L229.856 141.272C235.249 130.867 242.281 124.868 249.6 121.454C256.94 118.032 264.629 117.182 271.362 117.182C297.546 117.182 308.021 132.813 310.773 137.857L310.786 137.88L310.799 137.902C314.227 143.481 315.838 150.186 316.582 156.986C317.232 162.922 317.215 168.857 317.2 174.116C317.198 174.885 317.196 175.639 317.196 176.377Z" stroke="white" stroke-width="0.5"/>
<path d="M108.791 278.855H317.209V309.05H108.791V278.855Z" stroke="white" stroke-width="0.5"/>
</g>
</svg>
