<svg width="428" height="427" viewBox="0 0 428 427" fill="none" xmlns="http://www.w3.org/2000/svg">
<g opacity="0.1">
<path stroke="white" stroke-width="2" d="M427 213.5C427 330.859 331.731 426 214.207 426C96.6837 426 1.41443 330.859 1.41443 213.5C1.41443 96.1408 96.6837 1 214.207 1C331.731 1 427 96.1408 427 213.5Z" />
<path fill="white" d="M210.324 249.169V248.253L209.412 248.173C194.343 246.847 181.418 242.262 172.141 234.528C163.115 227.004 157.48 216.45 156.697 202.824H195.455C195.998 207.137 197.356 210.71 199.525 213.542C201.847 216.574 205.048 218.69 209.011 219.974L210.319 220.398V219.023V183.733V182.961L209.572 182.766C208.863 182.581 208.15 182.395 207.434 182.209C195.993 179.235 183.651 176.026 173.942 169.691C168.806 166.341 164.437 162.131 161.348 156.642C158.26 151.154 156.42 144.334 156.42 135.715C156.42 122.07 162.145 111.239 171.595 103.547C181.068 95.8362 194.328 91.2509 209.385 90.2551L210.319 90.1933V89.2572V72.1667H222.634V89.2572V90.1802L223.554 90.254C238.731 91.4714 251.087 95.944 259.883 103.527C268.434 110.9 273.704 121.284 274.883 134.715H235.924C234.789 126.617 230.397 121.427 223.974 119.14L222.639 118.664V120.082V154.697V155.456L223.369 155.66C224.653 156.02 225.953 156.378 227.264 156.739C238.244 159.763 249.984 162.997 259.358 168.968C264.58 172.295 269.03 176.452 272.178 181.864C275.325 187.273 277.203 193.992 277.203 202.493C277.203 214.274 272.51 225.342 263.492 233.666C254.471 241.993 241.069 247.621 223.594 248.393L222.639 248.435V249.392V266.482H210.324V249.169ZM208.918 150.919L210.324 151.543V150.005V118.962V117.787L209.164 117.975C204.874 118.671 201.291 120.309 198.779 122.998C196.256 125.7 194.903 129.364 194.903 133.926C194.903 142.356 200.762 147.301 208.918 150.919ZM223.992 187.041L222.634 186.52V187.975V219.687V220.876L223.806 220.672C228.458 219.86 232.304 217.874 234.994 214.95C237.689 212.02 239.172 208.2 239.172 203.831C239.172 199.531 237.603 196.154 234.88 193.436C232.191 190.75 228.405 188.736 223.992 187.041Z" />
<path fill="white" d="M88.5151 296.522H342.264V333.009H88.5151V296.522Z" />
</g>
</svg>
