<svg width="71" height="73" viewBox="0 0 71 73" fill="none" xmlns="http://www.w3.org/2000/svg">
<g clip-path="url(#clip0)">
<path d="M35.6114 71.8141C55.2791 71.8141 71.2229 55.8855 71.2229 36.2365C71.2229 16.5875 55.2791 0.658875 35.6114 0.658875C15.9438 0.658875 0 16.5875 0 36.2365C0 55.8855 15.9438 71.8141 35.6114 71.8141Z" fill="black"/>
<path d="M34.7984 42.1803C29.7321 41.7344 26.0443 39.0914 25.8576 34.2908H32.6372C32.786 35.8167 33.5314 36.7464 34.7976 37.1567V31.2762C30.8115 30.2341 25.8196 29.1178 25.8196 23.2744C25.8196 18.6224 29.7313 15.8679 34.7976 15.5327V12.5181H37.182V15.5327C42.2855 15.9422 45.5642 18.5473 45.8989 23.2744H39.0821C38.9333 21.8971 38.2258 21.0409 37.1828 20.6693V26.4376C41.1689 27.554 46.2716 28.6331 46.2716 34.4022C46.2716 38.4209 43.0682 41.9574 37.1828 42.2175V45.2321H34.7984V42.1803ZM34.7984 25.6557V20.4827C33.4199 20.7065 32.5628 21.5247 32.5628 22.9763C32.5628 24.2784 33.457 25.0604 34.7984 25.6557ZM37.182 31.983V37.2674C38.6721 37.0073 39.6036 36.0025 39.6036 34.6252C39.6036 33.2851 38.635 32.5411 37.182 31.983Z" fill="white"/>
<path fill-rule="evenodd" clip-rule="evenodd" d="M14.5085 49.9046H57.1085V56.318H14.5085V49.9046Z" fill="white"/>
</g>
<defs>
<clipPath id="clip0">
<rect width="71" height="73" fill="white"/>
</clipPath>
</defs>
</svg>
