<svg width="40" height="40" viewBox="0 0 386 480" xmlns="http://www.w3.org/2000/svg">
    <path d="M386 401v5l-3 8-1 2-4 5-1 1h-1l-1 1-4 3a290 290 0 01-31 18l-7 4-3 1-7 4h-1a127 127 0 01-9 4l-8 3-2 1-18 6h-1l-9 3-15 3-10 2-5 1-10 1-10 2h-11a358 358 0 01-85-6 282 282 0 01-72-24c-14-6-27-14-40-23l-2-1-2-1-2-2-2-2-1-1a26 26 0 01-6-11 27 27 0 014-21l1-2c13-22 29-42 47-60l5-6 6-5 4-4h1l19-16h1l1-1 3-2 3-2 5-3 2-1 6-1a40 40 0 0118 0l3 1c4 1 9 4 13 7l1 1 2 2 4 3 1 1 5 8 12 13 7 7a293 293 0 0027 25l3 2 3 2a21 21 0 0031-15c1-7-1-13-6-17l-11-12h-1l-27-28-28-27L9 99c-5-5-9-12-9-20 0-5 1-9 4-13l5-8h1l1-1 4-3 16-10a316 316 0 01339 10l1 1 5 3 5 7a27 27 0 012 24l-3 6a313 313 0 01-83 91l-1 1-7 5c-6 3-13 5-21 5-10 0-19-4-26-11l-59-57-3-2-2-3h-1a21 21 0 00-31 14c-1 7 1 13 6 18l225 225c6 5 9 13 9 20z" fill="url(#paint0_linear)"/>
    <path d="M190 340a354 354 0 01-38-41l-1-1-9-8c-7-4-15-7-24-7a42 42 0 00-27 10l-1 1h-1a316 316 0 00-84 94c-3 4-4 9-4 13a28 28 0 0010 21l4 3 2 1a313 313 0 00177 54c55 0 109-14 156-41-59-23-114-56-160-99z" fill="url(#paint1_linear)"/>
    <defs>
        <linearGradient id="paint0_linear" x1="193.3" y1="0" x2="193.3" y2="480" gradientUnits="userSpaceOnUse">
            <stop stop-color="#F77423"/>
            <stop offset="1" stop-color="#FBCE5B"/>
        </linearGradient>
        <linearGradient id="paint1_linear" x1="175.9" y1="480" x2="175.9" y2="283" gradientUnits="userSpaceOnUse">
            <stop stop-color="#F77423"/>
            <stop offset="1" stop-color="#FBCE5B"/>
        </linearGradient>
    </defs>
</svg>
