<svg width="20" height="17" viewBox="0 0 20 17" fill="none" xmlns="http://www.w3.org/2000/svg">
<path d="M20 1.9246C19.2645 2.25051 18.4744 2.47071 17.6438 2.57025C18.4911 2.06289 19.1412 1.25782 19.4477 0.29948C18.655 0.769841 17.7768 1.1116 16.8422 1.29481C16.0935 0.498547 15.0277 0 13.8474 0C11.582 0 9.74456 1.8374 9.74456 4.10464C9.74456 4.42526 9.78156 4.73707 9.85026 5.03832C6.43883 4.86656 3.41672 3.23263 1.39258 0.750462C1.04025 1.35823 0.837664 2.06289 0.837664 2.81335C0.837664 4.23677 1.56258 5.4937 2.66273 6.22919C1.98978 6.20717 1.35735 6.02308 0.804193 5.71567V5.76852C0.804193 7.75654 2.21792 9.41513 4.09583 9.79213C3.75055 9.88549 3.38853 9.93482 3.01506 9.93482C2.75081 9.93482 2.49273 9.91016 2.24258 9.86259C2.76491 11.4921 4.27993 12.6795 6.07593 12.7112C4.67101 13.8122 2.90144 14.4684 0.979477 14.4684C0.648287 14.4684 0.321501 14.449 0 14.4112C1.81626 15.5765 3.97252 16.2547 6.28909 16.2547C13.8378 16.2547 17.9644 10.0026 17.9644 4.58029C17.9644 4.40412 17.96 4.2262 17.9521 4.05003C18.7536 3.47045 19.4495 2.74905 19.9982 1.92724L20 1.9246Z" fill="white"/>
</svg>
