<svg width="26" height="22" viewBox="0 0 26 22" fill="none" xmlns="http://www.w3.org/2000/svg">
<path d="M26 3.08196C25.1316 3.66917 24.112 3.98098 23.0698 3.97803C24.184 3.30898 25.0182 2.24603 25.414 0.991148C24.4904 1.78701 23.3266 2.23518 22.1175 2.26057C21.3203 1.4283 20.2798 0.882018 19.1522 0.703697C18.0245 0.525377 16.8706 0.72464 15.8635 1.27158C14.8564 1.81852 14.0505 2.68365 13.5667 3.73711C13.0829 4.79058 12.9473 5.97557 13.1803 7.11425C11.1286 7.00384 9.1227 6.45482 7.29273 5.50285C5.46276 4.55088 3.84967 3.21724 2.55819 1.58852C1.92622 2.75418 1.74118 4.11745 2.03893 5.41422C2.33667 6.711 3.096 7.84897 4.16982 8.60768C3.3594 8.61936 2.55725 8.44049 1.82563 8.08498C1.84533 9.28782 2.26023 10.4492 3.00395 11.3833C3.74767 12.3173 4.77724 12.9702 5.92796 13.2373C5.16196 13.4412 4.36076 13.4668 3.58377 13.312C3.91895 14.3776 4.57197 15.31 5.45179 15.9793C6.3316 16.6486 7.39436 17.0213 8.49191 17.0456C6.1739 18.479 3.51118 19.2286 0.800049 19.2111C3.07064 20.7221 5.70806 21.5611 8.41872 21.6348C11.1294 21.7085 13.8069 21.0139 16.1533 19.6285C18.4997 18.243 20.4228 16.2209 21.7086 13.7873C22.9944 11.3538 23.5924 8.60427 23.4361 5.84482C24.4028 5.03901 25.2644 4.11053 26 3.08196Z" fill="#0061E3"/>
</svg>
