<svg width="47" height="53" viewBox="0 0 47 53" fill="none" xmlns="http://www.w3.org/2000/svg">
<path d="M18.2784 12.5623C17.6995 12.4747 17.6751 12.4644 17.9475 12.4236C18.4695 12.3452 19.7022 12.452 20.5516 12.6491C22.5345 13.1092 24.3388 14.2876 26.2649 16.3806L26.7766 16.9366L27.5087 16.8218C30.5925 16.3381 33.7295 16.7225 36.3537 17.9055C37.0755 18.231 38.2136 18.8789 38.3559 19.0454C38.401 19.0984 38.4843 19.44 38.5405 19.8045C38.7356 21.0654 38.6379 22.0319 38.2429 22.7537C38.0279 23.1465 38.0157 23.2711 38.1602 23.6072C38.2759 23.8754 38.5975 24.074 38.9161 24.0737C39.5681 24.0729 40.2701 23.044 40.5953 21.6125L40.7242 21.0439L40.9803 21.3268C42.3838 22.8789 43.4865 24.9956 43.6758 26.5022L43.7251 26.8952L43.4892 26.5381C43.0829 25.9235 42.675 25.5051 42.1527 25.1677C41.2108 24.5596 40.2153 24.3525 37.5778 24.2169C35.1962 24.0945 33.8483 23.8959 32.5114 23.4705C30.2374 22.7469 29.091 21.7831 26.3894 18.324C25.1896 16.7875 24.4481 15.9374 23.7102 15.2528C22.034 13.6973 20.3869 12.8815 18.2784 12.5623Z" fill="#FF007A"/>
<path d="M38.8931 15.9925C38.9529 14.9629 39.096 14.2838 39.3835 13.6637C39.4973 13.4182 39.6041 13.2173 39.6205 13.2173C39.6371 13.2173 39.5875 13.3985 39.5106 13.6199C39.3013 14.2218 39.267 15.045 39.4112 16.0028C39.5939 17.218 39.698 17.3934 41.014 18.7061C41.6312 19.3219 42.3492 20.0984 42.6097 20.4319L43.0829 21.0381L42.6097 20.6048C42.0309 20.075 40.6999 19.0417 40.4057 18.894C40.2086 18.795 40.1793 18.7967 40.0578 18.9148C39.9457 19.0237 39.9221 19.1872 39.9064 19.9605C39.8823 21.1656 39.714 21.9391 39.3077 22.7125C39.0882 23.1308 39.0533 23.0416 39.2523 22.5694C39.4007 22.2168 39.4159 22.0618 39.4148 20.8952C39.4123 18.5512 39.1272 17.9877 37.4552 17.0223C37.0315 16.7778 36.3335 16.4251 35.9042 16.2385C35.4746 16.052 35.1336 15.8895 35.1461 15.8774C35.1934 15.8314 36.8242 16.2959 37.4804 16.5423C38.4566 16.9089 38.618 16.9563 38.7364 16.9121C38.8159 16.8825 38.8543 16.6566 38.8931 15.9925Z" fill="#FF007A"/>
<path d="M19.4028 20.0028C18.2277 18.4239 17.5006 16.003 17.658 14.1933L17.7067 13.6333L17.9742 13.6809C18.4765 13.7703 19.3427 14.085 19.7482 14.3254C20.8611 14.985 21.3427 15.8535 21.8329 18.0837C21.9765 18.7369 22.165 19.4762 22.2516 19.7264C22.3911 20.1293 22.9184 21.0702 23.3471 21.6813C23.656 22.1214 23.4509 22.3299 22.7684 22.2698C21.7258 22.178 20.3136 21.2268 19.4028 20.0028Z" fill="#FF007A"/>
<path d="M37.4676 31.7537C31.9761 29.5959 30.042 27.7226 30.042 24.5621C30.042 24.0972 30.0583 23.7166 30.0782 23.7166C30.0982 23.7166 30.3107 23.87 30.5504 24.0577C31.6639 24.9294 32.9111 25.3017 36.3633 25.7933C38.3946 26.0823 39.5377 26.316 40.5925 26.6575C43.9442 27.7423 46.0178 29.9441 46.5124 32.9428C46.6561 33.8143 46.5719 35.4483 46.3389 36.3095C46.1548 36.9896 45.5935 38.2158 45.4449 38.2628C45.4037 38.276 45.363 38.1215 45.3525 37.9113C45.296 36.7854 44.7128 35.689 43.7339 34.8678C42.6204 33.9342 41.1247 33.1908 37.4676 31.7537Z" fill="#FF007A"/>
<path d="M33.6124 32.6505C33.5435 32.251 33.4242 31.7405 33.3473 31.5165L33.207 31.1089L33.4674 31.3941C33.8275 31.7885 34.112 32.2934 34.3534 32.966C34.5374 33.4793 34.5582 33.6319 34.5568 34.4658C34.5554 35.2846 34.5324 35.4564 34.3622 35.9183C34.0943 36.6468 33.7616 37.1633 33.2034 37.7176C32.2003 38.7141 30.9105 39.2657 29.0495 39.4945C28.7259 39.5342 27.783 39.6012 26.954 39.6434C24.8649 39.7495 23.4899 39.9686 22.2546 40.3919C22.0769 40.4527 21.9183 40.4897 21.9023 40.474C21.8522 40.4257 22.6933 39.9362 23.3883 39.6096C24.3678 39.149 25.3432 38.8975 27.5281 38.5426C28.6075 38.367 29.7221 38.1541 30.0052 38.0693C32.678 37.2695 34.0522 35.2054 33.6124 32.6505Z" fill="#FF007A"/>
<path d="M36.1295 37.0138C35.3999 35.483 35.2324 34.0051 35.6321 32.6266C35.6747 32.4794 35.7437 32.3586 35.7849 32.3586C35.8264 32.3586 35.9986 32.4497 36.1677 32.5607C36.5037 32.7814 37.1782 33.1536 38.9748 34.1096C41.2164 35.3025 42.4945 36.2261 43.3639 37.2815C44.125 38.2059 44.5961 39.2583 44.8228 40.542C44.9512 41.2691 44.8759 43.0185 44.6849 43.7508C44.0821 46.0594 42.6813 47.8725 40.6833 48.9308C40.3905 49.0856 40.1275 49.2128 40.0993 49.2137C40.0708 49.2142 40.1773 48.9495 40.3362 48.6253C41.0085 47.2539 41.0849 45.92 40.5767 44.4353C40.2656 43.5263 39.6313 42.4169 38.3503 40.5422C36.861 38.3625 36.4959 37.7826 36.1295 37.0138Z" fill="#FF007A"/>
<path d="M15.5027 45.2731C17.5406 43.5937 20.0763 42.4008 22.386 42.0345C23.3813 41.8768 25.0397 41.9395 25.9614 42.1696C27.4388 42.5386 28.7604 43.3652 29.4479 44.3501C30.1197 45.3126 30.4078 46.1513 30.7078 48.0174C30.8263 48.7535 30.955 49.4928 30.994 49.66C31.2193 50.6274 31.6577 51.4005 32.2013 51.7887C33.0643 52.4051 34.5506 52.4434 36.0125 51.887C36.2605 51.7924 36.4761 51.7271 36.4911 51.7419C36.5442 51.7932 35.808 52.2741 35.2888 52.5275C34.5899 52.8681 34.0341 52.9999 33.2957 52.9999C31.9566 52.9999 30.8451 52.3351 29.9174 50.9793C29.735 50.7127 29.3248 49.9137 29.0056 49.2038C28.0264 47.0236 27.5426 46.3596 26.4056 45.6327C25.4159 45.0003 24.1396 44.8868 23.1795 45.3463C21.9182 45.9498 21.5664 47.5228 22.4698 48.5198C22.8288 48.9158 23.4983 49.2575 24.0458 49.324C25.0699 49.4485 25.95 48.6881 25.95 47.6789C25.95 47.0236 25.6921 46.6497 25.0422 46.3634C24.1551 45.9728 23.2014 46.4295 23.2058 47.2429C23.2077 47.5898 23.3627 47.8078 23.7189 47.965C23.9475 48.066 23.9528 48.0741 23.7663 48.0363C22.9523 47.8715 22.7616 46.9136 23.4161 46.2777C24.2019 45.5143 25.8271 45.8512 26.3851 46.8931C26.6196 47.3307 26.6467 48.2024 26.4424 48.7289C25.9849 49.9069 24.6511 50.5266 23.298 50.1895C22.3768 49.9599 22.0015 49.7114 20.8908 48.5946C18.9609 46.6543 18.2116 46.2783 15.4292 45.8544L14.896 45.7731L15.5027 45.2731Z" fill="#FF007A"/>
<path fill-rule="evenodd" clip-rule="evenodd" d="M0.94923 1.80759C7.39462 9.44253 17.3316 21.3297 17.8249 21.9952C18.2322 22.5448 18.079 23.0388 17.3812 23.4259C16.9931 23.6412 16.1953 23.8595 15.7959 23.8595C15.3441 23.8595 14.8351 23.6472 14.4644 23.3038C14.2025 23.0614 13.1452 21.5205 10.7043 17.8241C8.83668 14.9958 7.27375 12.6496 7.2311 12.6103C7.13251 12.5194 7.1342 12.5225 10.5139 18.4244C12.636 22.1304 13.3524 23.4405 13.3524 23.6158C13.3524 23.9721 13.2528 24.1596 12.8023 24.6499C12.0514 25.4676 11.7157 26.3863 11.4733 28.2877C11.2017 30.419 10.4378 31.9245 8.3208 34.5012C7.08156 36.0096 6.87879 36.2863 6.56612 36.8941C6.17226 37.6599 6.06396 38.0886 6.02006 39.0554C5.97367 40.0775 6.06401 40.7377 6.384 41.7151C6.66412 42.5706 6.95651 43.1357 7.704 44.2656C8.34908 45.2408 8.72052 45.9653 8.72052 46.2489C8.72052 46.4745 8.76464 46.4747 9.76425 46.2543C12.1565 45.7273 14.0989 44.7999 15.1914 43.6635C15.8675 42.9601 16.0262 42.5719 16.0314 41.6078C16.0347 40.9776 16.012 40.8455 15.8374 40.4827C15.5532 39.8925 15.0357 39.4017 13.8953 38.6407C12.4009 37.6437 11.7627 36.8411 11.5864 35.7374C11.4417 34.8316 11.6095 34.1925 12.4362 32.5015C13.2919 30.7513 13.5039 30.0052 13.6473 28.241C13.74 27.1013 13.8683 26.6515 14.2038 26.2909C14.5538 25.9146 14.8688 25.7871 15.7349 25.6718C17.1469 25.4835 18.046 25.1269 18.785 24.4621C19.4263 23.8857 19.6945 23.33 19.7357 22.4936L19.767 21.8597L19.4086 21.452C18.1111 19.9755 0.0803436 0.646973 0.00049339 0.646973C-0.0165561 0.646973 0.4104 1.16927 0.94923 1.80759ZM9.44883 40.2118C9.74219 39.7048 9.58633 39.0529 9.09564 38.7347C8.63201 38.4338 7.91178 38.5753 7.91178 38.9676C7.91178 39.0872 7.97956 39.1742 8.13234 39.2509C8.3896 39.3801 8.40829 39.5254 8.20588 39.8223C8.0009 40.1232 8.01742 40.3874 8.25255 40.567C8.63148 40.8566 9.1679 40.6975 9.44883 40.2118Z" fill="#FF007A"/>
<path fill-rule="evenodd" clip-rule="evenodd" d="M20.6575 26.0044C19.9947 26.2029 19.3503 26.8885 19.1509 27.6076C19.0292 28.0463 19.0982 28.8156 19.2806 29.053C19.5751 29.4369 19.8596 29.5379 20.6307 29.5328C22.1402 29.5225 23.4527 28.8907 23.6052 28.1006C23.7303 27.4531 23.1538 26.5557 22.36 26.1619C21.9504 25.9587 21.0791 25.8779 20.6575 26.0044ZM22.4223 27.351C22.655 27.0282 22.5532 26.6792 22.1574 26.4433C21.4032 25.9938 20.2631 26.3658 20.2631 27.0608C20.2631 27.4069 20.8576 27.7845 21.4026 27.7845C21.7655 27.7845 22.262 27.5733 22.4223 27.351Z" fill="#FF007A"/>
</svg>
