<svg width="25" height="25" viewBox="0 0 25 25" fill="none" xmlns="http://www.w3.org/2000/svg">
<path d="M15.9522 12.9584L24.332 4.57859C24.7297 4.18159 24.9534 3.64286 24.9539 3.08092C24.9544 2.51898 24.7316 1.97985 24.3346 1.58215C23.9376 1.18445 23.3989 0.960742 22.8369 0.960246C22.275 0.959749 21.7359 1.1825 21.3382 1.5795L12.9584 9.95929L4.57859 1.5795C4.18088 1.1818 3.64148 0.958374 3.07905 0.958374C2.51661 0.958374 1.97721 1.1818 1.5795 1.5795C1.1818 1.97721 0.958374 2.51661 0.958374 3.07905C0.958374 3.64148 1.1818 4.18088 1.5795 4.57859L9.95929 12.9584L1.5795 21.3382C1.1818 21.7359 0.958374 22.2753 0.958374 22.8377C0.958374 23.4001 1.1818 23.9395 1.5795 24.3372C1.97721 24.7349 2.51661 24.9584 3.07905 24.9584C3.64148 24.9584 4.18088 24.7349 4.57859 24.3372L12.9584 15.9575L21.3382 24.3372C21.7359 24.7349 22.2753 24.9584 22.8377 24.9584C23.4001 24.9584 23.9395 24.7349 24.3372 24.3372C24.7349 23.9395 24.9584 23.4001 24.9584 22.8377C24.9584 22.2753 24.7349 21.7359 24.3372 21.3382L15.9522 12.9584Z" fill="white"/>
</svg>
