<svg width="48" height="48" viewBox="0 0 48 48" fill="none"
  xmlns="http://www.w3.org/2000/svg">
  <g clip-path="url(#clip0_3232_42857)">
    <path d="M42.3562 19.275C41.6437 18.5438 40.9125 17.775 40.6312 17.1188C40.35 16.4625 40.3687 15.4875 40.35 14.4938C40.3312 12.675 40.2938 10.5938 38.85 9.15C37.4062 7.70625 35.325 7.66875 33.5062 7.65C32.5125 7.63125 31.5 7.6125 30.8812 7.36875C30.2625 7.125 29.4562 6.35625 28.725 5.64375C27.4312 4.40625 25.95 3 24 3C22.05 3 20.5688 4.40625 19.275 5.64375C18.5438 6.35625 17.775 7.0875 17.1188 7.36875C16.4625 7.65 15.4875 7.63125 14.4938 7.65C12.675 7.66875 10.5938 7.70625 9.15 9.15C7.70625 10.5938 7.66875 12.675 7.65 14.4938C7.63125 15.4875 7.6125 16.5 7.36875 17.1188C7.125 17.7375 6.35625 18.5438 5.64375 19.275C4.40625 20.5688 3 22.05 3 24C3 25.95 4.40625 27.4312 5.64375 28.725C6.35625 29.4562 7.0875 30.225 7.36875 30.8812C7.65 31.5375 7.63125 32.5125 7.65 33.5062C7.66875 35.325 7.70625 37.4062 9.15 38.85C10.5938 40.2938 12.675 40.3312 14.4938 40.35C15.4875 40.3687 16.5 40.3875 17.1188 40.6312C17.7375 40.875 18.5438 41.6437 19.275 42.3562C20.5688 43.5938 22.05 45 24 45C25.95 45 27.4312 43.5938 28.725 42.3562C29.4562 41.6437 30.225 40.9125 30.8812 40.6312C31.5375 40.35 32.5125 40.3687 33.5062 40.35C35.325 40.3312 37.4062 40.2938 38.85 38.85C40.2938 37.4062 40.3312 35.325 40.35 33.5062C40.3687 32.5125 40.3875 31.5 40.6312 30.8812C40.875 30.2625 41.6437 29.4562 42.3562 28.725C43.5938 27.4312 45 25.95 45 24C45 22.05 43.5938 20.5688 42.3562 19.275ZM22.5 15C22.5 14.6022 22.658 14.2206 22.9393 13.9393C23.2206 13.658 23.6022 13.5 24 13.5C24.3978 13.5 24.7794 13.658 25.0607 13.9393C25.342 14.2206 25.5 14.6022 25.5 15V25.5C25.5 25.8978 25.342 26.2794 25.0607 26.5607C24.7794 26.842 24.3978 27 24 27C23.6022 27 23.2206 26.842 22.9393 26.5607C22.658 26.2794 22.5 25.8978 22.5 25.5V15ZM24 34.5C23.555 34.5 23.12 34.368 22.75 34.1208C22.38 33.8736 22.0916 33.5222 21.9213 33.111C21.751 32.6999 21.7064 32.2475 21.7932 31.811C21.88 31.3746 22.0943 30.9737 22.409 30.659C22.7237 30.3443 23.1246 30.13 23.561 30.0432C23.9975 29.9564 24.4499 30.001 24.861 30.1713C25.2722 30.3416 25.6236 30.63 25.8708 31C26.118 31.37 26.25 31.805 26.25 32.25C26.25 32.8467 26.0129 33.419 25.591 33.841C25.169 34.2629 24.5967 34.5 24 34.5Z" fill="#FAC371"/>
  </g>
  <defs>
    <clipPath id="clip0_3232_42857">
      <rect width="48" height="48" fill="white"/>
    </clipPath>
  </defs>
</svg>
