<svg width="19" height="22" viewBox="0 0 19 22" fill="none" xmlns="http://www.w3.org/2000/svg">
<path fill-rule="evenodd" clip-rule="evenodd" d="M16.0674 5.5795C18.0529 7.55011 18.9662 9.75714 18.9662 12.5948C18.9662 18.1124 14.929 21.9485 9.1445 21.9485H3.47919L0.183228 18.6773V0.0224609H5.95444C9.05188 0.0224609 11.6595 1.12599 13.4332 2.97834L16.0674 5.5795ZM3.30711 2.9652H3.26739V3.62206L6.08681 6.39401V5.72403L3.30711 2.9652ZM6.56335 5.63206L3.87629 2.9652H3.49243L6.17947 5.63206H6.56335ZM7.50318 5.63206L4.8161 2.9652H4.06161L6.74868 5.63206H7.50318ZM5.99418 2.9652H5.00139L7.68847 5.63206H8.68122L5.99418 2.9652ZM9.64753 5.64518L7.01338 3.03089C6.73542 2.99147 6.47069 2.97834 6.17947 2.9652L8.86655 5.63206H9.1445C9.31661 5.63206 9.48868 5.63206 9.64753 5.64518ZM10.4947 5.73715L7.92672 3.18854C7.70169 3.13598 7.46344 3.09657 7.22519 3.05716L9.84608 5.65835C10.0711 5.67147 10.2961 5.71087 10.4947 5.73715ZM11.2624 5.92109L8.76066 3.43814C8.57533 3.37246 8.37678 3.30677 8.17823 3.25422L10.7329 5.78972C10.9182 5.82912 11.0903 5.86852 11.2624 5.92109ZM11.5536 6.01306C11.7257 6.09186 11.911 6.17067 12.0698 6.24952L9.63427 3.83226C9.4622 3.7403 9.27687 3.64834 9.09158 3.56951L11.5536 6.01306ZM3.26739 8.81126L3.74391 9.28422L3.63802 9.38931L3.26739 9.02148V15.9054H6.08681V6.57795L3.26739 3.83226V4.47596L5.94122 7.11655L5.83534 7.20852L3.26739 4.67302V5.32992L5.49116 7.55011L5.39849 7.6552L3.26739 5.52697V6.19695L5.05436 7.98363L4.96169 8.08872L3.26739 6.39401V7.06403L4.61755 8.41715L4.52489 8.52223L3.26739 7.26108V7.94422L4.18075 8.85066L4.07483 8.95579L3.26739 8.14128V8.81126ZM11.8581 5.8554C11.408 5.1591 10.8123 4.56793 10.0976 4.10813L11.8581 5.8554ZM15.8026 5.84224L14.7304 4.75187C15.4452 6.07874 15.9085 7.72088 15.9085 9.42871C15.9085 9.61265 15.9085 9.79654 15.8952 9.96736L18.5955 12.6605V12.5948C18.5955 9.84911 17.6955 7.77341 15.8026 5.84224ZM6.45747 15.8922C10.3094 15.6821 12.7978 13.1728 12.7978 9.42871C12.7978 8.45655 12.6258 7.56323 12.3081 6.775C11.5007 6.22323 10.5741 5.9999 9.1445 5.9999H6.45747V15.8922ZM15.3393 12.805L18.1455 15.5901C18.4102 14.7362 18.5691 13.8165 18.5955 12.8444L15.882 10.1513C15.8158 11.0971 15.6305 11.9773 15.3393 12.805ZM18.0926 15.7215L15.2864 12.9364C15.0349 13.5932 14.7172 14.2106 14.3333 14.7624L17.1925 17.6001C17.5631 17.0221 17.8675 16.3914 18.0926 15.7215ZM16.0276 19.0189C16.438 18.6248 16.7954 18.1781 17.113 17.7052L14.2671 14.8807C13.9362 15.3405 13.5656 15.774 13.142 16.155L16.0276 19.0189ZM11.8845 17.1403L14.7834 20.0173C15.1937 19.7414 15.5776 19.4393 15.9349 19.1109L13.0494 16.2469C12.692 16.5754 12.3081 16.8775 11.8845 17.1403ZM10.6138 17.8365L13.5126 20.7136C13.9097 20.5297 14.2936 20.3195 14.6642 20.0962L11.7654 17.2191C11.408 17.4556 11.0241 17.6526 10.6138 17.8365ZM9.36953 18.2964L12.2552 21.1603C12.639 21.0552 13.0229 20.9107 13.3803 20.7661L10.4814 17.8891C10.124 18.0467 9.75341 18.1912 9.36953 18.2964ZM8.16497 18.5853L11.0374 21.4362C11.408 21.3705 11.7654 21.2916 12.1095 21.1997L9.23717 18.3489C8.89303 18.4409 8.53563 18.5197 8.16497 18.5853ZM7.9929 18.6116C7.67525 18.6773 7.34433 18.7167 7.01338 18.743L9.8593 21.5544C10.2034 21.5412 10.5344 21.5018 10.8653 21.4624L7.9929 18.6116ZM8.76066 21.5806H9.1445C9.32983 21.5806 9.5019 21.5806 9.67397 21.5675L6.84131 18.7562C6.55009 18.7693 6.25892 18.7824 5.95444 18.7824H5.94122L8.76066 21.5806ZM0.818591 18.7824L3.63802 21.5806H3.82334L1.01715 18.7824H0.818591ZM1.20247 18.7824L4.0219 21.5806H4.26016L1.44072 18.7824H1.20247ZM1.62604 18.7824L4.44549 21.5806H4.74992L1.93048 18.7824H1.62604ZM2.1158 18.7824L4.93521 21.5806H5.31909L2.49966 18.7824H2.1158ZM2.68498 18.7824L5.50442 21.5806H5.9677L3.14827 18.7824H2.68498ZM3.33357 18.7824L6.15299 21.5806H6.70894L3.88953 18.7824H3.33357ZM4.08809 18.7824L6.90749 21.5806H7.58258L4.76314 18.7824H4.08809ZM4.94847 18.7824L7.76787 21.5806H8.57533L5.74267 18.7824H4.94847Z" fill="white"/>
</svg>
