<svg width="23" height="22" viewBox="0 0 23 22" fill="none" xmlns="http://www.w3.org/2000/svg">
<path d="M8.88941 9.625C8.27803 9.625 7.66666 9.93752 7.66666 10.3125C7.66666 10.6875 8.27803 11 8.88941 11C9.62302 11 10.2344 10.6875 10.2344 10.3125C10.2344 9.93752 9.62302 9.625 8.88941 9.625ZM13.4136 9.625C12.6799 9.625 12.1908 9.93752 12.1908 10.3125C12.1908 10.6875 12.6799 11 13.4136 11C14.1472 11 14.6364 10.6875 14.6364 10.3125C14.6364 9.93752 14.1472 9.625 13.4136 9.625Z" fill="white"/>
<path d="M18.6788 0H3.73577C2.39759 0 1.39395 0.99 1.39395 2.31V17.16C1.39395 18.37 2.39759 19.36 3.73577 19.36H16.337L15.7794 17.38L17.1176 18.7L18.5673 19.91L20.9091 22V2.31C20.9091 0.99 19.9055 0 18.6788 0ZM14.3297 14.41L13.5492 13.42C14.9988 13.09 15.5564 12.21 15.5564 12.21L14.3297 12.76C13.7721 13.09 13.2145 13.2 12.657 13.31C11.1476 13.5621 9.59645 13.3708 8.19637 12.76C7.86184 12.76 7.63879 12.54 7.30426 12.43L7.19278 12.32L6.85817 12.1C6.85817 12.21 7.41574 13.09 8.86551 13.42L8.08488 14.41C5.63154 14.3 4.73941 12.65 4.73941 12.65C4.73941 9.13 6.30059 6.26997 6.30059 6.26997C7.86184 5.06 9.42308 5.16999 9.42308 5.16999L9.53456 5.28C7.52731 5.82999 6.63521 6.71003 6.63521 6.71003L7.30426 6.38003C8.41941 5.82999 9.42308 5.72 9.75761 5.72H9.98065C11.9347 5.45843 13.9227 5.80449 15.6679 6.71003C15.6679 6.71003 14.7758 5.82999 12.88 5.28L12.9916 5.16999C12.9916 5.16999 14.5527 5.06 16.114 6.26997C16.114 6.26997 17.6752 9.13 17.6752 12.65C17.7867 12.65 16.783 14.3 14.3297 14.41Z" fill="white"/>
</svg>
