<svg width="23" height="23" viewBox="0 0 23 23" fill="none" xmlns="http://www.w3.org/2000/svg">
<path d="M11.1714 0.229998C8.54656 0.225289 6.006 1.1559 4.00531 2.85493C2.00462 4.55395 0.674732 6.91021 0.254171 9.50109C-0.166389 12.092 0.349901 14.7479 1.71044 16.9925C3.07097 19.2372 5.18673 20.9236 7.67822 21.7494C8.23885 21.8357 8.43288 21.5122 8.43288 21.2103V19.1619C5.65135 19.6794 4.93978 18.4934 4.7026 17.8682C4.59478 17.5447 4.05572 16.5744 3.58135 16.3157C3.19322 16.1 2.6326 15.5825 3.55978 15.5825C4.44385 15.5609 5.0476 16.3803 5.26322 16.7038C6.2551 18.3857 7.85072 17.9113 8.476 17.6094C8.58385 16.8978 8.86413 16.4234 9.18761 16.1432C6.72947 15.8628 4.16353 14.9141 4.16353 10.6878C4.16353 9.48031 4.59478 8.48843 5.28478 7.73375C5.17697 7.45343 4.78885 6.31062 5.3926 4.80125C5.3926 4.80125 6.31978 4.49937 8.43288 5.9225C10.2382 5.41733 12.1475 5.41733 13.9529 5.9225C16.066 4.49937 16.9932 4.80125 16.9932 4.80125C17.597 6.31062 17.2089 7.45343 17.101 7.73375C17.8126 8.48843 18.2439 9.48031 18.2439 10.6878C18.2439 14.9357 15.6564 15.8628 13.1982 16.1432C13.6079 16.4882 13.9529 17.1566 13.9529 18.1916L13.9314 21.2103C13.9314 21.5122 14.147 21.8572 14.686 21.7494C17.1531 20.8993 19.2402 19.2045 20.5784 16.9645C21.9168 14.7245 22.4201 12.0834 21.9995 9.50816C21.5789 6.93294 20.2614 4.58929 18.28 2.89146C16.2985 1.19363 13.7806 0.250937 11.1714 0.229998Z" fill="white"/>
</svg>
