<svg width="22" height="22" viewBox="0 0 22 22" fill="none" xmlns="http://www.w3.org/2000/svg">
<path fill-rule="evenodd" clip-rule="evenodd" d="M4.12259 3.91517C4.80334 4.46825 5.05871 4.42605 6.33706 4.34076L18.3884 3.61713C18.644 3.61713 18.4315 3.36214 18.3462 3.31977L16.3448 1.87286C15.9613 1.57511 15.4503 1.23414 14.4711 1.31943L2.80171 2.17056C2.37612 2.21275 2.29113 2.42555 2.4606 2.5961L4.12259 3.91517ZM4.84614 6.72375V19.4039C4.84614 20.0854 5.18668 20.3403 5.95315 20.2982L19.1976 19.5318C19.9645 19.4896 20.0499 19.0209 20.0499 18.4673V5.87224C20.0499 5.31955 19.8373 5.0215 19.3679 5.06404L5.52727 5.87224C5.01647 5.91517 4.84609 6.17067 4.84609 6.72375H4.84614ZM17.921 7.40393C18.0059 7.78728 17.921 8.17028 17.537 8.21338L16.8988 8.34053V17.7018C16.3448 17.9996 15.8339 18.1698 15.4081 18.1698C14.7264 18.1698 14.5557 17.9569 14.0451 17.319L9.87094 10.7661V17.1062L11.1918 17.4043C11.1918 17.4043 11.1918 18.1698 10.1261 18.1698L7.18831 18.3403C7.10297 18.1698 7.18831 17.7447 7.48631 17.6595L8.25296 17.447V9.06411L7.18853 8.97881C7.10314 8.59547 7.31576 8.04274 7.91242 7.99985L11.064 7.7874L15.4081 14.4257V8.55327L14.3005 8.42617C14.2155 7.95753 14.5557 7.61724 14.9817 7.57504L17.921 7.40393ZM1.82193 1.02173L13.9599 0.127852C15.4505 1.34159e-05 15.834 0.0856554 16.7709 0.766184L20.6455 3.48946C21.2848 3.95776 21.4979 4.08525 21.4979 4.59575V19.5318C21.4979 20.4678 21.1569 21.0214 19.9647 21.1061L5.8688 21.9573C4.97385 22 4.54792 21.8725 4.07923 21.2764L1.22592 17.5744C0.714695 16.8929 0.502075 16.3831 0.502075 15.7866V2.5105C0.502075 1.74502 0.843179 1.10647 1.82193 1.02173V1.02173Z" fill="white"/>
</svg>
