<svg width="22" height="22" viewBox="0 0 22 22" fill="none" xmlns="http://www.w3.org/2000/svg">
<path d="M11 0C8.08262 0 5.28473 1.15893 3.22183 3.22183C1.15893 5.28473 0 8.08262 0 11C0 13.9174 1.15893 16.7153 3.22183 18.7782C5.28473 20.8411 8.08262 22 11 22C13.9174 22 16.7153 20.8411 18.7782 18.7782C20.8411 16.7153 22 13.9174 22 11C22 8.08262 20.8411 5.28473 18.7782 3.22183C16.7153 1.15893 13.9174 0 11 0V0ZM16.4113 7.54032L14.5927 16.0565C14.4597 16.6331 14.1048 16.8105 13.6169 16.5L10.8669 14.504L9.53629 15.746C9.40323 15.9234 9.27016 16.0121 8.95968 16.0121L9.18145 13.2177L14.2823 8.64919C14.504 8.42742 14.2379 8.33871 13.9274 8.51613L7.62903 12.4637L4.92339 11.621C4.30242 11.4435 4.30242 11.0444 5.05645 10.7782L15.6573 6.65323C16.1452 6.47581 16.5444 6.78629 16.4113 7.54032Z" fill="white"/>
</svg>
