<svg width="60" height="60" viewBox="0 0 60 60" fill="none" xmlns="http://www.w3.org/2000/svg">
<rect width="60" height="60" rx="12" fill="#4D6DA3"/>
<path d="M17.6935 30.4967L18.7685 22.388L9.42944 15.8944L17.9623 18.7879L19.9779 15.6925L27.3349 11.1167L43.5607 20.0664L44.4005 33.7266L37.1779 43.7867L31.467 44.6615L34.4232 39.2445V34.0295L32.2732 29.9583L30.0896 28.5116L26.7302 31.9771V35.6445L24.1099 38.1006L20.7841 38.5044L19.306 39.3455L16.8873 38.5716L15.8795 34.9379L17.6935 32.3808V30.4967Z" fill="white"/>
<path d="M32.6092 15.8271C30.8288 15.457 28.8803 15.558 28.8803 15.558C28.8803 15.558 28.2421 18.5188 24.278 19.2926C24.3116 19.2926 29.5186 21.0759 32.6092 15.8271Z" fill="#94A6C3"/>
<path d="M34.2217 42.6764C36.3717 40.9941 37.9842 38.6726 38.7233 36.0482C38.7569 35.9473 39.0592 35.779 39.2608 35.6445C39.5967 35.4426 39.9327 35.2744 39.9998 35.0052C40.1342 34.2313 40.2014 33.4238 40.2014 32.6163C40.2014 32.3135 39.8991 32.0107 39.5967 31.7079C39.3616 31.506 39.1264 31.2705 39.1264 31.1023C38.7905 28.0405 37.3795 25.1806 35.1287 23.0946L34.8936 23.3301C37.0772 25.3825 38.4881 28.1751 38.7905 31.1359C38.8241 31.4051 39.0928 31.6743 39.3616 31.9434C39.5967 32.1453 39.8655 32.4481 39.8655 32.5827C39.8655 33.3566 39.7983 34.1304 39.6639 34.9043C39.6303 35.0388 39.328 35.1734 39.0928 35.308C38.7569 35.4762 38.4545 35.6445 38.3873 35.9136C37.5811 38.7735 35.7335 41.2633 33.2811 42.8783C33.7178 41.9362 35.0952 38.8744 35.8342 37.3267L35.6998 32.3472L31.4335 28.2088L29.0147 28.5452L26.3608 32.8518C26.3608 32.8518 27.6037 34.4332 25.8569 36.2837C24.1436 38.1006 22.7998 38.5044 22.7998 38.5044L21.5569 37.8314C21.9264 37.3604 22.6655 36.6538 23.2366 36.1828C24.2108 35.3753 25.185 35.308 25.185 34.4332C25.2186 32.6163 23.2702 33.121 23.2702 33.121L22.5647 33.7939L22.2623 36.2837L20.7842 38.1343L20.6162 38.1006L18.1975 37.5623C18.1975 37.5623 19.6756 36.7884 19.9108 35.9136C20.146 35.0725 19.4405 32.2799 19.4069 32.1117C19.4405 32.1453 20.1124 32.7173 20.4147 33.6594C20.9522 32.1789 21.6577 30.7658 21.8592 30.6312C22.0608 30.4967 24.7819 29.0499 24.7819 29.0499L23.8748 31.4388L24.5467 31.0686L26.1592 27.0984C26.1592 27.0984 27.7381 26.3246 28.9139 26.3246C31.0303 26.291 34.1545 23.7002 32.7436 19.0571C33.1467 19.2253 40.1342 22.7245 41.3436 29.5882C42.2506 34.8706 39.2608 39.8165 34.2217 42.6764Z" fill="#94A6C3"/>
<path d="M26.2264 16.5673C26.9991 15.6588 26.6967 14.313 26.6967 14.313L24.4459 17.6439C24.4123 17.6439 25.2521 17.6776 26.2264 16.5673Z" fill="#1B314F"/>
<path d="M18.6677 34.7697L18.9364 33.4238C18.9364 33.4238 17.8279 35.3753 17.7271 35.6444C17.6263 35.9472 17.7943 36.4856 18.231 36.452C18.6677 36.4183 19.2052 35.7791 19.2052 35.308C19.2052 34.7024 18.6677 34.7697 18.6677 34.7697Z" fill="#1B314F"/>
<path d="M38.6225 15.371C38.6225 15.371 40.3022 15.4383 42.049 15.6402C38.1185 12.5448 34.3897 11.6363 31.3662 11.6363C27.2006 11.6363 24.3787 13.3523 24.2108 13.4532L25.5209 11.3672C25.5209 11.3672 20.2803 10.8625 18.4326 16.414C17.9623 15.2364 17.5256 13.5205 17.5256 13.5205C17.5256 13.5205 14.8045 15.9093 16.081 19.8796C12.9568 18.7356 8.48888 17.1542 8.3209 17.1206C8.08575 17.0869 8.01856 17.1879 8.01856 17.1879C8.01856 17.1879 7.95137 17.2888 8.15294 17.457C8.52247 17.7598 15.5772 22.975 17.1225 23.9843C16.7865 25.1956 16.7865 25.7675 17.1225 26.3395C17.5928 27.1134 17.6264 27.5171 17.5592 28.0891C17.492 28.6611 16.8873 33.607 16.753 34.2126C16.6185 34.8182 15.2076 36.9715 15.2748 37.6108C15.342 38.2501 16.2155 40.9754 16.9881 41.2782C17.5592 41.4801 18.9701 41.9175 19.9108 41.9175C20.2467 41.9175 20.549 41.8502 20.6834 41.7156C21.2545 41.2109 21.4225 41.11 21.8256 41.11C21.8592 41.11 21.8928 41.11 21.9264 41.11C22.0943 41.11 22.2959 41.1436 22.531 41.1436C23.0685 41.1436 23.774 41.0427 24.278 40.5717C25.017 39.8314 26.2935 38.8221 26.6967 38.3511C27.2006 37.7118 27.4693 36.837 27.335 35.9622C27.2342 35.1547 27.6709 34.4481 28.1748 33.7416C28.8131 32.9004 29.9889 31.3864 29.9889 31.3864C32.3068 33.1359 33.7514 35.794 33.7514 38.7548C33.7514 44.0035 29.1826 48.2429 23.5389 48.2429C22.6655 48.2429 21.8256 48.1419 20.9858 47.9401C23.5725 48.8485 25.756 49.1513 27.5365 49.1513C31.3326 49.1513 33.3483 47.7719 33.3483 47.7719C33.3483 47.7719 32.6428 48.6803 31.5006 49.7233C31.5342 49.7233 31.5342 49.7233 31.5342 49.7233C37.8162 48.8485 40.8733 43.6671 40.8733 43.6671C40.8733 43.6671 40.6381 45.3494 40.3357 46.4933C48.7006 40.2015 47.2897 32.3285 47.256 32.0593C47.3233 32.1602 48.1631 33.1696 48.5998 33.7079C49.9435 19.8459 38.6225 15.371 38.6225 15.371ZM25.756 37.5099C25.6217 37.6781 25.0506 38.1828 24.6475 38.5529C24.2443 38.923 23.8076 39.2931 23.4717 39.6296C23.3373 39.7642 23.0685 39.8314 22.6655 39.8314C22.531 39.8314 22.3967 39.8314 22.2959 39.8314C22.2287 39.8314 22.1615 39.8314 22.0943 39.8314C22.0272 39.8314 21.9935 39.8314 21.96 39.8314C21.8592 39.8314 21.7584 39.8314 21.6576 39.8314C22.1615 39.1585 23.6397 37.6108 24.1435 37.2744C24.7483 36.8706 25.0506 36.4669 24.681 35.7603C24.3115 35.0537 23.3373 35.222 23.3373 35.222C23.3373 35.222 23.9084 34.9865 24.4123 34.9865C23.774 34.8182 22.9678 34.9865 22.5983 35.3565C22.1951 35.7267 22.2623 37.0389 22.0943 37.88C21.9264 38.7548 21.3553 39.1922 20.4818 39.9997C20.0115 40.4371 19.6756 40.5717 19.4068 40.5717C18.8358 40.4707 18.1639 40.3025 17.6935 40.1343C17.3576 39.6969 16.8537 38.2501 16.7193 37.6445C16.8201 37.308 17.2233 36.6015 17.4248 36.1977C17.828 35.4239 18.0631 34.9865 18.1303 34.5828C18.2647 34.0107 18.7014 30.4779 18.8693 28.9975C19.306 29.5695 19.9108 30.5116 19.7764 31.1172C20.7506 29.7378 20.0451 28.3919 19.7092 27.8536C19.4068 27.3152 19.0037 26.2386 19.3397 25.0946C19.6756 23.9507 20.885 20.788 20.885 20.788C20.885 20.788 21.2881 21.4946 21.8592 21.36C22.4303 21.2254 27.0326 14.2944 27.0326 14.2944C27.0326 14.2944 28.2756 17.0197 26.9655 19.0047C25.6217 20.9898 24.3115 21.36 24.3115 21.36C24.3115 21.36 26.1592 21.6964 27.8725 20.4515C28.578 22.1002 29.2498 23.8161 29.2834 24.0516C29.1826 24.2871 27.8389 27.5171 27.7045 27.719C27.6373 27.7863 27.167 27.9209 26.831 27.9881C26.26 28.1564 25.924 28.2573 25.7897 28.3582C25.5545 28.5601 24.4795 31.5209 23.9756 32.9678C23.3709 33.1359 22.7662 33.4724 22.3295 34.1453C22.5647 33.9771 23.3037 33.8762 23.8412 33.8089C24.3115 33.7752 25.756 34.5491 26.1256 35.9958C26.1256 36.0295 26.1256 36.0295 26.1256 36.0631C26.1928 36.6015 26.0248 37.1062 25.756 37.5099ZM22.5983 37.9136C22.9006 37.4763 22.867 36.7361 22.9006 36.5006C22.9342 36.265 23.0014 35.8276 23.2701 35.7603C23.5389 35.693 24.1772 35.794 24.1772 36.265C24.1772 36.7024 23.7068 36.8034 23.3709 37.1062C23.1358 37.3417 22.6655 37.8464 22.5983 37.9136ZM36.0022 31.4873C36.3381 29.7714 36.3717 28.291 36.2709 27.0797C37.581 28.8293 38.3873 30.949 38.6225 33.1359C38.656 33.4051 38.9248 33.6743 39.1935 33.9435C39.4287 34.1453 39.6975 34.4145 39.6975 34.5828C39.6975 35.3566 39.6303 36.1304 39.4959 36.9043C39.4623 37.0052 39.16 37.1735 38.9248 37.308C38.5889 37.4763 38.2865 37.6445 38.2193 37.9136C37.4803 40.5044 35.9014 42.7923 33.785 44.4073C36.9092 41.1436 38.4209 35.7603 36.0022 31.4873ZM33.8857 44.7101C36.0693 43.0278 37.749 40.6726 38.4881 38.0146C38.5217 37.9136 38.824 37.7454 39.0256 37.6108C39.3615 37.4426 39.6975 37.2407 39.7647 36.9715C39.899 36.1977 39.9662 35.3902 39.9662 34.5828C39.9662 34.2799 39.6639 33.9771 39.3615 33.6743C39.1935 33.4724 38.9248 33.2369 38.9248 33.0687C38.656 30.6125 37.6818 28.291 36.1701 26.3731C35.4983 22.3357 32.8107 21.0908 32.7435 21.0571C32.8107 21.1581 34.5576 23.6815 33.3483 26.6423C32.1053 29.6368 28.9139 29.1658 28.6451 29.1994C28.3764 29.1994 27.335 30.5452 26.0248 33.035C25.8568 32.9678 25.1514 32.7995 24.3451 32.9341C24.9498 31.2518 25.8568 28.863 26.0248 28.6611C26.092 28.5938 26.5959 28.4592 26.9318 28.3582C27.5701 28.1901 27.8725 28.0891 27.9733 27.9545C28.0405 27.8536 28.3764 27.0797 28.7123 26.2723C29.0147 26.2723 29.7873 26.2049 29.8545 26.1713C29.9217 26.104 30.56 24.4553 30.56 24.2535C30.56 24.0853 29.2498 20.8216 28.7459 19.5767C28.981 19.3076 29.2162 18.9711 29.4514 18.601C36.3381 19.3412 41.7131 25.1956 41.7131 32.2948C41.7131 37.7454 38.5217 42.4895 33.8857 44.7101Z" fill="#1B314F"/>
<path d="M24.9498 24.5414C25.5881 23.8012 25.2521 22.4217 24.0763 22.1862C24.3787 21.4797 24.8154 20.0665 24.8154 20.0665C24.8154 20.0665 21.3888 25.4498 21.0865 25.5508C20.7841 25.6517 20.4818 24.4741 20.4818 24.4741C19.8435 26.9303 21.5568 27.2667 21.7584 26.4929C22.699 26.2574 24.3115 25.248 24.9498 24.5414Z" fill="#1B314F"/>
<path d="M22.0271 25.8536L23.774 22.8591C23.774 22.8591 24.7818 23.3638 24.2778 24.1713C23.6396 25.1134 22.0271 25.8536 22.0271 25.8536Z" fill="#FFD923"/>
<path d="M43.628 39.7157C43.124 40.3886 42.553 41.0951 41.8811 41.768C46.2147 33.4239 42.0826 25.7863 41.9147 25.4835C42.217 25.7863 42.5193 26.1228 42.7881 26.4256C46.1139 30.1266 46.517 35.6782 43.628 39.7157Z" fill="#D82122"/>
<path d="M47.6592 28.9826C46.1475 24.9115 43.9975 21.446 39.2608 18.3169C34.6921 15.2888 29.7874 15.5243 29.5187 15.558C29.485 15.558 29.4514 15.558 29.4514 15.558C29.6194 15.4907 29.7874 15.457 29.9554 15.4234C30.9967 15.087 32.3405 14.8178 33.6842 14.6495C37.2452 14.1449 40.8397 15.3561 43.2921 17.9469C43.3257 17.9805 43.3257 17.9805 43.3592 18.0141C46.1475 20.9749 47.5921 24.676 47.6592 28.9826Z" fill="#D82122"/>
<path d="M38.1858 12.328C33.1803 11.3859 29.9553 11.857 27.6374 12.7318C27.5702 12.4626 27.335 11.9242 27.1335 11.4869C26.428 12.328 25.6889 13.3374 25.2186 13.9767C23.942 14.8514 23.4045 15.6925 23.4045 15.6925C24.1436 13.1691 26.2936 11.285 28.9139 10.8139C29.653 10.6794 30.4592 10.6121 31.3327 10.6121C33.6507 10.6457 35.9686 11.2177 38.1858 12.328Z" fill="#D82122"/>
<path d="M19.6756 18.788C15.7451 18.6535 17.0553 14.0776 17.1225 13.8085C17.1225 13.8421 17.3913 17.4086 19.6756 18.788Z" fill="#D82122"/>
<path d="M23.5389 10.5448C20.5155 12.3617 21.1202 16.7019 21.1202 16.7019C18.2311 12.2944 23.3038 10.6457 23.5389 10.5448Z" fill="#D82122"/>
<path d="M18.5671 19.9991C18.7687 20.1674 18.9702 20.4702 18.735 20.9076C18.6007 21.1431 18.3991 21.1095 18.0967 20.9748C17.6936 20.773 15.2749 19.3598 13.0913 17.9131C15.5772 18.7879 18.0967 19.73 18.4999 19.9318C18.4999 19.9318 18.5335 19.9655 18.5671 19.9991Z" fill="white"/>
</svg>
