<svg width="60" height="60" viewBox="0 0 60 60" fill="none" xmlns="http://www.w3.org/2000/svg">
<rect width="60" height="60" rx="12" fill="url(#paint0_linear)"/>
<path d="M19.5949 24.53C19.5929 24.5557 19.5919 24.5814 19.5918 24.6071V42.9629C19.5918 43.1099 19.6217 43.2553 19.6799 43.3911C19.738 43.5269 19.8231 43.6501 19.9306 43.754C20.038 43.8579 20.1655 43.9403 20.3058 43.9965C20.4461 44.0528 20.5965 44.0816 20.7484 44.0816C21.387 44.0816 21.9049 43.5808 21.9049 42.9629V39.7099C21.9049 39.0921 22.4225 38.5911 23.0612 38.5911C23.368 38.5911 23.662 38.7091 23.8789 38.9189C24.0958 39.1287 24.2177 39.4132 24.2177 39.7099V41.2521C24.2177 41.5488 24.3395 41.8334 24.5564 42.0431C24.7733 42.2529 25.0674 42.3708 25.3741 42.3708C25.526 42.3708 25.6764 42.3419 25.8166 42.2857C25.957 42.2294 26.0845 42.147 26.1919 42.0431C26.2993 41.9393 26.3845 41.816 26.4426 41.6802C26.5007 41.5445 26.5306 41.399 26.5306 41.2521V39.7099C26.5306 39.0921 27.0482 38.5911 27.687 38.5911H27.6872C28.3256 38.5911 28.8436 39.0921 28.8436 39.7099V40.1309C28.8436 40.4276 28.9654 40.7121 29.1823 40.9219C29.3992 41.1317 29.6932 41.2496 29.9999 41.2496C30.3067 41.2496 30.6008 41.1317 30.8177 40.9219C31.0346 40.7121 31.1565 40.4276 31.1565 40.1309V39.7099C31.1565 39.0921 31.6743 38.5911 32.3128 38.5911C32.9516 38.5911 33.4695 39.0921 33.4695 39.7099V41.2521C33.4695 41.399 33.4993 41.5445 33.5575 41.6802C33.6155 41.8159 33.7007 41.9393 33.8081 42.0431C33.9155 42.147 34.0429 42.2294 34.1832 42.2856C34.3235 42.3418 34.4739 42.3708 34.6257 42.3708C34.7776 42.3708 34.928 42.3419 35.0683 42.2857C35.2086 42.2294 35.3361 42.147 35.4435 42.0431C35.5509 41.9393 35.6361 41.816 35.6942 41.6802C35.7523 41.5445 35.7823 41.399 35.7823 41.2521V39.7099C35.7823 39.4132 35.9042 39.1287 36.121 38.9189C36.3379 38.7091 36.6321 38.5911 36.9388 38.5911C37.5774 38.5911 38.0951 39.0921 38.0951 39.7099V42.9629C38.0951 43.5808 38.613 44.0816 39.2517 44.0816C39.5584 44.0816 39.8526 43.9638 40.0694 43.754C40.2863 43.5442 40.4081 43.2597 40.4081 42.9629V24.6071C40.4081 24.5812 40.4069 24.5555 40.405 24.53C40.2773 19.0767 35.6679 14.6939 29.9999 14.6939C24.3319 14.6939 19.7225 19.0767 19.5949 24.53ZM31.9858 24.0867C31.9858 22.9522 32.815 22.0325 33.8378 22.0325C34.8605 22.0325 35.6897 22.9522 35.6897 24.0867C35.6897 25.2213 34.8605 26.1408 33.8378 26.1408C32.815 26.1408 31.9858 25.2213 31.9858 24.0867ZM24.3104 24.0867C24.3104 22.9522 25.1394 22.0325 26.1621 22.0325C27.1849 22.0325 28.0143 22.9522 28.0143 24.0867C28.0143 25.2213 27.1849 26.1408 26.1621 26.1408C25.1394 26.1408 24.3104 25.2213 24.3104 24.0867ZM31.7637 27.8455C31.7637 28.5055 31.0113 29.0406 30.0829 29.0406C29.1548 29.0406 28.4022 28.5055 28.4022 27.8455C28.4022 27.1854 29.1548 27.5837 30.0829 27.5837C31.0113 27.5837 31.7637 27.1854 31.7637 27.8455Z" fill="white"/>
<defs>
<linearGradient id="paint0_linear" x1="30" y1="0" x2="-8" y2="30" gradientUnits="userSpaceOnUse">
<stop stop-color="#A64096"/>
<stop offset="1" stop-color="#50959A"/>
</linearGradient>
</defs>
</svg>
