<svg width="60" height="60" viewBox="0 0 60 60" fill="none" xmlns="http://www.w3.org/2000/svg">
<rect width="60" height="60" rx="12" fill="white"/>
<g clip-path="url(#clip0)">
<path d="M36.9049 33.5737C43.1276 34.5003 47.4692 36.596 47.4692 39.033C47.4692 42.3285 39.5292 45 29.7346 45C19.94 45 12 42.3285 12 39.033C12 36.596 16.3416 34.5003 22.5642 33.5737C24.7016 34.0113 27.1426 34.2594 29.7346 34.2594C32.2615 34.2594 34.645 34.0237 36.7437 33.6067L36.9049 33.5737ZM34.2231 23.7622C39.859 24.3943 43.9222 26.1834 43.9222 28.2923C43.9222 30.9286 37.5702 33.0659 29.7346 33.0659C21.899 33.0659 15.5469 30.9286 15.5469 28.2923C15.5469 26.1836 19.6102 24.3941 25.2462 23.7623C26.6265 23.9897 28.1431 24.1152 29.7346 24.1152C31.2703 24.1152 32.7364 23.9982 34.0776 23.7859L34.2231 23.7622Z" fill="black"/>
<path d="M29.7345 23.1605C35.6113 23.1605 40.3753 21.5575 40.3753 19.5802C40.3753 17.6029 35.6113 16 29.7345 16C23.8578 16 19.0938 17.6029 19.0938 19.5802C19.0938 21.5575 23.8578 23.1605 29.7345 23.1605Z" fill="black"/>
</g>
<defs>
<clipPath id="clip0">
<rect width="36" height="29" fill="white" transform="translate(12 16)"/>
</clipPath>
</defs>
</svg>
