<svg width="60" height="60" viewBox="0 0 60 60" fill="none" xmlns="http://www.w3.org/2000/svg">
<rect width="60" height="60" rx="12" fill="#00D395"/>
<g clip-path="url(#clip0)">
<path fill-rule="evenodd" clip-rule="evenodd" d="M15.1634 40.4666C14.1861 39.8773 13.5884 38.8279 13.5884 37.7008V31.408C13.5884 31.1671 13.6538 30.935 13.776 30.7284C14.1556 30.0832 14.9976 29.8639 15.652 30.2423L30.0584 38.5223C30.9005 39.0084 31.4196 39.8945 31.4196 40.858V47.3788C31.4196 47.6756 31.3367 47.9723 31.1797 48.2262C30.7041 48.9918 29.6918 49.2327 28.9153 48.7638L15.1634 40.4666ZM36.6376 28.5175C37.4797 29.0036 37.9989 29.8897 37.9989 30.8531V44.0839C37.9989 44.4754 37.785 44.8367 37.4404 45.0259L34.286 46.7766C34.2467 46.7982 34.2031 46.8153 34.1595 46.8283V39.4816C34.1595 38.5309 33.6534 37.6492 32.8245 37.1589L20.172 29.6961V21.4032C20.172 21.1623 20.2375 20.93 20.3596 20.7236C20.7392 20.0784 21.5812 19.859 22.2357 20.2375L36.6376 28.5175ZM42.9421 18.7449C43.7885 19.2267 44.3077 20.1213 44.3077 21.0848V40.4107C44.3077 40.8064 44.0852 41.1719 43.7318 41.3613L40.7431 42.9527V29.4982C40.7431 28.5477 40.2371 27.6702 39.4125 27.1798L26.4808 19.5321V11.665C26.4808 11.4241 26.5462 11.1919 26.6641 10.9854C27.0436 10.3402 27.8857 10.1208 28.5401 10.495L42.9421 18.7449Z" fill="white"/>
</g>
<defs>
<clipPath id="clip0">
<rect width="31.2" height="39.6" fill="white" transform="translate(13.2 9.6)"/>
</clipPath>
</defs>
</svg>
