<svg width="60" height="60" viewBox="0 0 60 60" fill="none" xmlns="http://www.w3.org/2000/svg">
<rect width="60" height="60" rx="12" fill="#8247E5"/>
<path d="M38.959 23.6041C38.3081 23.2313 37.4716 23.2313 36.7279 23.6041L31.5221 26.681L27.9895 28.6394L22.8763 31.7159C22.2258 32.0892 21.3889 32.0892 20.6452 31.7159L16.6481 29.2914C15.9971 28.9186 15.5326 28.1729 15.5326 27.334V22.671C15.5326 21.9253 15.9044 21.1792 16.6481 20.7131L20.6457 18.3824C21.2962 18.009 22.1331 18.009 22.8768 18.3824L26.8739 20.8068C27.5249 21.1797 27.9895 21.9253 27.9895 22.7647V25.8416L31.5221 23.79V20.6199C31.5221 19.8742 31.1502 19.128 30.4065 18.6615L22.9695 14.2796C22.3186 13.9068 21.4821 13.9068 20.7384 14.2796L13.1155 18.7557C12.3718 19.1285 12 19.8747 12 20.6204V29.3851C12 30.1308 12.3718 30.877 13.1155 31.3435L20.6457 35.7254C21.2962 36.0982 22.1331 36.0982 22.8768 35.7254L27.9895 32.7417L31.5221 30.6906L36.6352 27.7068C37.2857 27.334 38.1226 27.334 38.8663 27.7068L42.8634 30.0376C43.5144 30.4104 43.979 31.1566 43.979 31.996V36.6575C43.979 37.4037 43.6071 38.1498 42.8634 38.6159L38.959 40.9466C38.3081 41.3195 37.4716 41.3195 36.7279 40.9466L32.7303 38.6159C32.0798 38.2431 31.6148 37.4969 31.6148 36.6575V33.6743L28.0827 35.7254V38.8023C28.0827 39.548 28.4546 40.2942 29.1983 40.7607L36.7279 45.1426C37.3789 45.5154 38.2153 45.5154 38.959 45.1426L46.4892 40.7602C47.1397 40.3874 47.6048 39.6412 47.6048 38.8018V29.9444C47.6048 29.1987 47.2329 28.4525 46.4892 27.986L38.959 23.6041V23.6041Z" fill="white"/>
</svg>
