<svg width="60" height="60" viewBox="0 0 60 60" fill="none" xmlns="http://www.w3.org/2000/svg">
<rect width="60" height="60" rx="12" fill="url(#paint0_linear)"/>
<rect width="60" height="60" rx="12" fill="url(#paint1_linear)"/>
<path d="M44 42.2801V42.6448L43.7824 43.2283L43.7098 43.3741L43.4197 43.7388L43.3472 43.8117H43.2746L43.2021 43.8847L42.9119 44.1035C42.19 44.5873 41.439 45.0257 40.6632 45.4162L40.1554 45.708L39.9378 45.7809L39.4301 46.0726H39.3575C39.1437 46.1783 38.9259 46.2757 38.7047 46.3644L38.1244 46.5832L37.9793 46.6561L36.6736 47.0937H36.601L35.9482 47.3125L34.8601 47.5313L34.1347 47.6772L33.772 47.7501L33.0466 47.823L32.3212 47.9689H31.5233C29.4581 48.0703 27.3881 47.9234 25.3575 47.5313C23.5461 47.1871 21.7892 46.5983 20.1347 45.7809C19.1192 45.3433 18.1762 44.7599 17.2332 44.1035L17.0881 44.0305L16.943 43.9576L16.7979 43.8117L16.6528 43.6659L16.5803 43.5929C16.3724 43.3652 16.2229 43.0898 16.1451 42.7907C16.0872 42.529 16.0831 42.2581 16.133 41.9948C16.1829 41.7314 16.2857 41.4811 16.4352 41.2591L16.5078 41.1132C17.4508 39.5087 18.6114 38.0501 19.9171 36.7373L20.2798 36.2997L20.715 35.935L21.0052 35.6433H21.0777L22.456 34.4764H22.5285L22.601 34.4034L22.8187 34.2576L23.0363 34.1117L23.399 33.8929L23.544 33.82L23.9793 33.747C24.4089 33.6473 24.8554 33.6473 25.285 33.747L25.5026 33.82C25.7927 33.8929 26.1554 34.1117 26.4456 34.3305L26.5181 34.4034L26.6632 34.5493L26.9534 34.7681L27.0259 34.841L27.3886 35.4245L28.2591 36.3726L28.7668 36.8831C29.381 37.5316 30.0352 38.1405 30.7254 38.7065L30.943 38.8523L31.1606 38.9982C31.3746 39.1187 31.6143 39.1855 31.8595 39.1929C32.1046 39.2003 32.3479 39.1481 32.5687 39.0407C32.7894 38.9333 32.9811 38.7739 33.1275 38.576C33.2739 38.3781 33.3705 38.1477 33.4093 37.9042C33.4819 37.3937 33.3368 36.9561 32.9741 36.6643L32.1762 35.7891H32.1036L30.1451 33.747L28.114 31.7779L16.6528 20.2545C16.2902 19.8898 16 19.3793 16 18.7959C16 18.4312 16.0725 18.1395 16.2902 17.8477L16.6528 17.2643H16.7254L16.7979 17.1913L17.0881 16.9725L18.2487 16.2432C21.9927 14.0024 26.2944 12.8809 30.6496 13.01C35.0048 13.1392 39.2333 14.5137 42.8394 16.9725L42.9119 17.0455L43.2746 17.2643L43.6373 17.7748C43.7946 18.0354 43.8895 18.3291 43.9147 18.6328C43.9399 18.9366 43.8946 19.242 43.7824 19.5252L43.5648 19.9628C42.0149 22.5542 39.9683 24.8101 37.544 26.5996L37.4715 26.6726L36.9637 27.0372C36.5285 27.256 36.0207 27.4019 35.4404 27.4019C34.715 27.4019 34.0622 27.1102 33.5544 26.5996L29.2746 22.4425L29.057 22.2966L28.9119 22.0778H28.8394C28.6304 21.9576 28.3961 21.8889 28.1556 21.8773C27.9151 21.8658 27.6753 21.9117 27.4558 22.0113C27.2364 22.111 27.0436 22.2615 26.8932 22.4505C26.7428 22.6396 26.6391 22.8618 26.5907 23.0989C26.5181 23.6094 26.6632 24.047 27.0259 24.4117L43.3472 40.8215C43.7824 41.1862 44 41.7696 44 42.2801Z" fill="white"/>
<path d="M29.5387 37.34C28.5553 36.3773 27.6451 35.3335 26.8166 34.2183L26.745 34.1421L26.1003 33.533C25.5989 33.2284 25.0258 33 24.3811 33C23.6721 33.0037 22.9872 33.2733 22.447 33.7614L22.3754 33.8376H22.3037C19.8661 35.7695 17.8197 38.2037 16.2865 40.9948C16.0716 41.2994 16 41.6801 16 41.9847C16.0046 42.2902 16.071 42.5911 16.1946 42.8669C16.3182 43.1428 16.4961 43.3872 16.7163 43.5836L17.0029 43.812L17.1461 43.8882C20.886 46.5857 25.3056 48.0189 29.8252 47.9998C33.765 47.9998 37.6332 46.9338 41 44.878C36.7736 43.1268 32.8338 40.6141 29.5387 37.34Z" fill="white"/>
<defs>
<linearGradient id="paint0_linear" x1="30" y1="0" x2="30" y2="60" gradientUnits="userSpaceOnUse">
<stop stop-color="#F98D33"/>
<stop offset="1" stop-color="#FBBA4F"/>
</linearGradient>
<linearGradient id="paint1_linear" x1="30" y1="0" x2="30" y2="60" gradientUnits="userSpaceOnUse">
<stop stop-color="#F98D33"/>
<stop offset="1" stop-color="#FBBA4F"/>
</linearGradient>
</defs>
</svg>
