<svg width="60" height="60" viewBox="0 0 60 60" fill="none" xmlns="http://www.w3.org/2000/svg">
<rect width="60" height="60" rx="12" fill="#0A0324"/>
<path d="M21.2166 23.5946C21.0035 23.33 20.6801 23.1831 20.3347 23.1831H13.2131C13.1543 23.1831 13.1029 23.161 13.0588 23.1243C13.022 23.0875 13 23.0434 13 22.992V18.1925C13 18.1411 13.022 18.097 13.0588 18.0602C13.1029 18.0161 13.1543 17.9941 13.2131 18.0014H20.7389C22.635 18.0014 24.2739 18.7805 25.6556 20.3313L27.4856 22.5657L23.9212 26.9094L21.2166 23.5946ZM34.372 20.3093C35.7463 18.7732 37.3925 18.0014 39.3107 18.0014H46.8144C46.8659 17.9941 46.9173 18.0161 46.9541 18.0455C46.9908 18.0823 47.0055 18.1337 46.9982 18.1925V22.992C46.9982 23.0434 46.9835 23.0875 46.9541 23.1243C46.9173 23.1684 46.8659 23.1904 46.8144 23.1831H39.6929C39.3548 23.1757 39.0315 23.33 38.811 23.5946L33.5635 29.9816L38.833 36.4127C39.0462 36.6553 39.3622 36.8023 39.6855 36.7949H46.8071C46.8585 36.7876 46.9173 36.817 46.9467 36.8537C46.9761 36.8978 46.9982 36.9566 46.9908 37.0081V41.8075C46.9908 41.859 46.9761 41.9031 46.9467 41.9398C46.91 41.9839 46.8585 42.006 46.8071 41.9986H39.3107C37.3925 41.9986 35.761 41.2195 34.394 39.6687L30.0285 34.3401L25.663 39.6687C24.2886 41.2195 22.6424 41.9986 20.7242 41.9986H13.2131C13.1617 42.006 13.1029 41.9766 13.0735 41.9398C13.0367 41.8957 13.022 41.8369 13.0294 41.7855V36.986C13.0294 36.9346 13.0441 36.8905 13.0735 36.8537C13.1102 36.8096 13.1617 36.7876 13.2131 36.7949H20.3347C20.6727 36.7949 20.9961 36.6406 21.2166 36.3833L26.3685 30.0919L34.372 20.3093Z" fill="#00D1FF"/>
</svg>
