<svg width="60" height="60" viewBox="0 0 60 60" fill="none" xmlns="http://www.w3.org/2000/svg">
<rect width="60" height="60" rx="12" fill="#F6F0F4"/>
<path d="M23.0115 17.2717C22.5821 17.209 22.564 17.2016 22.7661 17.1724C23.1533 17.1162 24.0676 17.1927 24.6977 17.3339C26.1685 17.6635 27.5069 18.5076 28.9356 20.0068L29.3151 20.4051L29.8582 20.3228C32.1456 19.9764 34.4725 20.2517 36.419 21.0991C36.9544 21.3323 37.7986 21.7963 37.9041 21.9156C37.9376 21.9536 37.9994 22.1983 38.0411 22.4594C38.1858 23.3625 38.1133 24.0549 37.8203 24.5719C37.6608 24.8532 37.6518 24.9425 37.759 25.1833C37.8448 25.3754 38.0833 25.5176 38.3197 25.5174C38.8033 25.5168 39.324 24.7798 39.5652 23.7544L39.6608 23.3471L39.8508 23.5498C40.8918 24.6616 41.7098 26.1778 41.8502 27.257L41.8868 27.5385L41.7118 27.2827C41.4104 26.8424 41.1078 26.5427 40.7204 26.301C40.0218 25.8655 39.2833 25.7171 37.327 25.62C35.5604 25.5323 34.5606 25.39 33.5689 25.0853C31.8822 24.567 31.0318 23.8766 29.0279 21.3989C28.138 20.2983 27.5879 19.6893 27.0406 19.199C25.7973 18.0847 24.5755 17.5004 23.0115 17.2717Z" fill="black"/>
<path d="M38.3013 20.2756C38.3524 19.5455 38.4749 19.0639 38.7209 18.6242C38.8183 18.4502 38.9097 18.3077 38.9238 18.3077C38.938 18.3077 38.8955 18.4362 38.8297 18.5932C38.6506 19.02 38.6212 19.6037 38.7446 20.2829C38.901 21.1446 38.9901 21.269 40.1163 22.1998C40.6445 22.6364 41.2589 23.1871 41.4819 23.4235L41.8868 23.8534L41.4819 23.5461C40.9865 23.1705 39.8475 22.4378 39.5957 22.333C39.427 22.2628 39.402 22.264 39.298 22.3478C39.2021 22.425 39.1819 22.5409 39.1684 23.0893C39.1478 23.9438 39.0038 24.4923 38.6561 25.0407C38.4682 25.3373 38.4384 25.2741 38.6087 24.9392C38.7357 24.6892 38.7487 24.5793 38.7477 23.7521C38.7456 22.0899 38.5016 21.6904 37.0707 21.0058C36.7081 20.8324 36.1108 20.5823 35.7434 20.45C35.3758 20.3178 35.0839 20.2025 35.0946 20.194C35.1351 20.1613 36.5307 20.4907 37.0923 20.6654C37.9277 20.9254 38.0658 20.959 38.1672 20.9277C38.2352 20.9067 38.2681 20.7465 38.3013 20.2756Z" fill="black"/>
<path d="M24.0084 22.5576C23.0989 21.5041 22.5362 19.8888 22.658 18.6813L22.6957 18.3077L22.9027 18.3395C23.2915 18.3991 23.9619 18.6091 24.2758 18.7695C25.1371 19.2096 25.5099 19.7891 25.8893 21.2771C26.0004 21.7129 26.1463 22.2062 26.2133 22.3731C26.3213 22.642 26.7294 23.2698 27.0612 23.6775C27.3003 23.9711 27.1416 24.1103 26.6133 24.0702C25.8064 24.0089 24.7134 23.3742 24.0084 22.5576Z" fill="black"/>
<path d="M37.2884 31.6057C33.1542 29.8941 31.6981 28.4083 31.6981 25.9014C31.6981 25.5327 31.7104 25.2308 31.7254 25.2308C31.7404 25.2308 31.9004 25.3524 32.0809 25.5013C32.9192 26.1927 33.8581 26.488 36.4571 26.878C37.9863 27.1072 38.8469 27.2926 39.641 27.5634C42.1643 28.4239 43.7254 30.1703 44.0978 32.5489C44.2059 33.2401 44.1425 34.5362 43.9671 35.2193C43.8285 35.7587 43.406 36.7313 43.2941 36.7686C43.2631 36.7791 43.2324 36.6565 43.2245 36.4898C43.182 35.5968 42.7429 34.7271 42.006 34.0757C41.1677 33.3352 40.0417 32.7456 37.2884 31.6057Z" fill="black"/>
<path d="M34.4185 32.1392C34.3692 31.844 34.2838 31.4667 34.2288 31.3012L34.1284 31L34.3147 31.2108C34.5724 31.5022 34.776 31.8753 34.9487 32.3723C35.0804 32.7516 35.0953 32.8644 35.0943 33.4806C35.0933 34.0857 35.0768 34.2126 34.955 34.5539C34.7633 35.0923 34.5253 35.4739 34.1258 35.8835C33.4081 36.6199 32.4851 37.0275 31.1535 37.1966C30.9219 37.2259 30.2472 37.2754 29.654 37.3066C28.1592 37.385 27.1753 37.5469 26.2913 37.8597C26.1642 37.9047 26.0507 37.932 26.0392 37.9204C26.0034 37.8847 26.6053 37.523 27.1026 37.2817C27.8035 36.9413 28.5014 36.7554 30.0648 36.4932C30.8372 36.3634 31.6348 36.2061 31.8373 36.1434C33.7499 35.5524 34.7332 34.0271 34.4185 32.1392Z" fill="black"/>
<path d="M36.7351 35.6593C36.2116 34.5066 36.0914 33.3937 36.3782 32.3557C36.4088 32.2448 36.4583 32.1538 36.4878 32.1538C36.5176 32.1538 36.6412 32.2224 36.7625 32.306C37.0036 32.4722 37.4876 32.7525 38.7768 33.4724C40.3853 34.3707 41.3024 35.0662 41.9263 35.8609C42.4724 36.557 42.8105 37.3495 42.9731 38.3161C43.0653 38.8637 43.0112 40.181 42.8742 40.7325C42.4416 42.4709 41.4365 43.8362 40.0028 44.6331C39.7927 44.7497 39.6039 44.8455 39.5837 44.8462C39.5632 44.8465 39.6397 44.6472 39.7537 44.4031C40.2361 43.3704 40.2909 42.3659 39.9263 41.2479C39.703 40.5634 39.2479 39.728 38.3287 38.3163C37.26 36.6749 36.998 36.2383 36.7351 35.6593Z" fill="black"/>
<path d="M20.8225 41.5073C22.318 40.2801 24.1788 39.4083 25.8737 39.1407C26.6041 39.0254 27.821 39.0712 28.4974 39.2394C29.5816 39.509 30.5514 40.1131 31.0559 40.8328C31.5489 41.5362 31.7603 42.1491 31.9804 43.5128C32.0674 44.0507 32.1618 44.591 32.1905 44.7131C32.3558 45.4201 32.6775 45.9851 33.0764 46.2687C33.7097 46.7192 34.8004 46.7472 35.8732 46.3406C36.0552 46.2714 36.2134 46.2237 36.2244 46.2345C36.2633 46.272 35.7231 46.6235 35.3421 46.8086C34.8292 47.0575 34.4214 47.1538 33.8795 47.1538C32.8968 47.1538 32.0812 46.668 31.4004 45.6773C31.2666 45.4824 30.9656 44.8985 30.7313 44.3798C30.0128 42.7865 29.6577 42.3013 28.8234 41.7701C28.0971 41.308 27.1605 41.225 26.456 41.5608C25.5304 42.0018 25.2722 43.1513 25.9352 43.8799C26.1986 44.1693 26.6899 44.419 27.0917 44.4676C27.8432 44.5586 28.489 44.0029 28.489 43.2654C28.489 42.7865 28.2998 42.5133 27.8229 42.3041C27.1719 42.0187 26.472 42.3524 26.4753 42.9468C26.4767 43.2003 26.5904 43.3596 26.8518 43.4745C27.0196 43.5483 27.0234 43.5542 26.8866 43.5266C26.2892 43.4062 26.1493 42.7062 26.6296 42.2415C27.2062 41.6836 28.3989 41.9298 28.8083 42.6912C28.9804 43.011 29.0003 43.648 28.8504 44.0327C28.5147 44.8936 27.5359 45.3464 26.5429 45.1001C25.8669 44.9323 25.5915 44.7507 24.7765 43.9346C23.3603 42.5167 22.8104 42.2419 20.7686 41.9321L20.3773 41.8727L20.8225 41.5073Z" fill="black"/>
<path fill-rule="evenodd" clip-rule="evenodd" d="M10.8411 8.8008C15.2707 14.5748 22.0999 23.5646 22.4389 24.0679C22.7188 24.4835 22.6135 24.8571 22.134 25.1498C21.8673 25.3127 21.319 25.4778 21.0445 25.4778C20.734 25.4778 20.3842 25.3172 20.1294 25.0575C19.9494 24.8742 19.2228 23.7089 17.5453 20.9134C16.2617 18.7745 15.1876 17.0002 15.1583 16.9704C15.0906 16.9017 15.0917 16.904 17.4144 21.3674C18.8728 24.1701 19.3652 25.1609 19.3652 25.2935C19.3652 25.5629 19.2967 25.7047 18.9871 26.0755C18.4711 26.6939 18.2404 27.3887 18.0738 28.8266C17.8871 30.4384 17.3621 31.577 15.9072 33.5256C15.0555 34.6664 14.9162 34.8756 14.7013 35.3353C14.4306 35.9144 14.3562 36.2386 14.326 36.9698C14.2941 37.7428 14.3562 38.242 14.5761 38.9812C14.7686 39.6282 14.9696 40.0555 15.4833 40.91C15.9266 41.6475 16.1819 42.1955 16.1819 42.4099C16.1819 42.5805 16.2122 42.5807 16.8992 42.414C18.5433 42.0155 19.8782 41.3141 20.629 40.4547C21.0937 39.9227 21.2028 39.6292 21.2063 38.9001C21.2086 38.4235 21.193 38.3236 21.073 38.0492C20.8777 37.6028 20.522 37.2317 19.7383 36.6562C18.7113 35.9022 18.2727 35.2952 18.1515 34.4605C18.052 33.7755 18.1674 33.2922 18.7355 32.0133C19.3236 30.6897 19.4693 30.1255 19.5679 28.7913C19.6316 27.9294 19.7197 27.5892 19.9503 27.3165C20.1908 27.0319 20.4073 26.9355 21.0026 26.8483C21.973 26.7059 22.5909 26.4362 23.0987 25.9335C23.5395 25.4976 23.7238 25.0773 23.7521 24.4448L23.7736 23.9654L23.5273 23.6571C22.6356 22.5404 10.2439 7.92308 10.1891 7.92308C10.1773 7.92308 10.4708 8.31807 10.8411 8.8008ZM16.6824 37.8443C16.8841 37.4609 16.7769 36.9679 16.4397 36.7273C16.1211 36.4997 15.6261 36.6067 15.6261 36.9034C15.6261 36.9938 15.6727 37.0596 15.7777 37.1176C15.9545 37.2153 15.9673 37.3252 15.8282 37.5498C15.6874 37.7773 15.6987 37.9771 15.8603 38.1129C16.1207 38.332 16.4894 38.2116 16.6824 37.8443Z" fill="black"/>
<path fill-rule="evenodd" clip-rule="evenodd" d="M24.9482 27.5774C24.4516 27.705 23.9687 28.1458 23.8193 28.6082C23.7281 28.8903 23.7798 29.3849 23.9165 29.5375C24.1372 29.7844 24.3503 29.8493 24.9281 29.846C26.0592 29.8394 27.0427 29.4332 27.157 28.9252C27.2507 28.5089 26.8187 27.9319 26.2239 27.6787C25.917 27.548 25.2641 27.4961 24.9482 27.5774ZM26.2706 28.4432C26.445 28.2357 26.3687 28.0113 26.0721 27.8596C25.507 27.5706 24.6527 27.8098 24.6527 28.2566C24.6527 28.4792 25.0982 28.7219 25.5065 28.7219C25.7785 28.7219 26.1505 28.5861 26.2706 28.4432Z" fill="black"/>
</svg>
